<svg width="300" height="301" viewBox="0 0 300 301" fill="none" xmlns="http://www.w3.org/2000/svg">
<path fill-rule="evenodd" clip-rule="evenodd" d="M150 0.88916C232.856 0.88916 300 68.0333 300 150.889C300 233.745 232.856 300.889 150 300.889C67.1441 300.889 0 233.879 0 150.889C0 67.899 67.1441 0.88916 150 0.88916Z" fill="#EE6F4F"/>
<path fill-rule="evenodd" clip-rule="evenodd" d="M149.102 198.506C151.241 198.883 152.373 196.996 152.877 195.235L156.399 179.887C157.909 176.994 170.615 165.923 171.244 163.281C172.125 159.633 170.866 152.21 171.495 147.933C172.628 148.059 174.137 149.191 175.144 149.694C176.779 150.575 177.408 151.204 177.534 153.217C177.786 157.117 177.031 161.897 178.54 164.665C184.202 166.3 182.692 160.262 182.692 155.607C182.566 146.549 184.327 148.814 169.86 140.762C166.338 138.749 162.815 141.643 160.299 143.404C159.67 146.675 160.173 156.11 160.173 160.01C160.299 165.168 160.551 163.658 154.009 170.452C150.99 173.597 150.486 174.226 149.857 177.119C148.725 182.529 146.712 189.574 146.209 194.732C146.209 196.871 146.586 198.003 149.102 198.506ZM174.641 187.435C176.653 190.203 179.924 196.996 181.434 197.751C182.944 198.506 184.831 198.003 185.711 196.871C186.718 195.613 186.089 193.6 184.831 191.587L171.244 168.439L166.212 173.345L174.641 187.435ZM147.97 166.929C149.228 168.062 150.99 167.055 151.996 166.3C152.751 165.671 156.776 161.394 157.405 160.388C158.286 158.878 157.909 157.494 157.783 153.343C156.776 153.72 148.977 161.268 148.096 162.778C147.341 163.91 146.838 165.797 147.97 166.929ZM160.676 128.811C152.877 131.327 156.147 143.027 163.444 139.378C165.834 138.246 168.602 136.359 168.099 132.333C167.596 128.685 163.947 127.804 160.676 128.811Z" fill="white"/>
<path fill-rule="evenodd" clip-rule="evenodd" d="M161.683 188.693H168.476L175.018 237.631H155.645L161.683 188.693Z" fill="white"/>
<path fill-rule="evenodd" clip-rule="evenodd" d="M136.897 188.693H143.187L124.443 233.479H106.83L136.897 188.693Z" fill="white"/>
<path fill-rule="evenodd" clip-rule="evenodd" d="M127.086 176.365L132.873 178.629L99.1577 214.232L82.4258 207.941L127.086 176.365Z" fill="white"/>
<path fill-rule="evenodd" clip-rule="evenodd" d="M122.557 162.652L127.212 166.552L84.5645 188.693L71.1035 177.497L122.557 162.652Z" fill="white"/>
<path fill-rule="evenodd" clip-rule="evenodd" d="M122.933 148.688L125.701 153.72C110.856 155.481 96.1368 157.117 81.292 158.878L73.4922 144.536L122.933 148.688Z" fill="white"/>
<path fill-rule="evenodd" clip-rule="evenodd" d="M129.476 131.956L130.105 137.617L87.0804 125.037L85.1934 108.808L129.476 131.956Z" fill="white"/>
<path fill-rule="evenodd" clip-rule="evenodd" d="M143.188 119.375L141.427 124.533L109.096 96.3534L114.128 81.5085L143.188 119.375Z" fill="white"/>
<path fill-rule="evenodd" clip-rule="evenodd" d="M157.529 113.84L154.259 117.614L137.023 82.1377L146.585 71.3186L157.529 113.84Z" fill="white"/>
<path fill-rule="evenodd" clip-rule="evenodd" d="M174.513 114.847L170.487 116.734L168.852 81.3833L180.551 75.8479L174.513 114.847Z" fill="white"/>
<path fill-rule="evenodd" clip-rule="evenodd" d="M189.61 121.766L185.584 122.018L196.026 92.8312L207.348 92.2021L189.61 121.766Z" fill="white"/>
<path fill-rule="evenodd" clip-rule="evenodd" d="M200.178 134.85L196.781 133.466L216.281 113.211L225.842 116.86L200.178 134.85Z" fill="white"/>
<path fill-rule="evenodd" clip-rule="evenodd" d="M206.345 149.443L204.332 147.304L226.096 139.504L231.631 145.795L206.345 149.443Z" fill="white"/>
<path fill-rule="evenodd" clip-rule="evenodd" d="M194.64 188.693H187.973L208.353 237.631H227.727L194.64 188.693Z" fill="white"/>
<path d="M248.235 107.173C248.361 107.55 248.613 107.676 248.864 107.802C249.116 107.928 249.493 107.802 249.745 107.676L250.248 107.424C250.625 107.298 250.751 107.047 250.877 106.795C251.003 106.544 250.877 106.292 250.751 105.915L249.619 103.65L246.977 105.034L248.235 107.173ZM253.267 100.128L253.896 101.386L250.877 103.021L252.009 105.286C252.387 106.04 252.512 106.669 252.261 107.298C252.009 107.927 251.506 108.431 250.751 108.808C249.996 109.186 249.242 109.311 248.613 109.186C247.984 109.06 247.48 108.557 247.103 107.802L245.216 104.279L253.267 100.128ZM240.435 94.0891L240.939 94.9697C241.19 94.9697 241.442 95.0955 241.693 94.9697C241.945 94.9697 242.322 94.8439 242.7 94.7181C243.077 94.5923 243.455 94.3407 243.958 94.0891C244.461 93.8375 245.09 93.4601 245.719 93.0827L247.984 91.6988L251.003 96.4794L243.329 101.134L242.574 99.8761L249.116 95.8504L247.606 93.4601L246.348 94.2149C245.593 94.7181 244.964 94.9697 244.461 95.3471C243.958 95.5988 243.455 95.8504 242.951 95.9762C242.574 96.102 242.197 96.2278 241.819 96.2278C241.442 96.2278 241.19 96.2278 240.939 96.2278C240.687 96.102 240.435 95.9762 240.184 95.8504C239.932 95.7246 239.806 95.4729 239.555 95.0955L239.303 94.5923L240.435 94.0891ZM241.693 85.5345L237.793 86.9183L239.429 88.9312L241.693 85.5345ZM237.164 92.0763L238.548 89.9376L236.535 87.2957L234.145 88.1763L233.265 87.0441L242.197 83.899L243.329 85.2829L238.045 93.0827L237.164 92.0763ZM232.006 78.2379L233.516 79.8733C233.768 80.1249 234.019 80.2507 234.271 80.2507C234.523 80.2507 234.774 80.1249 235.026 79.8733L235.277 79.6217C235.529 79.3701 235.655 79.1185 235.655 78.8669C235.655 78.6153 235.529 78.3637 235.277 78.1121L233.768 76.4766L232.006 78.2379ZM229.113 80.8797L230.748 82.641C231 82.8926 231.252 83.0184 231.503 83.0184C231.755 83.0184 232.006 82.8926 232.384 82.641L232.761 82.3894C233.013 82.1378 233.139 81.8862 233.139 81.6346C233.139 81.3829 233.013 81.0055 232.761 80.7539L231.126 78.9927L229.113 80.8797ZM233.768 74.5896L236.41 77.483C236.913 77.9863 237.164 78.6153 237.164 79.1185C237.164 79.7475 236.913 80.2507 236.41 80.7539C236.158 81.0055 235.906 81.1313 235.655 81.2571C235.403 81.3829 235.152 81.3829 235.026 81.3829C234.774 81.3829 234.648 81.3829 234.397 81.2571C234.271 81.1313 234.019 81.0055 233.894 81.0055C234.019 81.1313 234.145 81.2571 234.145 81.5088C234.271 81.7604 234.271 81.8862 234.271 82.1378C234.271 82.3894 234.271 82.641 234.145 82.8926C234.019 83.1442 233.894 83.3958 233.516 83.6474C233.265 83.899 233.013 84.0248 232.635 84.1506C232.384 84.2764 232.006 84.4022 231.755 84.4022C231.503 84.4022 231.126 84.4022 230.874 84.2764C230.623 84.1506 230.371 84.0248 230.119 83.7732L227.226 80.6281L233.768 74.5896ZM225.087 67.0413L226.094 67.922L222.823 71.8219L221.565 73.0799L223.326 72.4509L229.365 70.6896L230.371 71.5703L224.458 78.3637L223.452 77.483L226.723 73.5831L227.981 72.3251L226.219 72.9541L220.181 74.7154L219.175 73.8347L225.087 67.0413ZM219.426 64.3995L214.897 70.5638L213.765 69.6832L218.294 63.5188L216.155 62.0092L216.91 61.0028L222.32 64.9027L221.565 65.9091L219.426 64.3995ZM206.972 65.5317C205.965 65.0285 205.336 64.1479 205.21 63.1414C205.084 62.135 205.336 61.0028 206.091 59.6189C206.468 58.9899 206.846 58.4867 207.349 57.9835C207.726 57.6061 208.23 57.2287 208.733 57.1029C209.236 56.9771 209.739 56.8512 210.242 56.8512C210.746 56.8512 211.249 57.1029 211.752 57.3545C212.381 57.7319 212.884 58.2351 213.136 58.7383C213.388 59.2415 213.513 59.8705 213.513 60.6254H212.129C212.255 60.1221 212.13 59.7447 212.004 59.3673C211.878 58.9899 211.5 58.7383 211.123 58.4867C210.494 58.1093 209.991 58.1093 209.362 58.3609C208.733 58.6125 208.355 59.1157 207.852 59.7447L207.223 60.877C206.846 61.6318 206.72 62.2608 206.72 62.8898C206.846 63.5188 207.223 63.8963 207.726 64.2737C208.23 64.5253 208.607 64.6511 209.11 64.5253C209.488 64.3995 209.865 64.2737 210.242 63.8963L210.871 65.0285C210.242 65.4059 209.739 65.6575 209.11 65.7833C208.355 66.0349 207.601 65.9091 206.972 65.5317ZM196.152 59.7447L199.927 51.6933L204.959 54.0836L204.455 55.2158L200.681 53.4546L199.675 55.719L203.072 57.3545L202.568 58.4867L199.172 56.8512L198.04 59.2415L201.814 61.0028L201.31 62.135L196.152 59.7447ZM190.365 55.5932C190.743 55.719 190.994 55.719 191.372 55.719C191.624 55.719 192.001 55.5932 192.253 55.4674C192.504 55.3416 192.756 55.2158 192.882 54.9642C193.007 54.7126 193.259 54.461 193.259 54.2094L193.511 53.4546C193.636 53.2029 193.636 52.8255 193.636 52.5739C193.636 52.3223 193.511 52.0707 193.385 51.8191C193.259 51.5675 193.133 51.3159 192.882 51.1901C192.63 50.9385 192.378 50.8127 192.001 50.6869L191.624 50.5611L189.862 55.3416L190.365 55.5932ZM188.73 54.9642L190.491 50.1837L190.114 50.0579C189.736 49.9321 189.485 49.9321 189.107 49.9321C188.856 49.9321 188.478 50.0579 188.227 50.1837C187.975 50.3095 187.724 50.4353 187.598 50.6869C187.472 50.9385 187.22 51.1901 187.22 51.4417L186.969 52.1965C186.843 52.4481 186.843 52.8255 186.843 53.0771C186.843 53.3288 186.969 53.5804 187.095 53.832C187.22 54.0836 187.346 54.3352 187.598 54.461C187.849 54.7126 188.101 54.8384 188.478 54.9642H188.73ZM188.227 56.0964L187.849 55.9706C187.346 55.719 186.843 55.4674 186.466 55.2158C186.088 54.8384 185.837 54.461 185.585 54.0836C185.333 53.7062 185.333 53.2029 185.333 52.6997C185.333 52.1965 185.459 51.6933 185.585 51.1901C185.711 50.6869 185.962 50.3095 186.34 49.9321C186.591 49.5546 186.969 49.303 187.472 49.0514C187.849 48.7998 188.353 48.674 188.856 48.674C189.359 48.674 189.862 48.674 190.365 48.9256L190.743 49.0514L191.12 47.9192L192.504 48.4224L192.127 49.5546L192.504 49.6804C193.007 49.9321 193.511 50.1837 193.888 50.4353C194.265 50.8127 194.517 51.1901 194.769 51.5675C195.02 51.9449 195.02 52.4481 195.02 52.9513C195.02 53.4546 194.894 53.9578 194.769 54.461C194.643 54.9642 194.391 55.4674 194.014 55.719C193.636 56.0964 193.385 56.348 192.882 56.5996C192.504 56.8513 192.001 56.9771 191.498 56.9771C190.995 56.9771 190.491 56.9771 189.988 56.7254L189.611 56.5996L189.233 57.7319L187.849 57.2287L188.227 56.0964ZM175.017 43.3903C174.514 43.2645 174.137 43.1387 173.885 42.8871C173.634 42.6354 173.382 42.258 173.382 41.8806L173.256 41.2516L174.388 41L174.64 42.258C174.766 42.258 174.766 42.3838 174.892 42.3838C175.017 42.3838 175.143 42.3838 175.143 42.5096C175.269 42.5096 175.395 42.5096 175.521 42.5096C175.646 42.5096 175.772 42.5096 175.772 42.5096L176.401 41.5032L177.408 42.1322L177.03 42.6354C176.779 43.0129 176.527 43.2645 176.15 43.3903C175.898 43.3903 175.521 43.5161 175.017 43.3903ZM171.495 43.5161L172.879 43.7677L171.998 48.7998L171.495 50.5611L172.627 49.0514L176.779 44.3967L178.037 44.6483L176.527 53.4546L175.143 53.2029L176.024 48.1708L176.527 46.4096L175.395 47.9192L171.243 52.5739L169.985 52.3223L171.495 43.5161ZM160.298 42.3838L161.682 42.5096L161.305 47.5418L161.053 49.4288L162.06 47.7934L165.834 42.7612L167.092 42.8871L166.337 51.8191L164.953 51.6933L165.331 46.6612L165.582 44.7741L164.576 46.4096L160.802 51.4417L159.544 51.3159L160.298 42.3838ZM149.605 42.5096H150.989V46.2838H152.499L154.008 43.5161C154.134 43.1387 154.386 42.8871 154.637 42.7612C154.889 42.6354 155.14 42.5096 155.392 42.5096H156.021V43.7677H155.266L154.008 46.0321C153.882 46.2838 153.757 46.4096 153.631 46.5354C153.505 46.6612 153.379 46.787 153.128 46.787V46.9128C153.379 46.9128 153.505 47.0386 153.631 47.1644C153.757 47.2902 153.882 47.416 154.134 47.6676L155.518 50.1837H156.273V51.4417H155.392C155.14 51.4417 154.889 51.4417 154.637 51.1901C154.386 51.0643 154.26 50.8127 154.008 50.4353L152.247 47.5418H150.737V51.4417H149.354L149.605 42.5096ZM143.567 52.0707C142.434 52.1965 141.428 51.9449 140.673 51.3159C139.918 50.5611 139.415 49.5546 139.163 48.045C139.038 47.2902 139.038 46.6612 139.163 46.0321C139.289 45.4031 139.415 44.8999 139.667 44.5225C139.918 44.1451 140.296 43.7677 140.673 43.5161C141.05 43.2645 141.554 43.1387 142.183 43.0129C142.938 42.8871 143.567 43.0129 144.196 43.2645C144.699 43.5161 145.202 44.0193 145.579 44.5225L144.447 45.4031C144.196 45.0257 143.944 44.6483 143.567 44.5225C143.189 44.2709 142.812 44.2709 142.309 44.2709C141.679 44.3967 141.176 44.6483 140.799 45.1515C140.421 45.6547 140.421 46.2837 140.547 47.1644L140.799 48.5482C140.925 49.4288 141.176 49.9321 141.679 50.4353C142.183 50.8127 142.686 51.0643 143.315 50.9385C143.818 50.8127 144.196 50.6869 144.573 50.3095C144.825 49.9321 145.076 49.5546 145.202 49.1772L146.46 49.6804C146.208 50.3095 145.957 50.9385 145.454 51.3159C144.95 51.6933 144.321 52.0707 143.567 52.0707ZM131.489 54.0836L129.477 45.4031L134.886 44.1451L135.138 45.4031L131.112 46.4096L131.741 48.7998L135.389 47.9192L135.641 49.1772L131.993 50.0579L132.622 52.5739L136.647 51.5675L136.899 52.8255L131.489 54.0836ZM125.702 52.1965C125.451 52.3223 125.199 52.5739 124.948 52.6997C124.696 52.8255 124.319 52.9513 123.941 53.0771C122.935 53.3288 122.054 53.3288 121.425 52.9513C120.796 52.5739 120.293 51.9449 120.041 50.8127L119.286 48.2966L120.67 47.9192L121.425 50.4353C121.677 51.0643 121.928 51.4417 122.306 51.6933C122.683 51.9449 123.186 51.9449 123.815 51.6933C124.193 51.5675 124.57 51.4417 124.822 51.3159C125.073 51.1901 125.325 51.0643 125.451 50.9385L124.193 46.787L125.577 46.4096L128.093 54.9642L126.709 55.3416L125.702 52.1965ZM109.096 52.3223L110.354 51.8191L112.241 56.4738L112.87 58.2351L112.996 56.348L114.129 50.1837L115.261 49.6804L118.657 57.9835L117.399 58.4867L115.512 53.832L115.009 52.0707L114.883 53.9578L113.751 60.1221L112.493 60.6254L109.096 52.3223ZM101.171 56.4738L105.448 54.0836L106.077 55.2158L102.932 56.8512L106.58 63.5188L105.322 64.1479L101.171 56.4738ZM98.9063 67.0413C99.1579 66.9155 99.4095 66.6639 99.5353 66.4123C99.6611 66.1607 99.7869 65.9091 99.9127 65.5317C99.9127 65.2801 99.9127 64.9027 99.7869 64.5253C99.6611 64.1479 99.5353 63.8963 99.2837 63.5188L98.5289 62.3866C98.2773 62.0092 98.0257 61.7576 97.7741 61.506C97.5225 61.2544 97.2708 61.1286 96.8934 61.0028C96.6418 60.877 96.2644 60.877 96.0128 61.0028C95.7612 61.0028 95.3838 61.1286 95.1322 61.3802C94.8806 61.506 94.629 61.7576 94.5032 62.0092C94.3774 62.2608 94.2516 62.5124 94.2516 62.8898C94.2516 63.1414 94.2516 63.5188 94.3774 63.8963C94.5032 64.2737 94.629 64.5253 94.8806 64.9027L95.6354 66.0349C95.887 66.4123 96.1386 66.6639 96.3902 66.9155C96.6418 67.1671 96.8934 67.2929 97.2708 67.4188C97.5225 67.5446 97.8999 67.5446 98.1515 67.4188C98.2773 67.2929 98.5289 67.1671 98.9063 67.0413ZM99.5353 68.0478C99.0321 68.2994 98.5289 68.551 98.0257 68.6768C97.5224 68.8026 97.0192 68.6768 96.516 68.551C96.0128 68.4252 95.5096 68.1736 95.1322 67.7962C94.629 67.4188 94.2516 66.9155 93.8741 66.2865C93.4967 65.6575 93.1193 65.0285 92.9935 64.5253C92.8677 63.8963 92.7419 63.393 92.8677 62.8898C92.9935 62.3866 93.1193 61.8834 93.3709 61.506C93.6225 61.1286 93.9999 60.7512 94.5032 60.3738C95.0064 60.1221 95.5096 59.8705 96.0128 59.7447C96.516 59.6189 97.0192 59.7447 97.5224 59.8705C98.0257 59.9963 98.5289 60.2479 98.9063 60.6254C99.4095 61.0028 99.7869 61.506 100.164 62.135C100.542 62.764 100.919 63.393 101.045 63.8963C101.171 64.5253 101.297 65.0285 101.171 65.5317C101.045 66.0349 100.919 66.5381 100.668 66.9155C100.416 67.4187 100.039 67.7962 99.5353 68.0478ZM85.0679 67.4188L88.842 64.2737L89.5968 65.2801L86.8291 67.5446L91.7355 73.4573L90.6032 74.3379L85.0679 67.4188ZM80.539 72.9541L82.1744 76.854L84.0615 75.0928L80.539 72.9541ZM87.4582 77.1056L85.3195 75.8476L82.8034 77.9863L83.8099 80.2507L82.6776 81.2571L79.0293 72.5767L80.4132 71.4445L88.5904 76.225L87.4582 77.1056ZM78.5261 84.0248L73.7456 79.8733L71.8585 82.1378L73.1166 83.1442C73.6198 83.5216 73.9972 83.899 74.3746 84.2764C74.752 84.6538 75.0036 84.9054 75.2552 85.2829C75.5068 85.5345 75.6326 85.9119 75.8842 86.1635C76.01 86.4151 76.1358 86.6667 76.2616 86.9183L78.5261 84.0248ZM74.3746 88.9312L75.0036 88.1763C75.0036 87.9247 74.8778 87.6731 74.752 87.2957C74.6262 87.0441 74.3746 86.6667 74.2488 86.2893C73.9972 85.9119 73.7456 85.6603 73.3682 85.2829C72.9908 84.9054 72.6133 84.528 72.1101 84.0248L70.0973 82.2636L73.8714 77.9863L79.6583 83.0184L80.539 82.012L82.9292 84.1506L82.0486 85.1571L80.539 83.899L76.3874 88.8054L77.8971 90.0634L77.0165 91.0698L74.3746 88.9312ZM70.4747 96.102L63.1781 90.944L66.449 86.4151L67.4554 87.1699L65.0651 90.5666L67.078 91.9504L69.3424 88.8054L70.3489 89.5602L68.0844 92.7053L70.2231 94.2149L72.6133 90.8182L73.6198 91.573L70.4747 96.102ZM57.3911 100.128L60.9136 94.4665L68.5876 99.1212L67.8328 100.379L61.1652 96.3536L59.1524 99.6245L65.6941 103.65L64.9393 104.908L57.3911 100.128ZM51.1009 111.198C50.8493 111.702 50.5977 111.953 50.3461 112.205C50.0945 112.331 49.7171 112.456 49.2139 112.456H48.5849V111.198L49.8429 111.324C49.8429 111.198 49.9687 111.198 49.9687 111.073C49.9687 110.947 50.0945 110.821 50.0945 110.821C50.0945 110.695 50.2203 110.569 50.2203 110.569C50.2203 110.444 50.2203 110.318 50.2203 110.318L49.3397 109.437L50.2203 108.557L50.5977 109.06C50.8493 109.311 50.9751 109.689 51.1009 110.066C51.3525 110.318 51.3525 110.821 51.1009 111.198ZM50.3461 114.595L50.8493 113.337L55.5041 115.35L57.1395 116.231L56.0073 114.721L52.4848 109.563L52.988 108.431L61.1652 112.079L60.662 113.337L56.0073 111.324L54.3718 110.444L55.5041 111.953L59.0266 117.111L58.5233 118.243L50.3461 114.595ZM46.6978 125.288L47.201 124.03L51.9816 125.666L53.7428 126.421L52.4848 125.037L48.5849 120.13L48.9623 118.872L57.3911 121.766L56.8879 123.024L52.1074 121.388L50.3461 120.634L51.6041 122.018L55.5041 126.924L55.1266 128.182L46.6978 125.288ZM44.3075 135.856L44.5591 134.472L48.2074 135.353L48.5849 133.843L46.1946 131.704C45.943 131.453 45.6914 131.201 45.5656 130.95C45.4398 130.698 45.4398 130.446 45.5656 130.195L45.6914 129.566L46.9494 129.817L46.8236 130.572L48.7107 132.333C48.9623 132.585 49.0881 132.711 49.0881 132.837C49.2139 132.962 49.2139 133.088 49.2139 133.34C49.3397 133.214 49.4655 132.962 49.5913 132.837C49.7171 132.711 49.9687 132.585 50.2203 132.585L52.988 131.83L53.1138 131.075L54.3718 131.327L54.1202 132.208C54.1202 132.459 53.9944 132.711 53.7428 132.837C53.617 132.962 53.2396 133.088 52.8622 133.214L49.8429 134.095L49.5913 135.604L53.3654 136.485L53.1138 137.869L44.3075 135.856ZM52.359 143.907C52.2332 145.04 51.7299 145.92 50.8493 146.423C49.9687 146.927 48.8365 147.178 47.3268 146.927C46.572 146.801 45.943 146.675 45.4398 146.423C44.9366 146.172 44.4333 145.92 44.0559 145.543C43.6785 145.165 43.4269 144.788 43.3011 144.285C43.1753 143.782 43.1753 143.278 43.1753 142.775C43.3011 142.02 43.5527 141.391 43.9301 140.888C44.3075 140.385 44.9366 140.133 45.5656 139.882L46.0688 141.14C45.5656 141.265 45.314 141.391 44.9366 141.643C44.6849 141.894 44.4333 142.272 44.4333 142.775C44.3075 143.404 44.5591 144.033 44.9366 144.411C45.314 144.914 45.943 145.165 46.8236 145.291L48.2074 145.417C49.0881 145.543 49.7171 145.417 50.2203 145.04C50.7235 144.662 51.1009 144.285 51.1009 143.53C51.2267 143.027 51.1009 142.523 50.8493 142.146C50.5977 141.769 50.3461 141.517 49.8429 141.265L50.7235 140.259C51.3525 140.636 51.7299 141.14 52.1074 141.643C52.359 142.523 52.4848 143.153 52.359 143.907ZM41.6657 154.097C41.6657 154.601 41.5399 154.978 41.2882 155.355C41.0366 155.607 40.785 155.859 40.4076 156.11L39.7786 156.362L39.2754 155.23L40.4076 154.852C40.4076 154.726 40.4076 154.726 40.5334 154.601C40.5334 154.475 40.5334 154.349 40.5334 154.223C40.5334 154.097 40.5334 153.972 40.5334 153.846C40.5334 153.72 40.5334 153.594 40.5334 153.594L39.527 152.965L40.0302 151.833L40.5334 152.085C40.9108 152.21 41.1624 152.462 41.4141 152.839C41.5399 153.217 41.6657 153.594 41.6657 154.097ZM42.2947 157.494V156.11L47.3268 156.236L49.2139 156.362L47.5784 155.481L42.2947 152.085V150.827L51.2267 150.952V152.336L46.1946 152.21L44.3075 152.085L45.943 152.965L51.2267 156.362V157.62L42.2947 157.494ZM42.7979 168.691L42.6721 167.307L47.7042 166.929H49.5913L47.83 166.175L42.2947 163.155L42.1689 161.897L51.1009 161.268L51.2267 162.652L46.1946 163.029H44.3075L46.0688 163.784L51.6041 166.804L51.7299 168.062L42.7979 168.691ZM52.6106 174.1C52.7364 175.232 52.4848 176.239 51.8557 176.994C51.2267 177.748 50.0945 178.252 48.5849 178.503C47.83 178.629 47.201 178.629 46.572 178.629C45.943 178.503 45.4398 178.378 45.0624 178.126C44.6849 177.874 44.3075 177.497 44.0559 177.119C43.8043 176.742 43.5527 176.239 43.5527 175.61C43.4269 174.855 43.5527 174.226 43.8043 173.597C44.0559 173.094 44.4333 172.591 45.0624 172.213L45.943 173.345C45.5656 173.597 45.1882 173.849 45.0624 174.226C44.8107 174.603 44.8107 174.981 44.9366 175.484C45.0624 176.113 45.314 176.616 45.943 176.994C46.4462 177.245 47.201 177.371 47.9558 177.245L49.3397 176.994C50.2203 176.868 50.7235 176.616 51.2267 176.113C51.6041 175.61 51.7299 175.107 51.7299 174.478C51.6041 173.974 51.4783 173.597 51.1009 173.22C50.7235 172.968 50.3461 172.716 49.9687 172.716L50.4719 171.458C51.1009 171.584 51.7299 171.962 52.1074 172.465C52.2332 172.842 52.6106 173.345 52.6106 174.1ZM54.4976 183.284C54.7492 184.416 54.6234 185.422 53.9944 186.177C53.3654 187.058 52.359 187.561 50.8493 187.939C50.0945 188.064 49.4655 188.19 48.8365 188.19C48.2074 188.19 47.7042 188.064 47.201 187.813C46.6978 187.561 46.3204 187.31 46.0688 186.932C45.8172 186.555 45.5656 186.052 45.4398 185.548C45.314 184.793 45.314 184.164 45.4398 183.535C45.6914 182.906 46.0688 182.403 46.572 182.026L47.4526 183.032C47.0752 183.284 46.8236 183.535 46.572 183.913C46.4462 184.29 46.3204 184.668 46.4462 185.171C46.572 185.8 46.9494 186.303 47.4526 186.555C47.9558 186.806 48.7107 186.806 49.4655 186.681L50.8493 186.303C51.6041 186.052 52.2332 185.8 52.6106 185.297C52.988 184.793 53.1138 184.29 52.988 183.535C52.8622 183.032 52.6106 182.655 52.2332 182.403C51.8557 182.152 51.4783 182.026 50.9751 181.9L51.3525 180.642C52.1074 180.768 52.6106 181.019 53.1138 181.523C53.9944 181.9 54.246 182.529 54.4976 183.284ZM56.1331 193.6C56.0073 193.222 55.8815 192.971 55.6299 192.719C55.3782 192.468 55.2524 192.342 54.875 192.216C54.6234 192.09 54.246 192.09 53.9944 191.964C53.617 191.964 53.2396 191.964 52.8622 192.09L51.4783 192.468C51.1009 192.593 50.7235 192.719 50.4719 192.971C50.2203 193.222 49.9687 193.348 49.8429 193.6C49.7171 193.851 49.5913 194.103 49.5913 194.48C49.5913 194.732 49.5913 195.109 49.7171 195.361C49.8429 195.738 49.9687 195.99 50.2203 196.242C50.4719 196.493 50.5977 196.619 50.9751 196.745C51.2267 196.871 51.6041 196.871 51.8557 196.996C52.2332 196.996 52.6106 196.996 52.988 196.871L54.3718 196.493C54.7492 196.367 55.1266 196.242 55.3782 195.99C55.6299 195.738 55.8815 195.613 56.0073 195.361C56.1331 195.109 56.2589 194.858 56.2589 194.48C56.2589 194.229 56.1331 193.851 56.1331 193.6ZM57.2653 193.222C57.3911 193.726 57.5169 194.229 57.3911 194.732C57.3911 195.235 57.1395 195.738 56.8879 196.116C56.6363 196.493 56.2589 196.871 55.7557 197.248C55.2524 197.625 54.6234 197.877 53.8686 198.129C53.1138 198.38 52.4848 198.506 51.8557 198.506C51.2267 198.506 50.7235 198.38 50.2203 198.254C49.7171 198.003 49.3397 197.751 48.9623 197.374C48.5849 196.996 48.3332 196.493 48.2074 195.99C48.0816 195.487 47.9558 194.984 48.0816 194.355C48.0816 193.851 48.3333 193.348 48.5849 192.971C48.8365 192.593 49.2139 192.09 49.7171 191.838C50.2203 191.461 50.8493 191.209 51.6041 190.958C52.359 190.706 52.988 190.58 53.617 190.58C54.246 190.58 54.7492 190.706 55.2524 190.832C55.7557 191.084 56.1331 191.335 56.5105 191.713C56.8879 192.216 57.1395 192.593 57.2653 193.222ZM57.0137 205.677L56.1331 203.664C56.0073 203.287 55.7557 203.161 55.5041 203.035C55.2524 202.909 55.0008 202.909 54.6234 203.035L54.1202 203.287C53.7428 203.412 53.617 203.664 53.4912 203.916C53.3654 204.167 53.3654 204.419 53.617 204.796L54.4976 206.809L57.0137 205.677ZM62.0458 205.048L53.8686 208.696L52.359 205.299C51.9816 204.545 51.9816 203.916 52.2332 203.287C52.4848 202.658 52.988 202.154 53.7428 201.903C54.4976 201.525 55.1266 201.525 55.7557 201.651C56.3847 201.903 56.8879 202.28 57.1395 203.035L58.1459 205.174L61.4168 203.664L62.0458 205.048ZM66.1974 212.848L58.3975 217.125L55.7557 212.219L56.8879 211.59L58.9008 215.238L61.0394 213.98L59.1524 210.583L60.2846 209.954L62.1716 213.351L64.4361 212.093L62.4233 208.445L63.5555 207.816L66.1974 212.848ZM69.5941 218.006C70.2231 219.012 70.4747 219.893 70.0973 220.899C69.8457 221.906 69.0908 222.786 67.8328 223.667C67.2038 224.044 66.5748 224.422 66.0716 224.547C65.4425 224.673 64.9393 224.799 64.4361 224.799C63.9329 224.799 63.4297 224.547 63.0523 224.296C62.6749 224.044 62.2974 223.667 61.92 223.164C61.5426 222.535 61.291 221.906 61.291 221.277C61.291 220.648 61.4168 220.018 61.7942 219.389L63.0523 220.018C62.8007 220.396 62.6749 220.773 62.5491 221.151C62.5491 221.528 62.6749 221.906 62.9265 222.409C63.3039 222.912 63.8071 223.289 64.4361 223.289C65.0651 223.289 65.6941 223.164 66.3232 222.66L67.4554 221.906C68.0844 221.402 68.5876 220.899 68.7134 220.27C68.8392 219.641 68.8392 219.138 68.336 218.509C68.0844 218.131 67.707 217.754 67.2038 217.628C66.8264 217.502 66.3232 217.502 65.9458 217.628V216.244C66.7006 216.119 67.3296 216.119 67.8328 216.37C68.7134 216.873 69.2166 217.377 69.5941 218.006ZM72.6133 230.712L71.2295 229.076C70.9779 228.825 70.7263 228.699 70.4747 228.573C70.2231 228.573 69.9715 228.699 69.7199 228.825L69.4682 229.076C69.2166 229.328 69.0908 229.58 69.0908 229.831C69.0908 230.083 69.2166 230.334 69.3424 230.586L70.7263 232.221L72.6133 230.712ZM75.6326 228.196L74.123 226.309C73.8714 226.057 73.6198 225.805 73.3682 225.805C73.1166 225.805 72.7391 225.931 72.4875 226.057L72.1101 226.309C71.8585 226.56 71.7327 226.812 71.6069 227.063C71.6069 227.315 71.7327 227.693 71.9843 227.944L73.494 229.831L75.6326 228.196ZM70.6005 234.234L68.0844 231.215C67.5812 230.712 67.4554 230.083 67.4554 229.454C67.4554 228.825 67.8328 228.322 68.336 227.944C68.5876 227.693 68.8392 227.567 69.0908 227.441C69.3424 227.315 69.5941 227.315 69.7199 227.315C69.9715 227.315 70.0973 227.441 70.3489 227.441C70.4747 227.567 70.7263 227.693 70.8521 227.818C70.7263 227.693 70.6005 227.441 70.6005 227.315C70.4747 227.063 70.4747 226.812 70.4747 226.56C70.4747 226.309 70.6005 226.057 70.7263 225.805C70.8521 225.554 71.1037 225.302 71.3553 225.051C71.6069 224.799 71.9843 224.673 72.2359 224.547C72.6133 224.422 72.8649 224.422 73.1166 224.422C73.3682 224.422 73.7456 224.547 73.9972 224.673C74.2488 224.799 74.5004 225.051 74.752 225.302L77.5197 228.573L70.6005 234.234Z" fill="white"/>
</svg>
