<svg width="300" height="300" viewBox="0 0 300 300" fill="none" xmlns="http://www.w3.org/2000/svg">
<circle cx="150" cy="150" r="150" fill="#68C0AF"/>
<g clip-path="url(#clip0_227_9572)">
<path d="M96.5179 120.527V107.986H108.956V93.145H87.6041C84.2873 93.145 81.7997 95.8623 81.7997 98.9977V120.527H96.5179Z" fill="white"/>
<path d="M118.077 93.145H115.797V107.986H118.077V93.145Z" fill="white"/>
<path d="M120.564 107.986H123.467C124.71 107.986 125.747 106.941 125.747 105.687V95.4443C125.954 94.1901 124.918 93.145 123.467 93.145H120.564V107.986Z" fill="white"/>
<path d="M113.516 93.145H111.236V107.986H113.516V93.145Z" fill="white"/>
<path d="M111.236 122.827H84.08V137.667H111.236C119.321 137.667 125.954 144.356 125.954 152.508C125.954 160.66 119.321 167.349 111.236 167.349C103.151 167.349 96.5179 160.66 96.5179 152.508V139.967H81.7997V152.508C81.7997 168.812 95.0668 182.19 111.236 182.19C127.405 182.19 140.672 168.812 140.672 152.508C140.672 136.204 127.405 122.827 111.236 122.827Z" fill="white"/>
<path d="M66.4596 133.696L81.7997 137.667V122.827L66.4596 126.589V133.696Z" fill="white"/>
<path d="M64.1793 127.216L55.0582 129.515C54.4363 129.724 54.4363 130.561 55.0582 130.77L64.1793 133.069V127.216Z" fill="white"/>
<path d="M146.269 177.382V178.218C146.269 179.054 146.891 179.472 148.135 179.472C148.964 179.472 149.379 179.263 150.208 179.054C150.208 179.054 150.415 178.845 150.83 178.845C151.867 178.845 152.281 179.681 152.281 180.099C152.281 181.772 149.379 182.19 147.928 182.19C144.818 182.19 143.16 180.518 143.16 178.218V174.456C143.16 172.157 144.818 170.275 148.135 170.275C151.037 170.275 152.696 171.948 152.696 174.247C152.696 176.546 151.245 177.8 148.342 177.8C147.513 177.591 147.099 177.382 146.269 177.382ZM148.135 172.575C147.099 172.575 146.477 173.202 146.477 174.038V175.083C147.306 175.083 147.928 175.083 148.135 175.083C148.964 175.083 149.586 174.874 149.586 173.829C149.379 172.993 148.964 172.575 148.135 172.575Z" fill="white"/>
<path d="M160.78 175.919C162.231 176.546 162.853 177.382 162.853 178.636C162.853 180.727 161.402 182.19 158.293 182.19C156.842 182.19 154.147 181.772 154.147 180.308C154.147 179.681 154.561 178.845 155.391 178.845C155.805 178.845 156.22 179.054 156.427 179.054C157.049 179.263 157.464 179.472 158.5 179.472C159.329 179.472 159.951 179.263 159.951 178.218C159.951 177.8 159.744 177.173 157.878 176.964C157.049 176.964 156.013 176.755 156.013 175.71C156.013 174.665 157.049 174.665 157.671 174.456C159.537 174.247 159.537 173.411 159.537 173.202C159.537 172.575 159.122 172.157 158.086 172.157C156.842 172.157 156.427 172.784 155.598 172.784C154.769 172.784 154.147 172.157 154.147 171.32C154.147 170.066 156.427 169.439 158.086 169.439C160.988 169.439 162.439 170.902 162.439 172.784C162.646 174.456 162.231 175.292 160.78 175.919Z" fill="white"/>
<path d="M164.719 177.8V174.456C164.719 171.948 166.377 170.066 169.694 170.066C173.011 170.066 174.669 171.948 174.669 174.456V177.8C174.669 180.309 173.011 182.19 169.694 182.19C166.585 182.19 164.719 180.309 164.719 177.8ZM171.56 177.8V174.247C171.56 173.202 170.938 172.784 169.694 172.784C168.45 172.784 167.829 173.411 167.829 174.247V177.8C167.829 178.845 168.45 179.472 169.694 179.472C170.938 179.472 171.56 178.845 171.56 177.8Z" fill="white"/>
<path d="M185.242 170.275C186.071 170.275 186.9 170.902 186.9 171.738V180.727C186.9 181.563 186.278 182.19 185.242 182.19C184.412 182.19 183.583 181.563 183.583 180.727V172.993H180.266V180.727C180.266 181.563 179.645 182.19 178.608 182.19C177.572 182.19 176.95 181.563 176.95 180.727V171.738C176.95 170.902 177.572 170.275 178.608 170.275H185.242Z" fill="white"/>
<path d="M198.509 179.263C198.509 179.89 198.923 179.89 199.338 180.099C199.752 180.309 199.96 180.518 199.96 180.936C199.96 181.772 199.545 182.19 198.301 182.19C197.472 182.19 196.85 181.981 196.436 181.145C195.606 181.772 194.57 182.19 193.326 182.19C190.631 182.19 189.18 180.727 189.18 178.636C189.18 176.337 190.631 175.083 193.741 175.083C194.363 175.083 194.984 175.083 195.606 175.292V174.456C195.606 173.411 194.984 172.784 193.948 172.784C193.326 172.784 192.912 172.993 192.497 173.202C192.29 173.202 192.082 173.411 191.668 173.411C190.631 173.411 190.424 172.575 190.424 172.157C190.424 170.693 192.497 170.275 194.363 170.275C197.679 170.275 199.13 171.948 199.13 175.083V179.263H198.509ZM192.082 178.427C192.082 179.263 192.497 179.472 193.533 179.472C194.155 179.472 194.777 179.263 195.399 178.845V177.173C194.777 176.964 194.155 176.964 193.741 176.964C192.497 177.173 192.082 177.8 192.082 178.427Z" fill="white"/>
<path d="M201.204 174.456C201.204 171.948 202.655 170.066 205.971 170.066C207.422 170.066 209.91 170.484 209.91 172.157C209.91 172.784 209.703 173.411 208.459 173.411C208.252 173.411 208.044 173.411 207.63 173.202C207.215 172.993 206.801 172.784 205.971 172.784C204.728 172.784 204.106 173.411 204.106 174.456V177.591C204.106 178.636 204.52 179.263 205.971 179.263C206.593 179.263 207.008 179.054 207.63 178.845C207.837 178.845 208.044 178.636 208.252 178.636C209.495 178.636 209.703 179.263 209.703 179.891C209.703 181.563 207.215 181.981 205.764 181.981C202.447 181.981 200.996 180.1 200.996 177.591V174.456H201.204Z" fill="white"/>
<path d="M213.434 182.19C212.605 182.19 211.776 181.563 211.776 180.727V171.53C211.776 170.693 212.398 170.066 213.434 170.066C214.263 170.066 215.092 170.693 215.092 171.53V174.665H218.617V171.53C218.617 170.693 219.238 170.066 220.275 170.066C221.104 170.066 221.933 170.693 221.933 171.53V180.727C221.933 181.563 221.311 182.19 220.275 182.19C219.446 182.19 218.617 181.563 218.617 180.727V177.382H215.092V180.727C214.885 181.563 214.263 182.19 213.434 182.19Z" fill="white"/>
<path d="M233.335 179.263C233.335 179.89 233.749 179.89 234.164 180.099C234.579 180.309 234.786 180.518 234.786 180.936C234.786 181.772 234.371 182.19 233.127 182.19C232.298 182.19 231.676 181.981 231.262 181.145C230.433 181.772 229.396 182.19 228.152 182.19C225.457 182.19 224.006 180.727 224.006 178.636C224.006 176.337 225.457 175.083 228.567 175.083C229.189 175.083 229.811 175.083 230.433 175.292V174.456C230.433 173.411 229.811 172.784 228.774 172.784C228.152 172.784 227.738 172.993 227.323 173.202C227.116 173.202 226.908 173.411 226.494 173.411C225.457 173.411 225.25 172.575 225.25 172.157C225.25 170.693 227.323 170.275 229.189 170.275C232.506 170.275 233.957 171.948 233.957 175.083V179.263H233.335ZM226.908 178.427C226.908 179.263 227.323 179.472 228.36 179.472C228.981 179.472 229.603 179.263 230.225 178.845V177.173C229.603 176.964 228.981 176.964 228.567 176.964C227.323 177.173 226.908 177.8 226.908 178.427Z" fill="white"/>
<path d="M242.456 180.727V177.8H241.419L238.725 181.563C238.31 181.981 237.895 182.19 237.481 182.19C236.652 182.19 236.03 181.772 236.03 180.936C236.03 180.727 236.03 180.308 236.237 180.099L238.31 177.382C236.859 176.755 236.237 175.71 236.237 174.038C236.237 171.947 237.688 170.484 240.798 170.484H244.322C245.151 170.484 245.98 171.111 245.98 171.947V180.936C245.98 181.772 245.358 182.399 244.322 182.399C243.078 182.19 242.456 181.354 242.456 180.727ZM240.798 175.083H242.456V172.993H240.59C239.761 172.993 239.139 173.411 239.139 174.038C239.139 174.456 239.346 175.083 240.798 175.083Z" fill="white"/>
<path d="M85.5311 195.567L85.9457 188.879C85.9457 188.042 86.7749 187.206 87.8114 187.206H94.2376C95.2741 187.206 96.1033 188.042 96.1033 188.879V200.793C97.1398 200.793 97.5544 201.629 97.5544 202.465V205.392C97.5544 206.228 96.9325 206.855 95.896 206.855C95.0668 206.855 94.2376 206.228 94.2376 205.392V203.719H85.9457V205.392C85.9457 206.228 85.3238 206.855 84.2873 206.855C83.4581 206.855 82.6289 206.228 82.6289 205.392V202.465C82.6289 201.629 83.2508 200.793 84.2873 200.793C84.9092 199.748 85.3238 198.076 85.5311 195.567ZM87.6041 200.793H92.372V190.133H88.8479L88.6406 195.567C88.6406 197.658 88.226 199.33 87.6041 200.793Z" fill="white"/>
<path d="M98.7983 197.658V193.059C98.7983 189.715 100.457 186.997 104.81 186.997C109.163 186.997 110.822 189.715 110.822 193.059V197.658C110.822 201.002 108.749 203.928 104.81 203.928C100.871 203.928 98.7983 201.211 98.7983 197.658ZM102.115 193.059V197.658C102.115 199.539 102.944 200.793 104.81 200.793C106.676 200.793 107.505 199.539 107.505 197.658V193.059C107.505 191.178 106.676 189.924 104.81 189.924C102.737 189.924 102.115 191.178 102.115 193.059Z" fill="white"/>
<path d="M116.626 198.076V202.465C116.626 203.301 115.797 203.928 114.968 203.928C114.138 203.928 113.309 203.301 113.309 202.465V188.879C113.309 188.042 114.138 187.206 115.175 187.206H118.699C123.052 187.206 124.711 189.924 124.711 192.641C124.711 196.194 122.43 198.076 118.699 198.076H116.626ZM116.626 195.149H118.699C120.357 195.149 121.394 194.313 121.394 192.641C121.394 191.387 120.979 190.133 118.699 190.133H116.626V195.149Z" fill="white"/>
<path d="M126.369 197.658V193.059C126.369 189.715 128.027 186.997 132.38 186.997C136.734 186.997 138.392 189.715 138.392 193.059V197.658C138.392 201.002 136.319 203.928 132.38 203.928C128.235 203.928 126.369 201.211 126.369 197.658ZM129.478 193.059V197.658C129.478 199.539 130.308 200.793 132.173 200.793C134.039 200.793 134.868 199.539 134.868 197.658V193.059C134.868 191.178 134.039 189.924 132.173 189.924C130.308 189.924 129.478 191.178 129.478 193.059Z" fill="white"/>
<path d="M144.196 202.465C144.196 203.301 143.367 203.928 142.538 203.928C141.709 203.928 140.88 203.301 140.88 202.465V188.879C140.88 188.042 141.709 187.206 142.538 187.206H148.964C149.794 187.206 150.623 187.833 150.623 188.67C150.623 189.506 150.001 190.133 148.964 190.133H144.196V202.465Z" fill="white"/>
<path d="M154.769 202.883C154.562 203.51 153.732 203.928 153.318 203.928C152.489 203.928 151.659 203.301 151.659 202.465C151.659 202.256 151.659 202.047 151.659 202.047L156.22 188.67C156.427 187.833 157.049 186.997 158.086 186.997C159.122 186.997 159.744 187.624 159.951 188.67L164.512 202.047C164.512 202.256 164.512 202.465 164.512 202.465C164.512 203.301 163.89 203.928 162.853 203.928C162.232 203.928 161.402 203.51 161.195 202.883L160.366 200.584H155.391L154.769 202.883ZM158.5 193.686C158.293 193.059 158.086 192.223 158.086 191.387C158.086 192.014 157.878 193.059 157.671 193.686L156.427 197.658H159.744L158.5 193.686Z" fill="white"/>
<path d="M173.633 198.285H167.207C166.377 198.285 165.548 197.658 165.548 196.822C165.548 195.985 166.17 195.358 167.207 195.358H173.633C174.462 195.358 175.291 195.985 175.291 196.822C175.291 197.658 174.462 198.285 173.633 198.285Z" fill="white"/>
<path d="M179.23 195.567L179.644 188.879C179.644 188.042 180.474 187.206 181.51 187.206H187.936C188.973 187.206 189.802 188.042 189.802 188.879V200.793C190.839 200.793 191.253 201.629 191.253 202.465V205.392C191.253 206.228 190.631 206.855 189.595 206.855C188.766 206.855 187.936 206.228 187.936 205.392V203.719H179.644V205.392C179.644 206.228 179.023 206.855 177.986 206.855C177.157 206.855 176.328 206.228 176.328 205.392V202.465C176.328 201.629 176.95 200.793 177.986 200.793C178.608 199.748 179.023 198.076 179.23 195.567ZM181.51 200.793H186.278V190.133H182.754L182.547 195.567C182.339 197.658 182.132 199.33 181.51 200.793Z" fill="white"/>
<path d="M201.204 203.719H194.985C193.741 203.719 192.912 203.301 192.912 202.047V188.879C192.912 188.042 193.741 187.206 194.777 187.206H200.996C201.825 187.206 202.655 187.833 202.655 188.67C202.655 189.506 201.825 190.133 200.996 190.133H196.228V193.895H200.582C201.411 193.895 202.24 194.522 202.24 195.358C202.24 196.194 201.618 196.821 200.582 196.821H196.228V200.584H201.411C202.24 200.584 203.069 201.211 203.069 202.047C202.862 203.092 202.24 203.719 201.204 203.719Z" fill="white"/>
<path d="M207.837 190.133H205.35C204.313 190.133 203.691 189.506 203.691 188.67C203.691 188.042 204.313 187.206 205.35 187.206H213.642C214.471 187.206 215.3 187.833 215.3 188.67C215.3 189.506 214.471 190.133 213.642 190.133H211.154V202.465C211.154 203.301 210.325 203.928 209.496 203.928C208.666 203.928 207.837 203.301 207.837 202.465V190.133Z" fill="white"/>
<path d="M222.555 187.206H226.079C227.116 187.206 227.945 188.042 227.945 188.879V202.465C227.945 203.301 227.323 203.928 226.287 203.928C225.457 203.928 224.628 203.301 224.628 202.465V197.031H223.384L219.446 203.301C219.239 203.51 218.824 203.928 218.202 203.928C217.58 203.928 216.544 203.301 216.544 202.465C216.544 202.256 216.544 201.838 216.751 201.42L219.86 196.612C217.787 195.985 216.544 194.522 216.544 192.014C216.751 189.715 218.202 187.206 222.555 187.206ZM222.348 193.895H224.628V189.924H222.348C220.482 189.924 220.068 190.969 220.068 192.014C220.068 193.268 220.897 193.895 222.348 193.895Z" fill="white"/>
<path d="M245.565 202.465C245.565 203.301 244.736 203.928 243.907 203.928C243.078 203.928 242.249 203.301 242.249 202.465V194.313L239.554 199.539C239.347 200.166 238.725 200.375 238.103 200.375C237.481 200.375 236.859 200.166 236.652 199.539L233.957 194.313V202.465C233.957 203.301 233.128 203.928 232.298 203.928C231.469 203.928 230.64 203.301 230.64 202.465V188.46C230.64 187.624 231.262 186.997 232.298 186.997C233.128 186.997 233.542 187.206 233.957 187.833L238.103 196.194L242.249 187.833C242.663 187.206 243.285 186.997 243.907 186.997C244.944 186.997 245.565 187.624 245.565 188.46V202.465Z" fill="white"/>
</g>
<defs>
<clipPath id="clip0_227_9572">
<rect width="191.129" height="113.71" fill="white" transform="translate(54.4355 93.145)"/>
</clipPath>
</defs>
</svg>
