<svg width="300" height="300" viewBox="0 0 300 300" fill="none" xmlns="http://www.w3.org/2000/svg">
<circle cx="150" cy="150" r="150" fill="#0071BC"/>
<path d="M118.362 83.8386C117.553 83.8386 116.744 83.7331 115.935 83.522C112.804 82.6779 110.026 80.3564 108.267 77.1205C105.066 71.2466 106.262 64.1064 110.975 61.2222C112.98 59.9912 115.372 59.6746 117.799 60.3429C120.929 61.1871 123.708 63.5085 125.467 66.7444C128.668 72.6183 127.472 79.7585 122.758 82.6427C121.422 83.4165 119.909 83.8386 118.362 83.8386ZM115.337 61.8905C114.141 61.8905 112.98 62.2071 111.96 62.8402C108.091 65.1968 107.177 71.2114 109.92 76.2412C111.433 79.0199 113.825 81.0247 116.462 81.7282C118.397 82.2558 120.226 82.0096 121.809 81.0599C125.678 78.7033 126.592 72.6887 123.849 67.6589C122.336 64.8802 119.945 62.8754 117.307 62.1719C116.603 61.9609 115.97 61.8905 115.337 61.8905Z" fill="white"/>
<path d="M177.135 118.132C175.552 118.132 174.04 117.71 172.738 116.796C168.623 113.947 168.166 107.44 171.718 102.234C173.407 99.772 175.798 97.943 178.366 97.1341C181.039 96.2899 183.642 96.6065 185.682 98.0134C187.722 99.4203 188.918 101.742 189.094 104.52C189.27 107.229 188.39 110.078 186.702 112.54C184.24 116.128 180.547 118.132 177.135 118.132ZM173.793 115.283C177.065 117.534 182.165 115.881 185.154 111.52C186.632 109.374 187.37 106.947 187.23 104.661C187.089 102.445 186.174 100.651 184.627 99.561C183.079 98.5058 181.039 98.2596 178.929 98.9279C176.748 99.6313 174.708 101.179 173.266 103.289C170.276 107.651 170.522 112.997 173.793 115.283Z" fill="white"/>
<path d="M108.473 185.278C108.191 185.278 107.875 185.242 107.558 185.207C104.428 184.715 102.282 181.76 102.774 178.63L107.347 149.788C103.478 149.436 100.453 146.658 100.453 143.281L100.488 143.035L106.96 120.172C106.116 117.816 105.518 115.248 105.237 112.54C98.7999 123.619 94.5088 130.935 90.7101 130.091C90.4991 130.056 89.9011 129.915 89.3383 129.387C85.1176 125.307 97.4634 107.123 101.332 101.636C104.392 97.3096 108.191 91.9633 111.005 89.2197C113.573 86.1949 116.598 84.6121 119.833 84.6121C123.245 84.6121 126.552 86.4762 129.19 89.8529C129.225 89.888 129.26 89.9232 129.33 89.9584C130.491 90.8025 131.722 92.1743 136.928 98.2592C137.35 98.7165 137.385 98.7868 137.561 98.9627C137.877 99.3144 138.616 100.088 142.415 104.344C148.851 111.555 152.122 115.318 153.67 117.851C154.69 118.132 155.816 118.66 157.117 119.293C159.649 120.524 162.78 122.036 166.79 122.318C169.392 122.494 171.644 122.107 173.648 121.755C174.563 121.579 175.407 121.438 176.216 121.368C176.322 121.333 176.427 121.262 176.533 121.227C178.397 120.418 183.356 118.308 187.753 120.418C188.386 120.7 188.984 121.087 189.547 121.544C192.325 122.634 195.737 125.202 199.747 129.212C200.872 130.337 210.826 140.502 207.766 144.477C207.309 145.075 206.359 145.813 204.425 145.778C201.576 145.743 200.063 143.597 198.164 140.854C197.285 139.588 196.265 138.146 194.963 136.668C194.928 136.598 194.858 136.563 194.823 136.492C194.928 137.899 194.963 139.271 195.034 140.608L195.069 141.1C195.28 145.426 195.456 149.507 192.677 152.074C192.361 152.356 191.974 152.672 191.411 152.954L195.139 176.097C195.737 179.72 194.119 183.273 191.481 184.152C190.391 184.504 189.23 184.363 188.245 183.765C186.803 182.886 185.748 181.162 185.396 179.052L181.457 154.677C181.422 154.466 181.386 154.255 181.386 154.044C180.296 154.044 179.276 154.079 178.291 154.044L174.457 178.841C174.106 181.057 173.015 182.921 171.538 183.8C170.553 184.398 169.392 184.539 168.337 184.152C165.699 183.238 164.116 179.544 164.679 175.781L168.161 153.129C167.106 152.813 166.579 152.426 166.227 152.074C163.202 149.084 163.589 144.477 163.87 141.065C163.905 140.537 164.363 136 166.614 131.252C159.861 130.865 151.595 127.734 149.555 123.514C145.967 122.107 140.902 117.323 134.606 111.238C134.395 114.122 133.868 116.866 132.988 119.398L139.706 143.105V143.246C139.706 145.637 138.194 147.818 135.767 148.979L141.817 177.012C142.485 180.072 140.515 183.132 137.455 183.8C134.395 184.469 131.335 182.499 130.667 179.439L124.371 150.351C124.336 150.21 124.3 150.034 124.3 149.858H118.954L114.1 180.459C113.678 183.238 111.251 185.278 108.473 185.278ZM102.352 143.351C102.423 145.884 105.026 147.924 108.226 147.924H109.563L104.674 178.911C104.357 181.022 105.799 182.991 107.91 183.343C110.02 183.695 111.99 182.218 112.342 180.107L117.301 148.838C117.301 148.803 117.301 148.768 117.301 148.733L117.407 147.924H126.235L126.2 148.909C126.165 149.295 126.2 149.612 126.27 149.893L132.566 178.982C133.023 181.057 135.063 182.358 137.139 181.901C139.214 181.444 140.515 179.404 140.058 177.328L133.657 147.748L134.43 147.466C136.506 146.728 137.842 145.11 137.912 143.316L131.089 119.328L131.194 119.047C132.214 116.022 132.812 112.61 132.883 109.128L132.918 107.193L134.395 108.424C134.606 108.6 134.817 108.776 135.063 109.022C141.57 115.318 147.198 120.735 150.575 121.86L150.997 122.001L151.138 122.423C152.404 125.8 160.283 129.176 167.352 129.387C167.599 129.387 167.845 129.387 168.126 129.387H169.709L168.935 130.794C166.227 135.648 165.77 140.643 165.699 141.206C165.418 144.406 165.101 148.346 167.528 150.702C167.704 150.878 168.021 151.195 169.428 151.476L170.272 151.652L166.508 175.992C166.086 178.806 167.177 181.69 168.935 182.323C169.463 182.499 170.026 182.464 170.553 182.112C171.573 181.514 172.312 180.142 172.558 178.489L176.603 152.074H177.412C178.678 152.074 180.05 152.074 181.492 152.074L183.18 152.039V152.989C183.18 153.446 183.216 153.868 183.251 154.255L187.19 178.63C187.436 180.178 188.175 181.479 189.16 182.042C189.723 182.393 190.285 182.464 190.848 182.253C192.572 181.655 193.697 178.911 193.24 176.238L189.265 151.547L190.039 151.3C190.707 151.089 191.024 150.878 191.341 150.562C193.486 148.557 193.31 145.075 193.134 141.03L193.099 140.537C192.994 138.357 192.888 136.141 192.677 133.925L192.396 131.428L194.225 133.151C194.963 133.854 195.632 134.523 196.3 135.261C197.672 136.809 198.727 138.321 199.641 139.623C201.541 142.331 202.596 143.738 204.39 143.738C205.621 143.738 206.078 143.386 206.219 143.175C207.379 141.663 203.792 135.789 198.375 130.337C194.506 126.468 191.235 124.006 188.703 123.021L188.562 122.951L188.456 122.845C187.999 122.458 187.471 122.142 186.944 121.86C183.286 120.137 179.065 121.931 177.236 122.705C177.166 122.74 177.06 122.775 176.99 122.81L176.673 122.951H176.497C175.759 123.021 174.915 123.162 173.93 123.338C171.925 123.689 169.463 124.112 166.614 123.936C162.252 123.654 158.77 121.966 156.238 120.735C154.901 120.067 153.74 119.504 152.826 119.363L152.404 119.293L152.193 118.941C150.821 116.584 147.62 112.856 140.937 105.399C137.174 101.179 136.435 100.405 136.119 100.053C135.908 99.842 135.872 99.7717 135.415 99.2793C130.385 93.4405 129.084 91.9984 128.099 91.2598L127.747 91.0136L127.642 90.9081C125.32 87.8832 122.577 86.2652 119.693 86.2652C117.055 86.2652 114.487 87.637 112.271 90.2398L112.201 90.3101C109.528 92.8777 105.729 98.1889 102.704 102.48C95.0364 113.313 88.3535 125.765 90.4639 127.805C90.6398 127.981 90.8156 128.016 90.9211 128.016C93.4184 128.543 98.3778 120.067 103.583 111.097C103.724 110.886 104.041 110.288 104.533 109.62C104.709 109.374 104.885 109.163 105.061 108.952L106.608 107.017L106.714 109.479C106.855 113.032 107.523 116.514 108.648 119.504L108.754 119.785L102.352 143.351Z" fill="white"/>
<path d="M95.0047 199.206C94.7937 199.206 94.6178 199.242 94.5123 199.277C94.3716 199.312 94.3012 199.417 94.2309 199.523C94.1605 199.664 94.0902 199.804 94.055 200.015C94.0198 200.226 93.9495 200.508 93.9143 200.824L92.6481 209.583L92.3667 211.517H89.3066L91.2412 199.171C91.3115 198.82 91.3467 198.503 91.4522 198.151C91.5225 197.8 91.6632 197.518 91.8391 197.237C92.015 196.955 92.2612 196.744 92.5777 196.568C92.8943 196.393 93.3516 196.322 93.8792 196.322H98.0647V211.552H95.0047V199.206Z" fill="white"/>
<path d="M104.081 211.552H100.845L101.794 207.719L98.9102 196.393H102.041L103.412 203.533L104.784 196.393H107.914L104.081 211.552Z" fill="white"/>
<path d="M111.644 196.393V204.694C111.644 204.799 111.644 204.87 111.679 204.94C111.714 204.975 111.785 205.01 111.925 205.01H113.438V196.393H116.463V211.552H113.438V207.508H110.835C110.413 207.508 110.061 207.472 109.78 207.367C109.498 207.261 109.287 207.121 109.112 206.945C108.936 206.769 108.83 206.558 108.76 206.312C108.689 206.065 108.654 205.784 108.654 205.503V196.393H111.644V196.393Z" fill="white"/>
<path d="M130.321 211.552H117.729V196.393H120.824V208.95H122.477V196.393H125.572V208.95H127.225V196.393H130.321V211.552Z" fill="white"/>
<path d="M139.111 211.552H136.332V205.221L134.679 211.552H131.584V196.393H134.679V202.478L136.227 196.393H139.111V211.552Z" fill="white"/>
<path d="M147.943 211.552H145.129V205.221L143.511 211.552H140.381V196.392H143.511V202.477L145.059 196.392H147.943V211.552ZM141.436 193.121H143.335C143.335 193.332 143.406 193.508 143.582 193.684C143.757 193.86 143.933 193.93 144.144 193.93C144.355 193.93 144.566 193.86 144.707 193.684C144.883 193.508 144.953 193.332 144.953 193.121H146.888C146.888 193.508 146.818 193.86 146.677 194.177C146.536 194.493 146.325 194.774 146.079 195.021C145.833 195.267 145.551 195.443 145.2 195.619C144.883 195.759 144.531 195.83 144.144 195.83C143.757 195.83 143.406 195.759 143.089 195.619C142.773 195.478 142.491 195.267 142.245 195.021C141.999 194.774 141.823 194.493 141.647 194.177C141.506 193.825 141.436 193.473 141.436 193.121Z" fill="white"/>
<path d="M159.654 211.552H156.559V198.996H154.906V211.552H151.811V196.393H159.654V211.552Z" fill="white"/>
<path d="M160.922 196.393H167.359V199.207H164.052V202.794H166.55V205.432H164.052V208.739H167.218V211.552H160.922V196.393Z" fill="white"/>
<path d="M167.955 208.95H168.694L170.241 199.242C170.312 198.89 170.347 198.574 170.452 198.222C170.523 197.87 170.663 197.589 170.839 197.307C171.015 197.026 171.261 196.815 171.578 196.639C171.894 196.463 172.352 196.393 172.879 196.393H177.065V208.95H177.663V212.784H175.236V211.552H170.382V212.784H167.955V208.95V208.95ZM174.04 199.207C173.829 199.207 173.653 199.242 173.548 199.277C173.407 199.312 173.337 199.418 173.266 199.523C173.196 199.664 173.126 199.805 173.09 200.016C173.055 200.227 172.985 200.508 172.95 200.825L171.789 208.914H174.04V199.207Z" fill="white"/>
<path d="M181.744 209.653L181.462 211.552H178.402L181.146 196.393H184.382L187.125 211.552H184.065L183.784 209.653H181.744ZM182.06 207.261H183.467L182.764 201.88L182.06 207.261Z" fill="white"/>
<path d="M187.967 196.393H194.404V199.207H191.097V211.552H187.967V196.393Z" fill="white"/>
<path d="M203.23 209.407C203.23 209.688 203.195 209.97 203.125 210.251C203.055 210.497 202.949 210.743 202.773 210.919C202.597 211.13 202.386 211.271 202.105 211.377C201.823 211.482 201.472 211.552 201.05 211.552H197.532C197.11 211.552 196.759 211.482 196.477 211.377C196.196 211.271 195.985 211.095 195.809 210.919C195.633 210.708 195.527 210.497 195.457 210.251C195.387 210.005 195.352 209.723 195.352 209.407V198.363C195.352 197.765 195.527 197.272 195.844 196.92C196.161 196.569 196.688 196.393 197.392 196.393H201.155C201.859 196.393 202.386 196.569 202.703 196.92C203.019 197.272 203.195 197.765 203.195 198.363V209.407H203.23ZM198.658 199.031C198.482 199.031 198.376 199.136 198.376 199.312V208.563C198.376 208.668 198.376 208.739 198.412 208.809C198.447 208.844 198.517 208.879 198.658 208.879H199.819C199.959 208.879 200.03 208.844 200.065 208.809C200.1 208.774 200.1 208.668 200.1 208.563V199.312C200.1 199.101 199.994 199.031 199.819 199.031H198.658Z" fill="white"/>
<path d="M204.467 196.393H210.904V199.207H207.597V211.552H204.467V196.393Z" fill="white"/>
<path d="M102.955 222.315C103.025 222.315 103.096 222.35 103.096 222.456V227.099C103.096 227.169 103.061 227.239 102.955 227.239H102.181C102.111 227.239 102.041 227.204 102.041 227.099V223.3H99.8599V227.099C99.8599 227.169 99.8247 227.239 99.7192 227.239H98.9454C98.875 227.239 98.8047 227.204 98.8047 227.099V222.456C98.8047 222.386 98.8398 222.315 98.9454 222.315H102.955Z" fill="white"/>
<path d="M106.825 222.245C108.232 222.245 109.393 223.335 109.393 224.778C109.393 226.22 108.232 227.275 106.825 227.275C105.419 227.275 104.258 226.22 104.258 224.778C104.258 223.3 105.419 222.245 106.825 222.245ZM105.313 224.742C105.313 225.622 105.946 226.29 106.825 226.29C107.705 226.29 108.338 225.657 108.338 224.742C108.338 223.828 107.705 223.195 106.825 223.195C105.911 223.195 105.313 223.863 105.313 224.742Z" fill="white"/>
<path d="M115.408 222.245C116.814 222.245 117.975 223.335 117.975 224.778C117.975 226.22 116.814 227.275 115.408 227.275C114.001 227.275 112.84 226.22 112.84 224.778C112.84 223.3 114.001 222.245 115.408 222.245ZM113.895 224.742C113.895 225.622 114.528 226.29 115.408 226.29C116.287 226.29 116.92 225.657 116.92 224.742C116.92 223.828 116.287 223.195 115.408 223.195C114.493 223.195 113.895 223.863 113.895 224.742Z" fill="white"/>
<path d="M120.047 223.159C120.434 222.737 120.892 222.526 121.56 222.526C122.967 222.526 123.987 223.405 123.987 224.847C123.987 226.219 122.861 227.274 121.49 227.274C119.907 227.274 118.957 226.079 118.957 224.496C118.957 221.893 120.399 221.014 121.701 221.014C122.404 221.014 122.65 220.873 122.861 220.521C122.896 220.451 122.967 220.416 123.037 220.451L123.67 220.767C123.741 220.803 123.776 220.873 123.741 220.943C123.424 221.717 122.826 221.998 121.701 221.998C120.856 221.998 120.329 222.421 120.047 223.089V223.159ZM120.012 224.812C120.012 225.621 120.645 226.29 121.49 226.29C122.298 226.29 122.967 225.656 122.967 224.812C122.967 223.968 122.369 223.441 121.525 223.441C120.716 223.441 120.012 224.003 120.012 224.812Z" fill="white"/>
<path d="M129.475 222.315C129.545 222.315 129.545 222.386 129.545 222.421L127.541 227.345C127.259 228.084 126.767 228.506 126.063 228.506C125.852 228.506 125.712 228.47 125.606 228.435C125.536 228.4 125.501 228.365 125.501 228.295V227.626C125.501 227.556 125.571 227.486 125.641 227.521C125.747 227.521 125.852 227.556 125.958 227.556C126.274 227.556 126.485 227.45 126.591 227.099L126.626 226.958L124.551 222.421C124.516 222.386 124.551 222.315 124.621 222.315H125.606C125.676 222.315 125.712 222.35 125.712 222.386L127.154 225.762H127.224L128.42 222.386C128.455 222.35 128.49 222.315 128.525 222.315H129.475V222.315Z" fill="white"/>
<path d="M131.479 222.315C131.549 222.315 131.62 222.351 131.62 222.456V224.004C131.62 224.637 132.007 224.953 132.64 224.953C133.097 224.953 133.449 224.883 133.765 224.778V222.456C133.765 222.386 133.8 222.315 133.906 222.315H134.68C134.75 222.315 134.82 222.351 134.82 222.456V227.099C134.82 227.169 134.785 227.24 134.68 227.24H133.906C133.836 227.24 133.765 227.205 133.765 227.099V225.727C133.449 225.833 133.062 225.903 132.64 225.903C131.373 225.903 130.564 225.235 130.564 223.969V222.421C130.564 222.351 130.6 222.28 130.705 222.28H131.479V222.315Z" fill="white"/>
<path d="M140.696 226.36C140.731 226.395 140.731 226.465 140.696 226.501C140.062 227.063 139.289 227.239 138.585 227.239C137.038 227.239 135.982 226.184 135.982 224.742C135.982 223.265 137.073 222.209 138.55 222.209C139.992 222.209 141.012 223.265 141.012 224.742V225.094C141.012 225.164 140.977 225.234 140.907 225.234H137.073C137.249 225.867 137.811 226.29 138.585 226.29C139.183 226.29 139.676 226.149 140.133 225.762C140.168 225.727 140.238 225.727 140.274 225.762L140.696 226.36ZM137.038 224.285H139.922C139.851 223.652 139.218 223.23 138.515 223.23C137.811 223.194 137.178 223.652 137.038 224.285Z" fill="white"/>
<path d="M143.09 222.315C143.161 222.315 143.231 222.35 143.231 222.456V224.179H145.447V222.456C145.447 222.386 145.482 222.315 145.588 222.315H146.361C146.432 222.315 146.502 222.35 146.502 222.456V227.099C146.502 227.169 146.467 227.239 146.361 227.239H145.588C145.517 227.239 145.447 227.204 145.447 227.099V225.164H143.231V227.099C143.231 227.169 143.196 227.239 143.09 227.239H142.316C142.246 227.239 142.176 227.204 142.176 227.099V222.456C142.176 222.386 142.211 222.315 142.316 222.315H143.09Z" fill="white"/>
<path d="M148.68 222.315C148.75 222.315 148.821 222.35 148.821 222.456V224.285L148.786 225.727H148.856L149.876 224.215L151.213 222.421C151.248 222.35 151.318 222.35 151.388 222.35H152.162C152.233 222.35 152.303 222.386 152.303 222.491V227.134C152.303 227.204 152.268 227.275 152.162 227.275H151.388C151.318 227.275 151.248 227.239 151.248 227.134V225.305L151.283 223.863H151.213L149.946 225.727L148.856 227.204C148.821 227.275 148.75 227.275 148.715 227.275H147.906C147.836 227.275 147.766 227.239 147.766 227.134V222.491C147.766 222.421 147.801 222.35 147.906 222.35H148.68V222.315Z" fill="white"/>
<path d="M154.551 222.315C154.622 222.315 154.692 222.351 154.692 222.456V224.18H155.255C155.501 223.054 156.451 222.245 157.682 222.245C159.089 222.245 160.179 223.371 160.179 224.742C160.179 226.149 159.053 227.275 157.682 227.275C156.38 227.275 155.395 226.36 155.22 225.129H154.657V227.099C154.657 227.169 154.622 227.24 154.516 227.24H153.742C153.672 227.24 153.602 227.205 153.602 227.099V222.456C153.602 222.386 153.637 222.315 153.742 222.315H154.551ZM156.204 224.742C156.204 225.657 156.837 226.29 157.682 226.29C158.491 226.29 159.159 225.622 159.159 224.742C159.159 223.863 158.526 223.195 157.682 223.195C156.837 223.195 156.204 223.863 156.204 224.742Z" fill="white"/>
<path d="M166.197 222.245C167.603 222.245 168.764 223.335 168.764 224.778C168.764 226.22 167.603 227.275 166.197 227.275C164.79 227.275 163.629 226.22 163.629 224.778C163.629 223.3 164.79 222.245 166.197 222.245ZM164.684 224.742C164.684 225.622 165.317 226.29 166.197 226.29C167.076 226.29 167.709 225.657 167.709 224.742C167.709 223.828 167.076 223.195 166.197 223.195C165.317 223.195 164.684 223.863 164.684 224.742Z" fill="white"/>
<path d="M174.424 223.406C174.459 223.476 174.459 223.511 174.389 223.547L173.826 223.969C173.756 224.039 173.685 224.004 173.65 223.933C173.299 223.441 172.876 223.195 172.279 223.195C171.364 223.195 170.801 223.828 170.801 224.707C170.801 225.587 171.399 226.255 172.279 226.255C172.876 226.255 173.334 226.044 173.685 225.516C173.721 225.481 173.791 225.481 173.826 225.516L174.389 225.973C174.424 226.009 174.459 226.079 174.424 226.114C173.967 226.853 173.193 227.275 172.279 227.275C170.836 227.275 169.746 226.185 169.746 224.742C169.746 223.3 170.836 222.245 172.279 222.245C173.123 222.245 173.967 222.667 174.424 223.406Z" fill="white"/>
<path d="M176.467 222.315C176.538 222.315 176.608 222.35 176.608 222.456V224.179H178.824V222.456C178.824 222.386 178.859 222.315 178.965 222.315H179.738C179.809 222.315 179.879 222.35 179.879 222.456V227.099C179.879 227.169 179.844 227.239 179.738 227.239H178.965C178.894 227.239 178.824 227.204 178.824 227.099V225.164H176.608V227.099C176.608 227.169 176.573 227.239 176.467 227.239H175.693C175.623 227.239 175.553 227.204 175.553 227.099V222.456C175.553 222.386 175.588 222.315 175.693 222.315H176.467Z" fill="white"/>
<path d="M183.606 222.245C185.012 222.245 186.173 223.335 186.173 224.778C186.173 226.22 185.012 227.275 183.606 227.275C182.199 227.275 181.038 226.22 181.038 224.778C181.003 223.3 182.163 222.245 183.606 222.245ZM182.058 224.742C182.058 225.622 182.691 226.29 183.57 226.29C184.45 226.29 185.083 225.657 185.083 224.742C185.083 223.828 184.45 223.195 183.57 223.195C182.691 223.195 182.058 223.863 182.058 224.742Z" fill="white"/>
<path d="M190.853 224.567C191.381 224.742 191.697 225.164 191.697 225.692C191.697 226.571 191.029 227.169 190.009 227.169H187.441C187.371 227.169 187.301 227.134 187.301 227.029V222.386C187.301 222.315 187.336 222.245 187.441 222.245H189.833C190.748 222.245 191.381 222.843 191.381 223.582C191.381 223.969 191.205 224.285 190.853 224.461V224.567V224.567ZM188.356 224.215H189.868C190.15 224.215 190.361 224.039 190.361 223.758C190.361 223.476 190.185 223.3 189.868 223.3H188.356V224.215ZM188.356 226.22H190.009C190.431 226.22 190.677 226.009 190.677 225.692C190.677 225.34 190.466 225.164 190.009 225.164H188.356V226.22Z" fill="white"/>
<path d="M196.092 226.606C195.669 227.028 195.071 227.239 194.368 227.239C193.348 227.239 192.609 226.641 192.609 225.727C192.609 224.812 193.278 224.25 194.368 224.109L195.951 223.898V223.792C195.951 223.37 195.529 223.194 194.966 223.194C194.298 223.194 193.911 223.3 193.418 223.616C193.348 223.652 193.242 223.652 193.207 223.581L192.856 223.089C192.785 223.018 192.82 222.913 192.891 222.878C193.489 222.456 194.087 222.209 195.001 222.209C196.056 222.209 197.006 222.702 197.006 223.898V225.445C197.006 225.797 197.041 226.149 197.112 226.465L197.217 226.852C197.252 226.923 197.252 226.993 197.147 227.028L196.514 227.239C196.443 227.274 196.373 227.239 196.373 227.169L196.162 226.606H196.092V226.606ZM195.986 224.777L194.403 225.023C193.911 225.094 193.7 225.34 193.7 225.656C193.7 226.008 193.946 226.254 194.509 226.254C195.177 226.254 195.669 226.008 195.986 225.586V224.777Z" fill="white"/>
<path d="M203.797 222.315C203.868 222.315 203.938 222.35 203.938 222.456V227.099C203.938 227.169 203.903 227.239 203.797 227.239H203.024C202.953 227.239 202.883 227.204 202.883 227.099V225.34L202.918 224.004H202.848L202.144 225.868L201.582 227.169C201.546 227.239 201.511 227.275 201.441 227.275H200.843C200.773 227.275 200.737 227.239 200.702 227.169L200.175 225.868L199.436 224.004H199.366L199.401 225.34V227.099C199.401 227.169 199.366 227.239 199.26 227.239H198.522C198.451 227.239 198.381 227.204 198.381 227.099V222.456C198.381 222.386 198.416 222.315 198.522 222.315H199.577C199.647 222.315 199.682 222.35 199.717 222.421L200.421 224.074L201.124 225.903H201.16L201.863 224.074L202.531 222.421C202.566 222.35 202.602 222.315 202.707 222.315H203.797Z" fill="white"/>
<path d="M67.6411 233.922C68.028 233.5 68.4853 233.289 69.1536 233.289C70.5605 233.289 71.5805 234.169 71.5805 235.611C71.5805 236.982 70.455 238.038 69.0833 238.038C67.5005 238.038 66.5508 236.842 66.5508 235.259C66.5508 232.656 67.9929 231.777 69.2943 231.777C69.9977 231.777 70.244 231.636 70.455 231.284C70.4902 231.214 70.5605 231.179 70.6309 231.214L71.264 231.531C71.3343 231.566 71.3695 231.636 71.3343 231.706C71.0178 232.48 70.4198 232.762 69.2943 232.762C68.4501 232.762 67.9225 233.184 67.6411 233.852V233.922ZM67.606 235.575C67.606 236.384 68.2391 237.053 69.0833 237.053C69.8922 237.053 70.5605 236.42 70.5605 235.575C70.5605 234.731 69.9626 234.204 69.1184 234.204C68.3094 234.204 67.606 234.766 67.606 235.575Z" fill="white"/>
<path d="M77.2073 237.123C77.2425 237.158 77.2425 237.229 77.2073 237.264C76.5742 237.827 75.8004 238.002 75.0969 238.002C73.5493 238.002 72.4941 236.947 72.4941 235.505C72.4941 234.028 73.5845 232.973 75.0618 232.973C76.5039 232.973 77.5239 234.028 77.5239 235.505V235.857C77.5239 235.927 77.4887 235.998 77.4184 235.998H73.5845C73.7604 236.631 74.3231 237.053 75.0969 237.053C75.6949 237.053 76.1873 236.912 76.6446 236.525C76.6797 236.49 76.7501 236.49 76.7852 236.525L77.2073 237.123ZM73.5493 235.048H76.4335C76.3632 234.415 75.7301 233.993 75.0266 233.993C74.3231 233.957 73.69 234.415 73.5493 235.048Z" fill="white"/>
<path d="M80.6219 233.008C81.6419 233.008 82.5213 233.501 82.5213 234.38C82.5213 234.732 82.3806 235.048 81.9937 235.224V235.295C82.5564 235.47 82.7323 235.928 82.7323 236.385C82.7323 237.44 81.7474 238.073 80.4812 238.073C79.6019 238.073 78.8984 237.862 78.2653 237.264C78.195 237.194 78.195 237.159 78.2301 237.088L78.6874 236.561C78.7226 236.49 78.7929 236.455 78.8633 236.526C79.3557 236.948 79.7426 237.088 80.4812 237.088C81.2902 237.088 81.6771 236.807 81.6771 236.35C81.6771 235.963 81.4309 235.787 80.9736 235.787H79.7074C79.6371 235.787 79.5667 235.752 79.5667 235.646V234.943C79.5667 234.872 79.6019 234.802 79.7074 234.802H81.0088C81.2902 234.802 81.4309 234.661 81.4309 234.45C81.4309 234.169 81.1495 233.958 80.4812 233.958C79.8481 233.958 79.3909 234.099 79.004 234.38C78.9336 234.45 78.8633 234.45 78.8281 234.38L78.406 233.852C78.3708 233.817 78.3708 233.747 78.4412 233.712C79.1446 233.184 79.8481 233.008 80.6219 233.008Z" fill="white"/>
<path d="M86.2512 233.008C87.6582 233.008 88.8189 234.099 88.8189 235.541C88.8189 236.983 87.6582 238.038 86.2512 238.038C84.8443 238.038 83.6836 236.983 83.6836 235.541C83.6836 234.099 84.8091 233.008 86.2512 233.008ZM84.7036 235.506C84.7036 236.385 85.3367 237.053 86.2161 237.053C87.0954 237.053 87.7285 236.42 87.7285 235.506C87.7285 234.591 87.0954 233.958 86.2161 233.958C85.3367 233.958 84.7036 234.626 84.7036 235.506Z" fill="white"/>
<path d="M94.0899 233.078C94.1602 233.078 94.2306 233.113 94.2306 233.219V237.862C94.2306 237.932 94.1954 238.002 94.0899 238.002H93.2809C93.2106 238.002 93.1402 237.967 93.1402 237.862V234.063H90.9595V237.862C90.9595 237.932 90.9243 238.002 90.8188 238.002H90.045C89.9746 238.002 89.9043 237.967 89.9043 237.862V233.219C89.9043 233.148 89.9395 233.078 90.045 233.078H94.0899V233.078Z" fill="white"/>
<path d="M98.8044 237.369C98.3823 237.791 97.7844 238.002 97.0809 238.002C96.0609 238.002 95.3223 237.404 95.3223 236.49C95.3223 235.575 95.9906 235.013 97.0809 234.872L98.6637 234.661V234.555C98.6637 234.133 98.2416 233.958 97.6789 233.958C97.0106 233.958 96.6237 234.063 96.1312 234.38C96.0609 234.415 95.9554 234.415 95.9202 234.344L95.5685 233.852C95.4981 233.782 95.5333 233.676 95.6036 233.641C96.2016 233.219 96.7995 232.973 97.714 232.973C98.7692 232.973 99.7189 233.465 99.7189 234.661V236.209C99.7189 236.56 99.7541 236.912 99.8244 237.229L99.93 237.615C99.9651 237.686 99.9651 237.756 99.8596 237.791L99.2265 238.002C99.1562 238.038 99.0858 238.002 99.0858 237.932L98.8748 237.369H98.8044V237.369ZM98.6637 235.54L97.0809 235.787C96.5885 235.857 96.3775 236.103 96.3775 236.42C96.3775 236.771 96.6237 237.018 97.1864 237.018C97.8547 237.018 98.3472 236.771 98.6637 236.349V235.54Z" fill="white"/>
<path d="M105.522 234.169C105.557 234.239 105.557 234.275 105.487 234.31L104.924 234.732C104.853 234.802 104.783 234.767 104.748 234.697C104.396 234.204 103.974 233.958 103.376 233.958C102.462 233.958 101.899 234.591 101.899 235.47C101.899 236.35 102.497 237.018 103.376 237.018C103.974 237.018 104.431 236.807 104.783 236.279C104.818 236.244 104.889 236.244 104.924 236.279L105.487 236.737C105.522 236.772 105.557 236.842 105.522 236.877C105.065 237.616 104.291 238.038 103.376 238.038C101.934 238.038 100.844 236.948 100.844 235.506C100.844 234.063 101.934 233.008 103.376 233.008C104.22 233.008 105.065 233.43 105.522 234.169Z" fill="white"/>
<path d="M107.565 233.078C107.635 233.078 107.706 233.113 107.706 233.219V234.942H109.921V233.219C109.921 233.148 109.957 233.078 110.062 233.078H110.836C110.906 233.078 110.977 233.113 110.977 233.219V237.862C110.977 237.932 110.942 238.002 110.836 238.002H110.062C109.992 238.002 109.921 237.967 109.921 237.862V235.927H107.706V237.862C107.706 237.932 107.67 238.002 107.565 238.002H106.791C106.721 238.002 106.65 237.967 106.65 237.862V233.219C106.65 233.148 106.686 233.078 106.791 233.078H107.565Z" fill="white"/>
<path d="M114.665 233.008C116.072 233.008 117.233 234.099 117.233 235.541C117.233 236.983 116.072 238.038 114.665 238.038C113.258 238.038 112.098 236.983 112.098 235.541C112.098 234.099 113.258 233.008 114.665 233.008ZM113.153 235.506C113.153 236.385 113.786 237.053 114.665 237.053C115.545 237.053 116.178 236.42 116.178 235.506C116.178 234.591 115.545 233.958 114.665 233.958C113.786 233.958 113.153 234.626 113.153 235.506Z" fill="white"/>
<path d="M118.537 237.967C118.467 237.967 118.396 237.932 118.396 237.827V233.184C118.396 233.113 118.467 233.043 118.537 233.043H122.054C122.125 233.043 122.195 233.113 122.195 233.184V233.922C122.195 233.993 122.16 234.063 122.054 234.063H119.452V237.827C119.452 237.897 119.416 237.967 119.311 237.967H118.537Z" fill="white"/>
<path d="M125.432 233.008C126.839 233.008 127.999 234.099 127.999 235.541C127.999 236.983 126.839 238.038 125.432 238.038C124.025 238.038 122.864 236.983 122.864 235.541C122.829 234.099 123.99 233.008 125.432 233.008ZM123.884 235.506C123.884 236.385 124.517 237.053 125.397 237.053C126.276 237.053 126.909 236.42 126.909 235.506C126.909 234.591 126.276 233.958 125.397 233.958C124.517 233.958 123.884 234.626 123.884 235.506Z" fill="white"/>
<path d="M135.734 233.078C135.805 233.078 135.875 233.113 135.875 233.219V237.862C135.875 237.932 135.84 238.002 135.734 238.002H134.961C134.89 238.002 134.82 237.967 134.82 237.862V234.063H132.639V237.862C132.639 237.932 132.604 238.002 132.498 238.002H131.725C131.654 238.002 131.584 237.967 131.584 237.862V233.219C131.584 233.148 131.619 233.078 131.725 233.078H135.734V233.078Z" fill="white"/>
<path d="M139.568 233.008C140.975 233.008 142.135 234.099 142.135 235.541C142.135 236.983 140.975 238.038 139.568 238.038C138.161 238.038 137 236.983 137 235.541C137 234.099 138.161 233.008 139.568 233.008ZM138.055 235.506C138.055 236.385 138.688 237.053 139.568 237.053C140.447 237.053 141.08 236.42 141.08 235.506C141.08 234.591 140.447 233.958 139.568 233.958C138.688 233.958 138.055 234.626 138.055 235.506Z" fill="white"/>
<path d="M146.851 235.33C147.379 235.506 147.695 235.928 147.695 236.455C147.695 237.335 147.027 237.933 146.007 237.933H143.44C143.369 237.933 143.299 237.897 143.299 237.792V233.149C143.299 233.079 143.334 233.008 143.44 233.008H145.831C146.746 233.008 147.379 233.606 147.379 234.345C147.379 234.732 147.203 235.048 146.851 235.224V235.33ZM144.354 234.978H145.866C146.148 234.978 146.359 234.802 146.359 234.521C146.359 234.239 146.183 234.063 145.866 234.063H144.354V234.978ZM144.354 236.983H146.007C146.429 236.983 146.675 236.772 146.675 236.455C146.675 236.104 146.464 235.928 146.007 235.928H144.354V236.983Z" fill="white"/>
<path d="M153.323 237.123C153.358 237.158 153.358 237.229 153.323 237.264C152.689 237.827 151.916 238.002 151.212 238.002C149.665 238.002 148.609 236.947 148.609 235.505C148.609 234.028 149.7 232.973 151.177 232.973C152.619 232.973 153.639 234.028 153.639 235.505V235.857C153.639 235.927 153.604 235.998 153.534 235.998H149.7C149.876 236.631 150.438 237.053 151.212 237.053C151.81 237.053 152.303 236.912 152.76 236.525C152.795 236.49 152.865 236.49 152.901 236.525L153.323 237.123ZM149.665 235.048H152.549C152.478 234.415 151.845 233.993 151.142 233.993C150.403 233.957 149.805 234.415 149.665 235.048Z" fill="white"/>
<path d="M159.094 233.078C159.164 233.078 159.235 233.113 159.235 233.219V236.982H159.657C159.727 236.982 159.798 237.053 159.798 237.123V238.847C159.798 238.917 159.762 238.987 159.657 238.987H158.918C158.848 238.987 158.777 238.952 158.777 238.847L158.742 238.002H155.471L155.401 238.847C155.401 238.952 155.366 238.987 155.26 238.987H154.557C154.486 238.987 154.416 238.952 154.416 238.847V237.123C154.416 237.053 154.451 236.982 154.557 236.982H154.838C155.014 236.982 155.119 236.877 155.155 236.666L155.612 233.219C155.612 233.148 155.682 233.078 155.753 233.078H159.094V233.078ZM156.526 234.063L156.175 236.736C156.175 236.842 156.139 236.912 156.104 236.982H158.144V234.063H156.526Z" fill="white"/>
<path d="M165.284 237.123C165.319 237.158 165.319 237.229 165.284 237.264C164.65 237.827 163.877 238.002 163.173 238.002C161.626 238.002 160.57 236.947 160.57 235.505C160.57 234.028 161.661 232.973 163.138 232.973C164.58 232.973 165.6 234.028 165.6 235.505V235.857C165.6 235.927 165.565 235.998 165.495 235.998H161.661C161.837 236.631 162.399 237.053 163.173 237.053C163.771 237.053 164.263 236.912 164.721 236.525C164.756 236.49 164.826 236.49 164.861 236.525L165.284 237.123ZM161.626 235.048H164.51C164.439 234.415 163.806 233.993 163.103 233.993C162.364 233.957 161.766 234.415 161.626 235.048Z" fill="white"/>
<path d="M167.639 233.078C167.709 233.078 167.78 233.113 167.78 233.219V234.942H169.996V233.219C169.996 233.148 170.031 233.078 170.136 233.078H170.91C170.981 233.078 171.051 233.113 171.051 233.219V237.862C171.051 237.932 171.016 238.002 170.91 238.002H170.136C170.066 238.002 169.996 237.967 169.996 237.862V235.927H167.78V237.862C167.78 237.932 167.745 238.002 167.639 238.002H166.865C166.795 238.002 166.725 237.967 166.725 237.862V233.219C166.725 233.148 166.76 233.078 166.865 233.078H167.639Z" fill="white"/>
<path d="M173.268 233.078C173.338 233.078 173.409 233.113 173.409 233.219V235.048L173.374 236.49H173.444L174.464 234.977L175.8 233.184C175.836 233.113 175.906 233.113 175.976 233.113H176.75C176.821 233.113 176.891 233.148 176.891 233.254V237.897C176.891 237.967 176.856 238.038 176.75 238.038H175.976C175.906 238.038 175.836 238.002 175.836 237.897V236.068L175.871 234.626H175.8L174.534 236.49L173.444 237.967C173.409 238.038 173.338 238.038 173.303 238.038H172.494C172.424 238.038 172.354 238.002 172.354 237.897V233.254C172.354 233.184 172.389 233.113 172.494 233.113H173.268V233.078Z" fill="white"/>
<path d="M179.074 236.349C178.511 236.033 178.16 235.575 178.16 234.837C178.16 233.817 179.004 233.043 180.059 233.043H182.275C182.345 233.043 182.416 233.078 182.416 233.184V237.827C182.416 237.897 182.38 237.967 182.275 237.967H181.501C181.431 237.967 181.36 237.932 181.36 237.827V236.631H180.024L179.285 237.827C179.25 237.897 179.18 237.932 179.074 237.932H178.23C178.124 237.932 178.089 237.827 178.16 237.756L179.074 236.349ZM180.024 234.063C179.461 234.063 179.18 234.415 179.18 234.872C179.18 235.329 179.496 235.681 180.024 235.681H181.36V234.063H180.024Z" fill="white"/>
<path d="M187.124 233.078C187.194 233.078 187.264 233.113 187.264 233.219V234.942H189.48V233.219C189.48 233.148 189.515 233.078 189.621 233.078H190.395C190.465 233.078 190.535 233.113 190.535 233.219V237.862C190.535 237.932 190.5 238.002 190.395 238.002H189.621C189.55 238.002 189.48 237.967 189.48 237.862V235.927H187.264V237.862C187.264 237.932 187.229 238.002 187.124 238.002H186.35C186.279 238.002 186.209 237.967 186.209 237.862V233.219C186.209 233.148 186.244 233.078 186.35 233.078H187.124Z" fill="white"/>
<path d="M195.107 237.369C194.685 237.791 194.087 238.002 193.384 238.002C192.364 238.002 191.625 237.404 191.625 236.49C191.625 235.575 192.293 235.013 193.384 234.872L194.966 234.661V234.555C194.966 234.133 194.544 233.958 193.982 233.958C193.313 233.958 192.926 234.063 192.434 234.38C192.364 234.415 192.258 234.415 192.223 234.344L191.871 233.852C191.801 233.782 191.836 233.676 191.906 233.641C192.504 233.219 193.102 232.973 194.017 232.973C195.072 232.973 196.022 233.465 196.022 234.661V236.209C196.022 236.56 196.057 236.912 196.127 237.229L196.233 237.615C196.268 237.686 196.268 237.756 196.162 237.791L195.529 238.002C195.459 238.038 195.389 238.002 195.389 237.932L195.177 237.369H195.107V237.369ZM194.966 235.54L193.384 235.787C192.891 235.857 192.68 236.103 192.68 236.42C192.68 236.771 192.926 237.018 193.489 237.018C194.157 237.018 194.65 236.771 194.966 236.349V235.54Z" fill="white"/>
<path d="M204.289 233.078C204.36 233.078 204.43 233.113 204.43 233.219V236.982H204.852C204.922 236.982 204.993 237.053 204.993 237.123V238.847C204.993 238.917 204.958 238.987 204.852 238.987H204.113C204.043 238.987 203.973 238.952 203.973 238.847L203.938 238.002H200.667L200.596 238.847C200.596 238.952 200.561 238.987 200.455 238.987H199.752C199.682 238.987 199.611 238.952 199.611 238.847V237.123C199.611 237.053 199.646 236.982 199.752 236.982H200.033C200.209 236.982 200.315 236.877 200.35 236.666L200.807 233.219C200.807 233.148 200.878 233.078 200.948 233.078H204.289V233.078ZM201.722 234.063L201.37 236.736C201.37 236.842 201.335 236.912 201.3 236.982H203.34V234.063H201.722Z" fill="white"/>
<path d="M208.3 233.008C209.707 233.008 210.868 234.099 210.868 235.541C210.868 236.983 209.707 238.038 208.3 238.038C206.893 238.038 205.732 236.983 205.732 235.541C205.732 234.099 206.893 233.008 208.3 233.008ZM206.788 235.506C206.788 236.385 207.421 237.053 208.3 237.053C209.179 237.053 209.813 236.42 209.813 235.506C209.813 234.591 209.179 233.958 208.3 233.958C207.421 233.958 206.788 234.626 206.788 235.506Z" fill="white"/>
<path d="M212.17 239.374C212.1 239.374 212.029 239.339 212.029 239.233V233.184C212.029 233.113 212.064 233.043 212.17 233.043H212.768C212.838 233.043 212.873 233.078 212.909 233.149L212.979 233.5H213.049C213.401 233.149 213.964 232.973 214.527 232.973C215.969 232.973 217.024 233.993 217.024 235.505C217.024 237.018 215.969 238.002 214.527 238.002C213.964 238.002 213.507 237.862 213.084 237.545V239.233C213.084 239.304 213.049 239.374 212.944 239.374H212.17ZM213.084 236.49C213.436 236.842 213.929 237.053 214.527 237.053C215.371 237.053 216.004 236.455 216.004 235.54C216.004 234.591 215.371 233.993 214.527 233.993C213.929 233.993 213.471 234.133 213.084 234.555V236.49Z" fill="white"/>
<path d="M220.54 233.008C221.947 233.008 223.108 234.099 223.108 235.541C223.108 236.983 221.947 238.038 220.54 238.038C219.133 238.038 217.973 236.983 217.973 235.541C217.973 234.099 219.133 233.008 220.54 233.008ZM219.028 235.506C219.028 236.385 219.661 237.053 220.54 237.053C221.42 237.053 222.053 236.42 222.053 235.506C222.053 234.591 221.42 233.958 220.54 233.958C219.661 233.958 219.028 234.626 219.028 235.506Z" fill="white"/>
<path d="M224.406 237.967C224.336 237.967 224.266 237.932 224.266 237.827V233.184C224.266 233.113 224.336 233.043 224.406 233.043H227.924C227.994 233.043 228.064 233.113 228.064 233.184V233.922C228.064 233.993 228.029 234.063 227.924 234.063H225.321V237.827C225.321 237.897 225.286 237.967 225.18 237.967H224.406Z" fill="white"/>
<path d="M233.45 237.123C233.485 237.158 233.485 237.229 233.45 237.264C232.816 237.827 232.043 238.002 231.339 238.002C229.792 238.002 228.736 236.947 228.736 235.505C228.736 234.028 229.827 232.973 231.304 232.973C232.746 232.973 233.766 234.028 233.766 235.505V235.857C233.766 235.927 233.731 235.998 233.661 235.998H229.827C230.003 236.631 230.565 237.053 231.339 237.053C231.937 237.053 232.43 236.912 232.887 236.525C232.922 236.49 232.992 236.49 233.027 236.525L233.45 237.123ZM229.792 235.048H232.676C232.605 234.415 231.972 233.993 231.269 233.993C230.53 233.957 229.932 234.415 229.792 235.048Z" fill="white"/>
</svg>
