<svg width="300" height="300" viewBox="0 0 300 300" fill="none" xmlns="http://www.w3.org/2000/svg">
<circle cx="150" cy="150" r="150" fill="#5787EE"/>
<path d="M160.738 123.52C160.188 129.13 159.54 134.604 158.795 139.941L162.032 139.994C161.786 137.265 161.554 134.553 161.335 131.859C161.117 129.165 160.921 126.386 160.75 123.52" fill="white"/>
<path d="M199.511 166.602C198.621 166.532 198.135 167.011 198.053 168.046C197.312 177.403 196.571 186.748 195.829 196.081C195.747 197.116 196.128 197.666 197 197.73C197.872 197.795 198.305 197.321 198.393 196.286L200.734 168.263C200.816 167.227 200.418 166.672 199.522 166.602" fill="white"/>
<path d="M118.132 146.514C119.05 146.468 119.484 145.93 119.431 144.895C118.974 135.538 118.516 126.181 118.055 116.825C118.003 115.795 117.47 115.298 116.528 115.345C115.586 115.392 115.111 115.93 115.164 116.977C115.667 126.333 116.169 135.69 116.668 145.047C116.721 146.082 117.213 146.573 118.132 146.526" fill="white"/>
<path d="M120.646 165.316C119.756 165.357 119.335 165.9 119.387 166.936C119.867 176.292 120.345 185.649 120.821 195.006C120.874 196.041 121.325 196.538 122.167 196.497C123.01 196.456 123.414 195.912 123.338 194.883C122.901 185.526 122.464 176.169 122.027 166.813C121.98 165.778 121.512 165.281 120.616 165.321" fill="white"/>
<path d="M59.9705 140.573C59.7891 139.315 59.0106 138.783 57.6293 138.988L56.2305 139.193C56.9914 144.327 57.4011 146.9 58.1385 152.058L59.4555 151.865C60.8426 151.66 61.4455 150.918 61.264 149.625C60.7431 146.017 60.4856 144.21 59.9705 140.596" fill="white"/>
<path d="M255.662 115.994C255.455 115.71 255.192 115.469 254.891 115.286C254.59 115.103 254.255 114.982 253.906 114.93C248.639 114.1 240.509 112.965 240.386 112.965C239.981 112.966 239.581 113.059 239.218 113.239C238.854 113.418 238.537 113.679 238.291 114C238.127 114.211 235.651 117.456 235.54 117.556C235.281 116.397 234.767 115.31 234.035 114.374C232.449 112.351 229.897 111.129 226.427 110.731C225.774 110.656 225.117 110.617 224.46 110.614C220.603 110.614 217.747 112.17 216.196 115.006C216.125 115.135 213.989 118.702 213.778 119.1L214.364 112.544C214.429 111.844 214.213 111.147 213.765 110.605C213.316 110.063 212.67 109.722 211.97 109.655C209.476 109.421 205.532 109.07 205.426 109.07C205.008 109.318 204.522 109.429 204.038 109.388C203.553 109.347 203.093 109.156 202.722 108.842C200.129 108.638 198.877 108.544 196.342 108.363H196.155C195.61 108.364 195.079 108.534 194.634 108.848C194.189 109.161 193.852 109.605 193.668 110.117C193.592 110.333 192.122 114.14 192.052 114.55C191.837 112.898 191.136 111.347 190.039 110.094C188.417 108.287 185.989 107.287 182.828 107.135C182.518 107.135 182.202 107.135 181.903 107.135C176.232 107.135 172.673 110.006 171.953 115.076C171.848 115.485 169.501 127.409 169.442 127.854C169.442 127.883 169.442 127.906 169.442 127.93C168.793 121.632 168.131 115.415 167.452 109.328C167.376 108.693 167.074 108.108 166.601 107.678C166.128 107.249 165.516 107.004 164.877 106.988C161.904 106.924 160.452 106.901 157.485 106.872H157.455C156.822 106.871 156.209 107.097 155.728 107.509C155.247 107.921 154.93 108.492 154.833 109.117C152.791 122.45 150.888 135.626 149.168 148.298H149.115L148.828 109.468C148.823 108.768 148.542 108.099 148.045 107.606C147.549 107.113 146.877 106.836 146.177 106.836V106.836C139.885 106.872 136.812 106.924 130.514 107.111C129.811 107.135 129.145 107.433 128.659 107.942C128.42 108.196 128.233 108.494 128.11 108.82C127.986 109.147 127.928 109.494 127.939 109.842L128.296 122.018C128.255 121.801 126.932 115.398 126.821 115C126.083 110.041 122.578 107.228 117.011 107.228C116.701 107.228 116.385 107.228 116.063 107.228C112.604 107.41 109.988 108.468 108.279 110.38C106.693 112.135 105.979 114.556 106.166 117.497V117.602C106.078 117.374 104.545 113.509 104.357 113.135C103.885 112.111 103.186 111.207 102.315 110.491C100.787 109.252 98.6857 108.626 96.0695 108.626C95.5661 108.626 95.0335 108.626 94.4892 108.69C91.1238 108.977 88.6362 110.006 87.0559 111.755C86.2847 112.631 85.7259 113.674 85.4229 114.801C85.2883 114.398 83.5383 111.351 83.0818 110.983C82.6075 110.601 82.0164 110.395 81.4078 110.398C81.3162 110.392 81.2243 110.392 81.1327 110.398C75.8183 110.983 73.2254 111.246 67.9401 111.907C67.5941 111.949 67.2599 112.06 66.9567 112.232C66.6534 112.403 66.3871 112.633 66.1729 112.908C65.9587 113.183 65.8008 113.497 65.7084 113.833C65.6159 114.169 65.5907 114.52 65.6341 114.866L66.2194 119.445C66.0204 119.088 62.1223 114.105 61.8882 113.854C61.6401 113.578 61.3368 113.358 60.998 113.207C60.6593 113.056 60.2926 112.977 59.9216 112.977C59.8008 112.968 59.6795 112.968 59.5587 112.977C54.1564 113.719 51.5226 114.105 46.0969 114.959C45.7481 115.011 45.4131 115.132 45.1116 115.315C44.8101 115.497 44.5481 115.738 44.341 116.023C43.9307 116.593 43.7605 117.301 43.8669 117.994L50.3052 158.743C50.3996 159.344 50.6995 159.893 51.1539 160.298C51.4114 160.532 63.4802 168.608 63.6148 168.713C64.0243 169.034 64.5288 169.208 65.0488 169.21C65.1715 169.219 65.2948 169.219 65.4175 169.21C67.9577 168.807 69.1927 168.626 71.7095 168.251C74.712 167.813 76.8308 166.801 78.1887 165.152C78.4872 164.791 78.7462 164.399 78.9613 163.982C79.0374 164.029 81.2732 166.082 81.4722 166.234C81.8795 166.553 82.3826 166.726 82.9003 166.725C82.994 166.725 87.9866 166.14 90.2107 165.871L93.781 203.637C93.8305 204.187 94.0505 204.708 94.4104 205.127C94.7702 205.547 95.252 205.843 95.7885 205.976C95.9817 206.082 101.759 208.315 101.981 208.356C102.326 208.551 102.715 208.654 103.111 208.655H103.333C105.247 208.473 106.183 208.391 108.097 208.228C108.711 208.175 109.278 207.883 109.678 207.415C109.713 207.374 109.742 207.321 109.777 207.275C109.967 207.382 110.162 207.48 110.362 207.567C110.737 207.806 111.171 207.934 111.615 207.935H111.796C113.968 207.766 115.033 207.69 117.222 207.544C117.785 207.51 118.316 207.271 118.714 206.872C119.112 206.473 119.35 205.942 119.382 205.38H119.423C119.546 205.473 119.674 205.561 119.803 205.649L120.19 205.918C121.66 206.965 123.436 207.497 125.241 207.432H125.873C128.659 207.298 130.772 206.321 132.106 204.625C132.16 204.699 132.219 204.77 132.282 204.836C132.349 204.933 132.424 205.024 132.504 205.111C132.57 205.207 132.642 205.299 132.721 205.386C132.788 205.483 132.862 205.574 132.943 205.66C133.157 205.975 133.445 206.233 133.782 206.411C134.119 206.59 134.494 206.683 134.875 206.684H134.945H135.635C136.71 206.677 137.775 206.469 138.773 206.07C139.658 205.707 140.455 205.161 141.114 204.467C141.379 204.178 141.62 203.867 141.834 203.538C141.834 203.584 142.243 204.707 142.279 204.818C142.419 205.303 142.712 205.73 143.115 206.035C143.518 206.339 144.009 206.506 144.514 206.508V206.508C146.417 206.508 147.347 206.508 149.255 206.508C149.876 206.508 150.472 206.262 150.911 205.823C151.35 205.385 151.596 204.79 151.596 204.169C151.596 204.076 151.655 203.45 151.661 203.38H152.164V204.158C152.164 204.771 152.405 205.36 152.835 205.797C153.266 206.235 153.851 206.486 154.464 206.497C158.562 206.532 160.528 206.567 164.596 206.69H164.666C165.048 206.688 165.424 206.592 165.761 206.412C166.097 206.232 166.385 205.972 166.598 205.655C166.674 205.573 167.821 204.111 167.885 204.011L167.92 203.976C169.214 206.093 171.526 207.327 174.704 207.485H175.342C177.011 207.555 178.656 207.074 180.024 206.117C180.153 206.035 183.009 204.07 183.132 203.976C183.212 203.929 183.288 203.876 183.361 203.818C184.408 206.555 186.831 208.21 190.384 208.497C190.735 208.497 191.081 208.544 191.408 208.544C192.686 208.568 193.954 208.308 195.119 207.783C195.318 207.705 195.513 207.623 195.704 207.538C195.903 207.462 200.756 205.415 200.972 205.327C202.017 204.951 202.968 204.352 203.758 203.573C205.274 202.058 206.17 199.883 206.433 197.105L209.049 169.105C209.163 168.016 209.134 166.917 208.961 165.836C209.95 166.219 210.985 166.471 212.04 166.585C212.571 166.644 213.104 166.675 213.638 166.678C216.178 166.678 218.191 165.883 219.596 164.38C219.918 164.14 221.937 162.327 222.189 162.076L221.779 165.053C221.737 165.353 221.754 165.66 221.83 165.954C221.907 166.248 222.041 166.524 222.224 166.766C222.598 167.257 223.152 167.581 223.763 167.667C228.165 168.251 234.949 169.31 235.066 169.31C235.546 169.308 236.014 169.159 236.406 168.883C236.576 168.76 248.65 160.696 248.89 160.491C249.403 160.079 249.743 159.491 249.844 158.842L250.705 153.45C250.76 153.106 250.746 152.755 250.665 152.416C250.584 152.077 250.437 151.757 250.232 151.475C250.027 151.193 249.768 150.955 249.471 150.773C249.173 150.591 248.843 150.469 248.498 150.415L244.401 149.778L245.057 145.327L245.109 145.246C245.566 145.041 248.914 142.129 249.095 141.977C249.595 141.563 249.926 140.98 250.026 140.339L250.857 134.942C250.91 134.597 250.895 134.246 250.812 133.908C250.73 133.57 250.581 133.251 250.375 132.97C250.169 132.69 249.91 132.452 249.612 132.272C249.314 132.091 248.983 131.971 248.639 131.918L247.409 131.731C247.55 131.567 253.971 125.263 254.099 125.176C254.383 124.968 254.623 124.705 254.805 124.404C254.987 124.103 255.107 123.769 255.159 123.421L256.013 118.023C256.12 117.33 255.95 116.622 255.539 116.053L255.662 115.994ZM65.997 154.643C64.879 155.988 62.971 156.854 60.2494 157.246C57.358 157.672 55.9123 157.889 53.0268 158.351L46.5886 117.597C51.9382 116.749 54.6188 116.357 59.9801 115.62C60.2786 117.784 60.425 118.866 60.7235 121.029C57.9141 121.415 56.5152 121.614 53.6999 122.035C54.4081 126.795 54.7593 129.175 55.4558 133.936L56.8664 133.725C59.6953 133.316 61.8414 133.604 63.3046 134.591C64.7679 135.577 65.6653 137.363 65.997 139.947L67.1676 148.719C67.5148 151.304 67.1246 153.271 65.997 154.62V154.643ZM73.4244 155.444C71.7231 141.799 70.0219 128.154 68.3206 114.509C73.5883 113.854 76.1987 113.55 81.4605 113.006C81.6888 115.176 81.8 116.263 82.0458 118.439C79.3476 118.719 77.9955 118.866 75.2973 119.176C75.8475 123.959 76.1168 126.351 76.6669 131.129L80.8576 130.667C81.0976 132.836 81.2147 133.924 81.4429 136.099C79.7807 136.275 78.9496 136.368 77.2873 136.561L78.7506 149.31C81.4371 149 82.7774 148.854 85.4639 148.579C85.6922 150.748 85.8034 151.836 86.0492 154.012C81.004 154.538 78.4872 154.824 73.4537 155.45L73.4244 155.444ZM116.274 109.836C121.495 109.567 124.199 111.819 124.38 116.497C124.77 125.854 125.141 135.222 125.492 144.602C125.68 149.281 123.321 151.696 118.469 151.947C113.617 152.199 110.989 150.029 110.696 145.357L108.94 117.287C108.642 112.608 111.106 110.105 116.321 109.836H116.274ZM90.3394 147.053C90.0292 143.819 89.877 142.199 89.5668 138.965C92.0251 138.731 93.2542 138.62 95.7183 138.409C95.9934 141.626 96.1339 143.234 96.409 146.45C96.4967 147.485 96.9942 147.959 97.8605 147.889C98.7267 147.819 99.2535 147.251 99.1716 146.216C98.8321 142.123 98.6624 140.041 98.3287 135.924C98.2468 134.895 97.7142 134.415 96.7367 134.497L94.3955 134.702C94.2141 132.643 94.1204 131.614 93.9448 129.556L96.608 129.328C97.363 129.263 97.7025 128.743 97.6147 127.684C97.3045 123.889 97.1523 121.988 96.8421 118.193C96.7543 117.158 96.2568 116.684 95.2676 116.76C94.2785 116.836 93.9215 117.398 94.0151 118.427C94.2668 121.351 94.3897 122.836 94.6472 125.772C92.2007 125.982 90.9833 126.094 88.5426 126.328C88.2675 123.433 88.127 121.983 87.8519 119.088C87.612 116.591 88.0334 114.731 89.1337 113.503C90.2341 112.275 92.1246 111.544 94.8111 111.316C97.4976 111.088 99.4935 111.503 100.74 112.532C101.987 113.562 102.73 115.345 102.912 117.877C103.181 121.614 103.321 123.485 103.591 127.234C103.686 128.099 103.532 128.974 103.146 129.754C102.671 130.533 101.99 131.167 101.179 131.585C103.105 132.041 104.152 133.409 104.316 135.678C104.603 139.719 104.749 141.743 105.042 145.784C105.262 147.626 104.777 149.482 103.684 150.982C102.631 152.351 100.849 153.131 98.3404 153.322C95.8978 153.524 94.0092 153.053 92.6748 151.906C91.9824 151.29 91.419 150.543 91.0172 149.708C90.6153 148.872 90.383 147.966 90.3336 147.041L90.3394 147.053ZM106.289 202.52C105.227 199.253 104.353 196.547 103.667 194.403C102.98 192.259 102.412 190.487 101.963 189.087C101.519 187.684 101.167 186.544 100.904 185.678C100.641 184.813 100.407 184.017 100.202 183.298C100.401 184.787 100.578 186.366 100.734 188.035C100.892 189.696 101.074 191.678 101.267 193.976C101.565 197.532 101.718 199.31 102.022 202.865C99.8271 203.052 98.7326 203.152 96.5436 203.356L92.663 162.281C95.0042 162.058 96.1748 161.953 98.516 161.754C98.7969 165.029 98.9316 166.667 99.2125 169.941C99.3062 171.076 99.394 172.07 99.4642 172.935C99.5345 173.801 99.593 174.585 99.6398 175.275C99.6866 175.965 99.7159 176.631 99.751 177.228C99.7861 177.824 99.8095 178.397 99.8212 178.982C99.8798 178.397 99.9617 177.754 100.079 177.023C100.196 176.292 100.354 175.269 100.57 174.017C100.787 172.766 101.08 171.093 101.472 169.088C101.864 167.082 102.367 164.509 102.988 161.374C105.493 161.181 106.739 161.093 109.244 160.924C107.383 168.427 106.494 172.175 104.773 179.69C107.403 187.136 109.98 194.592 112.505 202.058C110.011 202.222 108.765 202.31 106.271 202.503L106.289 202.52ZM122.443 201.918C117.948 202.134 115.56 199.953 115.279 195.28L113.576 167.21C113.295 162.532 115.566 160.047 120.389 159.813C125.211 159.579 127.711 161.842 127.886 166.514L128.922 194.62C129.092 199.298 126.932 201.707 122.443 201.924V201.918ZM131.86 150.936C131.47 137.189 131.064 123.441 130.643 109.69C136.882 109.509 140.008 109.45 146.247 109.415L146.493 150.672C144.152 150.672 142.94 150.672 140.575 150.737C140.388 138.807 140.193 126.877 139.99 114.947L137.064 115C137.298 126.93 137.536 138.86 137.778 150.789C135.384 150.836 134.19 150.865 131.802 150.936H131.86ZM143.812 200.836C143.675 188.902 143.543 176.971 143.414 165.041H141.752C141.547 170.199 141.447 172.778 141.254 177.906C141.149 180.549 141.036 182.817 140.915 184.707C140.786 186.596 140.657 188.216 140.529 189.573C140.4 190.93 140.259 192.064 140.125 192.965C139.99 193.865 139.867 194.661 139.733 195.304C139.562 196.067 139.34 196.817 139.065 197.549C138.823 198.199 138.455 198.795 137.983 199.304C137.485 199.812 136.887 200.21 136.227 200.473C135.386 200.796 134.493 200.963 133.593 200.965H132.785C132.721 198.777 132.686 197.684 132.621 195.503H133.283C133.722 195.511 134.153 195.385 134.518 195.14C134.834 194.918 135.103 194.316 135.366 193.339C135.513 192.742 135.624 192.136 135.7 191.526C135.805 190.789 135.899 189.772 135.987 188.561C136.074 187.351 136.162 185.766 136.238 183.883C136.314 182 136.391 179.684 136.467 176.906C136.642 169.982 136.736 166.52 136.929 159.596C141.834 159.491 144.286 159.462 149.22 159.456C149.244 173.21 149.265 186.965 149.285 200.719C147.113 200.719 146.024 200.719 143.847 200.754L143.812 200.836ZM167.645 165.169C165.14 165.099 163.888 165.07 161.383 165.023C161.295 169.836 161.248 172.24 161.16 177.052C162.711 177.052 163.501 177.099 165.041 177.14C164.988 179.321 164.959 180.415 164.906 182.602C163.367 182.561 162.594 182.544 161.061 182.52C160.961 187.649 160.914 190.216 160.821 195.351C163.302 195.397 164.543 195.427 167.025 195.497C166.961 197.684 166.931 198.777 166.867 200.959C162.214 200.824 159.884 200.777 155.231 200.737C155.356 186.99 155.477 173.238 155.594 159.479C160.481 159.52 162.922 159.567 167.803 159.707C167.739 161.895 167.71 162.988 167.645 165.169V165.169ZM163.127 150.719C162.91 148.38 162.805 147.21 162.583 144.842C160.827 144.807 159.931 144.789 158.158 144.766C157.818 147.105 157.654 148.275 157.321 150.614C155.015 150.585 153.867 150.579 151.567 150.573C153.417 136.815 155.395 123.074 157.502 109.351C160.429 109.351 161.921 109.409 164.865 109.474C166.399 123.255 167.809 137.051 169.097 150.86C166.709 150.784 165.515 150.754 163.127 150.708V150.719ZM186.837 167.123C186.656 170.047 186.568 171.503 186.392 174.427C184.303 174.298 183.261 174.24 181.172 174.134L181.552 166.824C181.605 165.789 181.183 165.251 180.294 165.205C179.404 165.158 178.93 165.655 178.883 166.69L177.549 194.76C177.498 195.793 177.888 196.331 178.719 196.374C179.562 196.415 180.013 195.924 180.071 194.889C180.247 191.462 180.335 189.748 180.516 186.327C182.559 186.433 183.583 186.491 185.626 186.614C185.421 190.017 185.315 191.719 185.111 195.123C184.966 197.528 184.381 199.282 183.355 200.386C182.313 201.485 180.692 201.965 178.479 201.859C173.92 201.631 171.725 199.239 171.9 194.596L172.954 166.526C173.135 161.783 175.676 159.509 180.563 159.737C185.029 159.953 187.118 162.438 186.837 167.111V167.123ZM189.582 117.047L189.143 124.357C186.878 124.222 185.749 124.158 183.483 124.041L183.864 116.731C183.917 115.696 183.46 115.152 182.494 115.105C181.529 115.059 181.019 115.556 180.973 116.591C180.528 125.947 180.087 135.304 179.65 144.661C179.597 145.696 180.036 146.234 180.955 146.281C181.874 146.327 182.36 145.83 182.412 144.795C182.594 141.368 182.682 139.661 182.857 136.234C185.075 136.345 186.188 136.409 188.406 136.544C188.201 139.947 188.101 141.649 187.897 145.053C187.75 147.45 187.106 149.199 185.983 150.316C184.859 151.433 183.091 151.883 180.686 151.766C175.722 151.52 173.329 149.123 173.504 144.48C173.851 135.123 174.199 125.766 174.546 116.409C174.727 111.667 177.472 109.392 182.74 109.638C187.569 109.871 189.84 112.369 189.559 117.035L189.582 117.047ZM206.486 168.608C205.615 177.965 204.741 187.3 203.863 196.614C203.43 201.292 200.972 203.38 196.489 203.046C192.005 202.713 189.916 200.204 190.244 195.538C190.891 186.181 191.543 176.824 192.199 167.468C192.526 162.789 195.125 160.62 199.913 161.035C204.7 161.45 206.936 163.994 206.486 168.637V168.608ZM207.92 153.263C205.578 153.047 204.408 152.941 202.02 152.743C202.605 145.45 202.939 141.801 203.547 134.509L200.738 134.281C200.153 141.573 199.866 145.222 199.286 152.52C196.904 152.333 195.71 152.246 193.328 152.076C194.284 138.357 195.24 124.637 196.196 110.918C198.742 111.094 200.012 111.187 202.552 111.392C202.002 118.369 201.721 121.854 201.171 128.83L204.01 129.064L205.473 111.626C207.99 111.836 209.248 111.948 211.765 112.211L207.984 153.398L207.92 153.263ZM233.105 121.275C231.934 130.573 230.748 139.871 229.546 149.17C228.961 153.813 226.228 155.813 221.352 155.251C216.477 154.69 214.288 152.123 214.773 147.468C215.733 138.146 216.697 128.821 217.665 119.491C218.151 114.813 220.995 112.766 226.192 113.363C231.39 113.959 233.69 116.632 233.099 121.275H233.105ZM252.677 122.947C249.991 122.526 248.644 122.322 245.958 121.924L244.202 133.825C245.87 134.07 246.707 134.199 248.375 134.456C248.042 136.614 247.878 137.696 247.544 139.854C245.888 139.602 245.057 139.474 243.4 139.234C242.651 144.31 242.276 146.836 241.533 151.93C244.208 152.322 245.542 152.515 248.217 152.953C247.878 155.111 247.702 156.187 247.363 158.351C242.347 157.555 239.836 157.181 234.802 156.491C236.683 142.865 238.56 129.242 240.433 115.62C245.7 116.339 248.299 116.725 253.532 117.55C253.192 119.708 253.017 120.79 252.677 122.947" fill="white"/>
<path d="M225.544 118.772C224.579 118.661 224.04 119.123 223.923 120.152L220.762 148.093C220.645 149.123 221.036 149.69 221.933 149.795C222.852 149.9 223.373 149.444 223.49 148.415C224.59 139.105 225.687 129.793 226.779 120.479C226.902 119.45 226.481 118.883 225.521 118.772" fill="white"/>
<path d="M49.9524 96.9708C50.1738 97.2696 50.2872 97.6345 50.2743 98.0059C50.2846 98.2901 50.2243 98.5724 50.0987 98.8275C49.973 99.0827 49.786 99.3027 49.5544 99.4679C48.9444 99.8559 48.2277 100.042 47.5058 100H43.9297V93.041H47.3127C47.9951 93.001 48.6739 93.166 49.2617 93.5147C49.484 93.6585 49.6651 93.8575 49.7872 94.0923C49.9093 94.327 49.9683 94.5895 49.9582 94.8539C49.9647 95.1696 49.8793 95.4804 49.7124 95.7486C49.5388 96.015 49.2961 96.2293 49.0101 96.3685C49.3794 96.4726 49.7082 96.6868 49.9524 96.9825V96.9708ZM45.8553 95.813H47.1078C47.6931 95.813 47.9448 95.5849 47.9448 95.1229C47.9448 94.6609 47.6639 94.4387 47.1078 94.4387H45.8553V95.813ZM48.2667 97.8539C48.2667 97.3802 47.9799 97.1463 47.4063 97.1463H45.8553V98.579H47.4063C47.9916 98.579 48.2667 98.3393 48.2667 97.8539Z" fill="white"/>
<path d="M53.0032 99.6727C52.4364 99.3786 51.9622 98.9333 51.6336 98.3861C51.3789 97.9692 51.2121 97.5048 51.1432 97.0213C51.0744 96.5377 51.105 96.0452 51.2332 95.5739C51.3614 95.1026 51.5845 94.6624 51.8889 94.2802C52.1932 93.898 52.5724 93.5818 53.0032 93.3511C53.6109 93.0383 54.2862 92.8796 54.9698 92.8891C55.5625 92.8822 56.1503 92.9977 56.6964 93.2283C57.1954 93.4471 57.6334 93.7844 57.9723 94.2107L56.7139 95.3452C56.4109 94.9506 55.9782 94.6756 55.4921 94.5686C55.0059 94.4616 54.4976 94.5295 54.0567 94.7604C53.7651 94.923 53.5272 95.1668 53.3719 95.4622C53.2111 95.7856 53.1273 96.1419 53.1273 96.5031C53.1273 96.8643 53.2111 97.2206 53.3719 97.544C53.5288 97.8382 53.7664 98.0816 54.0567 98.2458C54.4976 98.4767 55.0059 98.5446 55.4921 98.4376C55.9782 98.3306 56.4109 98.0556 56.7139 97.661L57.9723 98.7955C57.6327 99.2197 57.1948 99.5549 56.6964 99.7721C56.1503 100.003 55.5625 100.118 54.9698 100.111C54.2854 100.122 53.6093 99.961 53.0032 99.6434" fill="white"/>
<path d="M64.7028 98.4737V100H59.1016V93.0293H64.5741V94.5556H61.0564V95.731H64.1585V97.2047H61.0564V98.4737H64.7028Z" fill="white"/>
<path d="M70.9146 93.345C71.3601 93.5273 71.7385 93.8424 71.9982 94.2474C72.258 94.6524 72.3864 95.1275 72.3662 95.6081C72.3793 96.0894 72.249 96.5636 71.9916 96.9706C71.7251 97.3651 71.3515 97.6755 70.9146 97.8654C70.3939 98.0817 69.8338 98.1872 69.2699 98.1753H68.0525V99.9999H66.0801V93.0408H69.2699C69.8344 93.0278 70.3952 93.1355 70.9146 93.3566V93.345ZM70.0659 96.3742C70.2654 96.1737 70.3773 95.9024 70.3773 95.6198C70.3773 95.3371 70.2654 95.0659 70.0659 94.8654C69.803 94.6662 69.476 94.5705 69.147 94.5964H68.0525V96.6373H69.147C69.475 96.6622 69.801 96.5688 70.0659 96.3742" fill="white"/>
<path d="M75.0389 99.6724C74.4694 99.3725 73.992 98.9238 73.6576 98.3742C73.328 97.8097 73.1543 97.168 73.1543 96.5145C73.1543 95.8611 73.328 95.2193 73.6576 94.6549C73.9901 94.1038 74.468 93.6546 75.0389 93.3566C75.6571 93.0492 76.3383 92.8892 77.0289 92.8892C77.7195 92.8892 78.4006 93.0492 79.0189 93.3566C79.4452 93.5895 79.8204 93.9058 80.1219 94.2865C80.4235 94.6672 80.6453 95.1047 80.7742 95.5728C80.9031 96.0409 80.9364 96.5302 80.8721 97.0115C80.8078 97.4927 80.6474 97.9561 80.4002 98.3742C80.0658 98.9238 79.5884 99.3725 79.0189 99.6724C78.4008 99.9803 77.7196 100.141 77.0289 100.141C76.3382 100.141 75.657 99.9803 75.0389 99.6724V99.6724ZM77.9653 98.2572C78.2514 98.0895 78.4862 97.8468 78.6443 97.5554C78.8097 97.2333 78.8959 96.8765 78.8959 96.5145C78.8959 96.1525 78.8097 95.7957 78.6443 95.4736C78.489 95.1802 78.2535 94.9369 77.9653 94.7719C77.6733 94.6106 77.345 94.526 77.0113 94.526C76.6776 94.526 76.3493 94.6106 76.0573 94.7719C75.7691 94.9369 75.5337 95.1802 75.3783 95.4736C75.213 95.7957 75.1267 96.1525 75.1267 96.5145C75.1267 96.8765 75.213 97.2333 75.3783 97.5554C75.5364 97.8468 75.7712 98.0895 76.0573 98.2572C76.3493 98.4185 76.6776 98.5031 77.0113 98.5031C77.345 98.5031 77.6733 98.4185 77.9653 98.2572" fill="white"/>
<path d="M83.6384 99.6726C83.0716 99.3786 82.5975 98.9332 82.2689 98.3861C81.9429 97.8162 81.7715 97.1711 81.7715 96.5147C81.7715 95.8583 81.9429 95.2133 82.2689 94.6434C82.5991 94.096 83.0726 93.6492 83.6384 93.351C84.2485 93.0388 84.9256 92.8802 85.6109 92.889C86.2018 92.8821 86.7877 92.9976 87.3317 93.2282C87.8222 93.4503 88.2518 93.7873 88.5842 94.2107L87.3258 95.3452C87.0238 94.951 86.5921 94.6762 86.107 94.5692C85.6218 94.4622 85.1144 94.5299 84.6744 94.7604C84.3798 94.9209 84.1395 95.1651 83.9838 95.4621C83.8259 95.7865 83.7439 96.1424 83.7439 96.503C83.7439 96.8637 83.8259 97.2196 83.9838 97.544C84.1423 97.8389 84.3819 98.0825 84.6744 98.2457C85.1144 98.4762 85.6218 98.5439 86.107 98.4369C86.5921 98.3299 87.0238 98.0551 87.3258 97.6609L88.5842 98.7954C88.2446 99.2197 87.8066 99.5549 87.3083 99.772C86.7643 100.003 86.1784 100.118 85.5875 100.111C84.9014 100.121 84.2236 99.9601 83.615 99.6434" fill="white"/>
<path d="M91.0252 99.6727C90.456 99.382 89.981 98.9359 89.6556 98.3861C89.3297 97.8162 89.1582 97.1712 89.1582 96.5148C89.1582 95.8584 89.3297 95.2134 89.6556 94.6435C89.9827 94.0936 90.457 93.646 91.0252 93.3511C91.6328 93.0383 92.3082 92.8796 92.9918 92.8891C93.5827 92.8815 94.1687 92.997 94.7125 93.2283C95.2119 93.4438 95.6502 93.7793 95.9885 94.2049L94.7359 95.3394C94.4329 94.9448 94.0002 94.6697 93.5141 94.5627C93.0279 94.4557 92.5196 94.5237 92.0787 94.7546C91.7858 94.9155 91.5475 95.1597 91.3939 95.4563C91.233 95.7798 91.1493 96.136 91.1493 96.4972C91.1493 96.8584 91.233 97.2147 91.3939 97.5382C91.5492 97.8335 91.7871 98.0774 92.0787 98.2399C92.5196 98.4708 93.0279 98.5388 93.5141 98.4318C94.0002 98.3248 94.4329 98.0498 94.7359 97.6551L95.9885 98.7896C95.6502 99.2152 95.2119 99.5507 94.7125 99.7662C94.1687 99.9975 93.5827 100.113 92.9918 100.105C92.3074 100.116 91.6313 99.9552 91.0252 99.6376" fill="white"/>
<path d="M97.123 93.0293H99.0662V97.1228L101.946 93.0293H103.801V100H101.858V95.9182L98.9901 100H97.123V93.0293Z" fill="white"/>
<path d="M105.559 93.0409H107.502V97.1345L110.381 93.0409H112.231V100H110.288V95.9064L107.42 100H105.559V93.0409ZM107.314 92.2164C107.143 92.0656 107.009 91.8774 106.923 91.6664C106.837 91.4554 106.801 91.2273 106.817 91H108.146C108.132 91.0958 108.142 91.1935 108.173 91.285C108.205 91.3765 108.257 91.4592 108.327 91.5265C108.397 91.5937 108.481 91.6436 108.574 91.6721C108.666 91.7005 108.764 91.7067 108.86 91.6901C109.058 91.7041 109.254 91.6436 109.41 91.5205C109.538 91.3782 109.605 91.1913 109.597 91H110.926C110.941 91.2272 110.904 91.4549 110.818 91.6656C110.732 91.8764 110.598 92.0648 110.428 92.2164C109.966 92.5249 109.414 92.669 108.86 92.6257C108.313 92.6683 107.768 92.524 107.314 92.2164" fill="white"/>
<path d="M115.39 99.6726C114.824 99.3786 114.349 98.9332 114.021 98.3861C113.695 97.8162 113.523 97.1711 113.523 96.5147C113.523 95.8583 113.695 95.2133 114.021 94.6434C114.351 94.096 114.825 93.6492 115.39 93.351C116 93.0388 116.678 92.8802 117.363 92.889C117.954 92.8815 118.54 92.997 119.084 93.2282C119.582 93.4454 120.02 93.7806 120.36 94.2048L119.101 95.3393C118.799 94.9452 118.367 94.6703 117.882 94.5633C117.397 94.4563 116.89 94.524 116.45 94.7545C116.155 94.9151 115.915 95.1593 115.759 95.4563C115.601 95.7806 115.519 96.1365 115.519 96.4972C115.519 96.8578 115.601 97.2138 115.759 97.5381C115.918 97.8331 116.157 98.0766 116.45 98.2399C116.89 98.4704 117.397 98.5381 117.882 98.4311C118.367 98.3241 118.799 98.0492 119.101 97.6551L120.36 98.7896C120.02 99.2138 119.582 99.549 119.084 99.7662C118.54 99.9974 117.954 100.113 117.363 100.105C116.677 100.115 115.999 99.9543 115.39 99.6375" fill="white"/>
<path d="M124.315 97.3334H123.414V100H121.453V93.0293H123.414V95.7369H124.362L126.03 93.0293H128.096L125.919 96.3977L128.12 100H125.896L124.315 97.3334Z" fill="white"/>
<path d="M129.004 93.0293H130.947V97.1228L133.827 93.0293H135.682V100H133.739V95.9182L130.871 100H129.004V93.0293Z" fill="white"/>
<path d="M137.428 93.0409H139.371V97.1345L142.251 93.0409H144.1V100H142.157V95.9064L139.289 100H137.428V93.0409ZM139.184 92.2164C139.015 92.0642 138.883 91.8756 138.797 91.6649C138.712 91.4541 138.676 91.2267 138.692 91H140.015C140.003 91.0956 140.013 91.1927 140.045 91.2835C140.077 91.3744 140.13 91.4566 140.199 91.5236C140.268 91.5906 140.352 91.6405 140.444 91.6694C140.536 91.6983 140.634 91.7054 140.729 91.6901C140.927 91.7053 141.124 91.6446 141.279 91.5205C141.344 91.4509 141.394 91.3689 141.426 91.2794C141.458 91.19 141.472 91.0949 141.466 91H142.795C142.81 91.2272 142.773 91.4549 142.687 91.6656C142.601 91.8764 142.467 92.0648 142.297 92.2164C141.835 92.5249 141.283 92.669 140.729 92.6257C140.182 92.6683 139.637 92.524 139.184 92.2164" fill="white"/>
<path d="M150.431 99.6725C149.862 99.3726 149.385 98.9239 149.05 98.3743C148.721 97.8099 148.547 97.1681 148.547 96.5146C148.547 95.8612 148.721 95.2194 149.05 94.655C149.383 94.1039 149.861 93.6547 150.431 93.3567C151.049 93.0489 151.729 92.8887 152.419 92.8887C153.108 92.8887 153.789 93.0489 154.406 93.3567C154.832 93.5891 155.208 93.905 155.51 94.2855C155.812 94.666 156.035 95.1034 156.164 95.5716C156.294 96.0397 156.328 96.5292 156.264 97.0107C156.2 97.4922 156.04 97.9559 155.793 98.3743C155.459 98.9262 154.979 99.3754 154.406 99.6725C153.789 99.9804 153.108 100.141 152.419 100.141C151.729 100.141 151.049 99.9804 150.431 99.6725ZM153.358 98.2573C153.644 98.0896 153.879 97.8469 154.037 97.5556C154.202 97.2334 154.288 96.8767 154.288 96.5146C154.288 96.1526 154.202 95.7958 154.037 95.4737C153.882 95.1803 153.646 94.937 153.358 94.772C153.067 94.607 152.738 94.5222 152.404 94.5263C152.068 94.5223 151.737 94.6071 151.444 94.772C151.158 94.9379 150.925 95.1811 150.771 95.4737C150.606 95.7958 150.519 96.1526 150.519 96.5146C150.519 96.8767 150.606 97.2334 150.771 97.5556C150.929 97.8453 151.161 98.0876 151.444 98.2573C151.737 98.4222 152.068 98.507 152.404 98.503C152.738 98.507 153.067 98.4223 153.358 98.2573" fill="white"/>
<path d="M164.237 93.0293V100H162.264V97.2807H159.572V100H157.6V93.0293H159.572V95.6492H162.264V93.0293H164.237Z" fill="white"/>
<path d="M172.469 93.041V100H170.526V94.5907H168.524L168.483 95.7252C168.467 96.5414 168.385 97.355 168.237 98.1579C168.15 98.6898 167.921 99.1885 167.576 99.6024C167.405 99.7792 167.197 99.9169 166.968 100.006C166.739 100.095 166.493 100.133 166.247 100.117C165.945 100.111 165.645 100.072 165.352 100L165.463 98.386C165.551 98.4047 165.642 98.4145 165.732 98.4152C165.848 98.4184 165.963 98.3915 166.065 98.3372C166.168 98.2829 166.255 98.203 166.317 98.1053C166.478 97.8439 166.58 97.5505 166.616 97.2457C166.684 96.7688 166.725 96.2885 166.739 95.8071L166.838 93.0293L172.469 93.041Z" fill="white"/>
<path d="M179.021 98.6433H176.095L175.545 100H173.531L176.61 93.0293H178.553L181.643 100H179.589L179.021 98.6433ZM178.436 97.193L177.541 94.9591L176.645 97.193H178.436Z" fill="white"/>
<path d="M182.67 93.0409H184.613V97.1345L187.493 93.0409H189.342V100H187.399V95.9064L184.531 100H182.67V93.0409ZM184.426 92.2164C184.255 92.0656 184.121 91.8774 184.034 91.6664C183.948 91.4554 183.912 91.2273 183.928 91H185.257C185.243 91.0958 185.253 91.1935 185.284 91.285C185.316 91.3765 185.369 91.4592 185.438 91.5265C185.508 91.5937 185.592 91.6436 185.685 91.6721C185.778 91.7005 185.876 91.7067 185.971 91.6901C186.169 91.7053 186.366 91.6446 186.521 91.5205C186.649 91.3782 186.717 91.1913 186.708 91H188.084C188.099 91.2272 188.062 91.4549 187.976 91.6656C187.89 91.8764 187.756 92.0648 187.586 92.2164C187.124 92.5249 186.572 92.669 186.018 92.6257C185.471 92.6683 184.926 92.524 184.473 92.2164" fill="white"/>
<path d="M197.723 93.0293V100H195.751V97.2807H193.058V100H191.086V93.0293H193.058V95.6492H195.751V93.0293H197.723Z" fill="white"/>
<path d="M205.432 97.3334H204.537V100H202.576V93.0293H204.537V95.7369H205.485L207.147 93.0293H209.219L207.036 96.3977L209.243 100H207.019L205.432 97.3334Z" fill="white"/>
<path d="M211.525 99.6724C210.956 99.3725 210.478 98.9238 210.144 98.3742C209.814 97.8097 209.641 97.168 209.641 96.5145C209.641 95.8611 209.814 95.2193 210.144 94.6549C210.476 94.1038 210.954 93.6546 211.525 93.3566C212.143 93.0492 212.825 92.8892 213.515 92.8892C214.206 92.8892 214.887 93.0492 215.505 93.3566C215.932 93.5895 216.307 93.9058 216.608 94.2865C216.91 94.6672 217.132 95.1047 217.261 95.5728C217.389 96.0409 217.423 96.5302 217.359 97.0115C217.294 97.4927 217.134 97.9561 216.887 98.3742C216.552 98.9238 216.075 99.3725 215.505 99.6724C214.887 99.9803 214.206 100.141 213.515 100.141C212.825 100.141 212.143 99.9803 211.525 99.6724V99.6724ZM214.452 98.2572C214.738 98.0895 214.973 97.8468 215.131 97.5554C215.296 97.2333 215.382 96.8765 215.382 96.5145C215.382 96.1525 215.296 95.7957 215.131 95.4736C214.975 95.1802 214.74 94.9369 214.452 94.7719C214.16 94.6106 213.831 94.526 213.498 94.526C213.164 94.526 212.836 94.6106 212.544 94.7719C212.255 94.9369 212.02 95.1802 211.865 95.4736C211.699 95.7957 211.613 96.1525 211.613 96.5145C211.613 96.8765 211.699 97.2333 211.865 97.5554C212.023 97.8468 212.258 98.0895 212.544 98.2572C212.836 98.4185 213.164 98.5031 213.498 98.5031C213.831 98.5031 214.16 98.4185 214.452 98.2572" fill="white"/>
<path d="M225.333 93.0293V100H223.36V97.2807H220.668V100H218.695V93.0293H220.668V95.6492H223.36V93.0293H225.333Z" fill="white"/>
<path d="M229.891 97.3334H228.996V100H227.035V93.0293H228.996V95.7369H229.944L231.606 93.0293H233.678L231.501 96.3977L233.702 100H231.478L229.891 97.3334Z" fill="white"/>
<path d="M241.344 93.0408L238.458 98.4267C238.199 98.9521 237.813 99.4045 237.334 99.7425C236.909 100.035 236.405 100.19 235.889 100.187C235.464 100.182 235.045 100.094 234.654 99.9296L235.122 98.4793C235.348 98.5492 235.582 98.5885 235.818 98.5963C235.997 98.6009 236.173 98.5564 236.328 98.4677C236.495 98.3641 236.637 98.2242 236.743 98.0583L234.033 93.0408H236.117L237.738 96.4092L239.424 93.0408H241.344Z" fill="white"/>
<path d="M247.085 93.345C247.407 93.4982 247.693 93.7175 247.925 93.9885C248.157 94.2595 248.33 94.5763 248.431 94.9182C248.533 95.26 248.561 95.6195 248.515 95.9731C248.468 96.3267 248.348 96.6665 248.161 96.9706C247.896 97.3662 247.522 97.6769 247.085 97.8654C246.564 98.0817 246.004 98.1872 245.44 98.1753H244.222V99.9999H242.25V93.0408H245.446C246.01 93.0278 246.571 93.1355 247.09 93.3566L247.085 93.345ZM246.242 96.3742C246.441 96.1737 246.553 95.9024 246.553 95.6198C246.553 95.3371 246.441 95.0659 246.242 94.8654C245.981 94.6671 245.656 94.5714 245.329 94.5964H244.228V96.6373H245.329C245.655 96.6613 245.979 96.568 246.242 96.3742" fill="white"/>
<path d="M251.203 99.6727C250.634 99.382 250.159 98.9359 249.834 98.3861C249.504 97.8176 249.33 97.172 249.33 96.5148C249.33 95.8576 249.504 95.212 249.834 94.6435C250.161 94.0936 250.635 93.646 251.203 93.3511C251.811 93.0383 252.486 92.8796 253.17 92.8891C253.761 92.8815 254.347 92.997 254.891 93.2283C255.39 93.4438 255.828 93.7793 256.167 94.2049L254.914 95.3394C254.611 94.9448 254.178 94.6697 253.692 94.5627C253.206 94.4557 252.698 94.5237 252.257 94.7546C251.964 94.9155 251.726 95.1597 251.572 95.4563C251.411 95.7798 251.328 96.136 251.328 96.4972C251.328 96.8584 251.411 97.2147 251.572 97.5382C251.727 97.8335 251.965 98.0774 252.257 98.2399C252.698 98.4708 253.206 98.5388 253.692 98.4318C254.178 98.3248 254.611 98.0498 254.914 97.6551L256.167 98.7896C255.828 99.2152 255.39 99.5507 254.891 99.7662C254.347 99.9975 253.761 100.113 253.17 100.105C252.486 100.116 251.809 99.9552 251.203 99.6376" fill="white"/>
</svg>
