<svg width="30" height="30" viewBox="0 0 30 30" fill="none" xmlns="http://www.w3.org/2000/svg">
<path d="M24.7781 29.2031H5.22188C4.08549 29.1981 2.9972 28.7439 2.19452 27.9394C1.39185 27.135 0.939965 26.0457 0.9375 24.9093V10.3968C0.942195 9.62751 1.1535 8.87359 1.54931 8.2139C1.94512 7.55422 2.51091 7.01299 3.1875 6.64682L12.9469 1.31244C13.5754 0.97028 14.2797 0.791016 14.9953 0.791016C15.711 0.791016 16.4152 0.97028 17.0438 1.31244L26.8313 6.61869C27.5078 6.98486 28.0736 7.52609 28.4694 8.18578C28.8653 8.84547 29.0766 9.59939 29.0813 10.3687V24.9093C29.0788 26.049 28.6243 27.1411 27.8176 27.946C27.0109 28.751 25.9178 29.2031 24.7781 29.2031V29.2031ZM15 2.66244C14.5974 2.66185 14.2011 2.76174 13.8469 2.95307L4.05937 8.26869C3.67974 8.47894 3.36367 8.78745 3.14429 9.16188C2.92491 9.53631 2.81031 9.96286 2.8125 10.3968V24.9093C2.8125 25.5508 3.06733 26.166 3.52094 26.6196C3.97454 27.0732 4.58976 27.3281 5.23125 27.3281H24.7781C25.418 27.3256 26.0308 27.0697 26.4824 26.6163C26.934 26.163 27.1875 25.5492 27.1875 24.9093V10.3968C27.1878 9.96097 27.0704 9.53313 26.8476 9.15853C26.6249 8.78393 26.305 8.47648 25.9219 8.26869L16.1531 2.96244C15.7998 2.76785 15.4034 2.66472 15 2.66244V2.66244Z" fill="white"/>
<path d="M15.0012 25.0875C13.6963 25.0878 12.4319 24.6343 11.4245 23.8048C10.4171 22.9753 9.72948 21.8214 9.47937 20.5406C9.45897 20.4063 9.46803 20.2691 9.50593 20.1386C9.54382 20.008 9.60963 19.8873 9.69881 19.7848C9.78798 19.6822 9.89839 19.6003 10.0224 19.5446C10.1464 19.489 10.281 19.461 10.4169 19.4625C10.6402 19.4593 10.8574 19.5359 11.0292 19.6785C11.2011 19.8212 11.3164 20.0205 11.3544 20.2406C11.5309 21.0834 11.9921 21.8397 12.6605 22.3825C13.3288 22.9254 14.1636 23.2217 15.0247 23.2217C15.8857 23.2217 16.7205 22.9254 17.3889 22.3825C18.0572 21.8397 18.5184 21.0834 18.695 20.2406C18.7329 20.0205 18.8482 19.8212 19.0201 19.6785C19.192 19.5359 19.4091 19.4593 19.6325 19.4625C19.7684 19.461 19.903 19.489 20.027 19.5446C20.151 19.6003 20.2614 19.6822 20.3505 19.7848C20.4397 19.8873 20.5055 20.008 20.5434 20.1386C20.5813 20.2691 20.5904 20.4063 20.57 20.5406C20.3184 21.8293 19.6239 22.9894 18.6068 23.8198C17.5897 24.6502 16.3142 25.0987 15.0012 25.0875V25.0875Z" fill="white"/>
</svg>
