<svg width="1514" height="959" viewBox="0 0 1514 959" fill="none" xmlns="http://www.w3.org/2000/svg">
<path d="M1320.81 178.283C1392.65 220.854 1479.53 222.433 1514 217.902V302.965C1409.83 294.886 1280.78 427.646 1244.63 479.694C1208.48 531.742 1121.41 591.17 1040.56 591.17C948.975 591.17 941.44 703.81 889.742 735.661C838.045 767.511 738.514 894.668 420.577 818.782C202.515 766.734 49.754 914.332 0 959V792.369V0H330.009C444.288 48.9405 412.482 113.283 584.61 178.283C718.324 228.777 782.46 195.373 941.051 134.78C1131.41 62.0496 1231.02 125.07 1320.81 178.283Z" fill="url(#paint0_linear_232_13289)"/>
<mask id="mask0_232_13289" style="mask-type:alpha" maskUnits="userSpaceOnUse" x="0" y="0" width="1513" height="955">
<path d="M1319.94 178.261C1391.73 220.827 1478.56 222.406 1513 217.875V302.928C1408.9 294.85 1279.93 427.595 1243.81 479.636C1207.68 531.677 1120.67 591.098 1039.87 591.098C948.348 591.098 962.571 692.462 910.908 724.309C859.244 756.155 732.222 904.033 367.471 809.75C220.638 771.796 43.1176 921.212 0 955V792.273V0H329.791C423.018 36.5067 409.811 120.006 584.224 178.261C758.636 236.517 747.371 199.622 940.43 134.764C1133.49 69.9064 1230.21 125.055 1319.94 178.261Z" fill="url(#paint1_linear_232_13289)"/>
</mask>
<g mask="url(#mask0_232_13289)">
<path opacity="0.2" d="M1088 315.742V629H-4V296.532H48.8603V351.954H123.475V324.444H152.268V221.631H180.056V324.444H215.05V228.592H310.782V303.326H383.855V189H457.33V382.577H531.441V301.452H624.056V242.916H681.542V297.937H735.207V278.191H847.531V336.492H935.251V280.367H1004.6V353.661H1049.45V315.742H1088Z" fill="url(#paint2_linear_232_13289)"/>
<path d="M157.253 557.053C156.937 557.053 156.68 557.303 156.68 557.611C156.68 557.919 156.937 558.168 157.253 558.168C157.569 558.168 157.825 557.919 157.825 557.611C157.825 557.303 157.569 557.053 157.253 557.053ZM157.253 553.318C156.507 553.318 155.902 553.907 155.902 554.634C155.902 555.361 156.507 555.95 157.253 555.95C157.999 555.95 158.603 555.361 158.603 554.634C158.603 553.907 157.999 553.318 157.253 553.318ZM155.328 550.669C155.461 550.607 155.596 550.552 155.736 550.504V545.985C154.38 546.21 153.127 546.729 152.05 547.474L155.328 550.669ZM157.253 540.268C149.11 540.268 142.509 546.7 142.509 554.634C142.509 562.568 149.11 569 157.253 569C165.395 569 171.996 562.568 171.996 554.634C171.996 546.7 165.395 540.268 157.253 540.268ZM157.253 564.896C151.437 564.896 146.722 560.302 146.722 554.634C146.722 548.967 151.437 544.373 157.253 544.373C163.069 544.373 167.784 548.967 167.784 554.634C167.784 560.302 163.069 564.896 157.253 564.896ZM158.77 558.765V563.283C160.126 563.059 161.378 562.539 162.456 561.794L159.177 558.6C159.045 558.661 158.909 558.716 158.77 558.765ZM161.492 553.156H166.129C165.899 551.835 165.366 550.614 164.602 549.564L161.323 552.759C161.386 552.888 161.442 553.021 161.492 553.156ZM161.323 556.509L164.601 559.704C165.366 558.654 165.899 557.434 166.129 556.112H161.492C161.442 556.248 161.385 556.38 161.323 556.509ZM152.05 561.794C153.127 562.539 154.38 563.059 155.736 563.283V558.765C155.597 558.716 155.461 558.661 155.329 558.6L152.05 561.794ZM159.735 554.634C159.735 554.942 159.991 555.192 160.308 555.192C160.624 555.192 160.88 554.942 160.88 554.634C160.88 554.326 160.624 554.076 160.308 554.076C159.991 554.076 159.735 554.326 159.735 554.634ZM162.456 547.474C161.378 546.73 160.126 546.21 158.77 545.985V550.504C158.909 550.552 159.044 550.608 159.177 550.669L162.456 547.474ZM157.253 552.215C157.569 552.215 157.825 551.966 157.825 551.658C157.825 551.35 157.569 551.1 157.253 551.1C156.937 551.1 156.68 551.35 156.68 551.658C156.68 551.966 156.937 552.215 157.253 552.215ZM153.014 556.112H148.377C148.607 557.434 149.14 558.654 149.904 559.704L153.183 556.51C153.12 556.38 153.064 556.248 153.014 556.112ZM153.183 552.759L149.904 549.564C149.14 550.614 148.607 551.835 148.377 553.156H153.014C153.063 553.02 153.12 552.888 153.183 552.759ZM154.771 554.634C154.771 554.326 154.514 554.076 154.198 554.076C153.882 554.076 153.625 554.326 153.625 554.634C153.625 554.942 153.882 555.192 154.198 555.192C154.514 555.192 154.771 554.942 154.771 554.634ZM273.813 553.318C273.067 553.318 272.462 553.907 272.462 554.634C272.462 555.361 273.067 555.95 273.813 555.95C274.558 555.95 275.163 555.361 275.163 554.634C275.163 553.907 274.558 553.318 273.813 553.318ZM273.813 557.053C273.496 557.053 273.24 557.303 273.24 557.611C273.24 557.919 273.496 558.168 273.813 558.168C274.129 558.168 274.385 557.919 274.385 557.611C274.385 557.303 274.129 557.053 273.813 557.053ZM278.052 553.156H282.689C282.459 551.835 281.926 550.614 281.161 549.564L277.883 552.759C277.945 552.888 278.002 553.021 278.052 553.156ZM273.813 540.268C265.67 540.268 259.069 546.7 259.069 554.634C259.069 562.568 265.67 569 273.813 569C281.955 569 288.556 562.568 288.556 554.634C288.556 546.7 281.955 540.268 273.813 540.268ZM273.813 564.896C267.997 564.896 263.281 560.302 263.281 554.634C263.281 548.967 267.996 544.373 273.813 544.373C279.629 544.373 284.344 548.967 284.344 554.634C284.343 560.302 279.629 564.896 273.813 564.896ZM277.882 556.509L281.161 559.704C281.925 558.654 282.458 557.434 282.688 556.112H278.052C278.002 556.248 277.945 556.38 277.882 556.509ZM306.78 546.675C306.507 546.283 305.721 546.109 305.49 545.732C305.181 545.229 305.192 544.208 304.952 543.637C302.941 538.851 300.726 537.385 297.854 535.673C293.823 533.269 289.519 532.275 284.735 530.539C284.966 530.622 277.52 528.646 275.702 528.338C274.584 527.981 270.547 526.844 269.572 527.185C268.5 526.107 266.609 525.576 265.271 524.775C263.11 523.483 260.883 522.091 258.711 520.794C257.55 520.1 256.328 519.705 255.162 519.012C252.143 517.219 245.484 514.297 245.484 514.297C245.484 514.297 220.928 500.819 134.397 508.219C133.352 508.318 132.066 508.249 131.279 508.743C131.171 508.778 131.064 508.813 130.956 508.848C130.975 509.659 131.363 512.212 130.956 512.83C130.833 513.761 128.987 515.197 128.375 515.869C126.949 517.434 125.452 519.121 124.181 520.794C123.598 521.562 123.04 522.652 122.246 523.204C121.996 523.447 120.581 525.472 119.987 526.347C119.425 527.177 118.317 529.259 118.051 530.224C117.503 532.22 118.263 534.742 118.589 536.301C118.614 536.42 118.538 539.623 118.589 541.017C118.225 542.293 117.386 543.672 116.869 544.894C116.291 546.26 116.172 547.342 115.041 548.142C114.893 551.013 115.104 553.688 116.439 555.372C117.239 556.383 120.311 561.031 120.311 561.031H142.904C141.988 559.083 141.476 556.917 141.476 554.634C141.476 546.144 148.539 539.262 157.252 539.262C165.965 539.262 173.027 546.144 173.027 554.634C173.027 556.917 172.516 559.083 171.6 561.031H259.463C258.547 559.083 258.036 556.917 258.036 554.634C258.036 546.144 265.099 539.262 273.812 539.262C282.524 539.262 289.587 546.144 289.587 554.634C289.587 556.917 289.076 559.083 288.16 561.031H299.682C299.682 561.031 309.026 560.51 305.597 557.992C305.966 557.148 306.026 555.886 306.673 555.058C306.861 554.925 307.244 554.871 307.533 554.848C308.552 552.707 307.721 548.026 306.78 546.675ZM133.43 524.356C133.43 524.356 134.602 523.288 135.15 522.889C136.716 521.753 138.156 520.461 139.774 519.327C142.331 517.534 145.397 514.901 148.377 513.668C150.304 512.872 152.517 513.038 154.83 512.516C156.658 512.103 158.938 512.197 160.852 511.782C160.64 511.782 165.691 511.573 165.476 511.573C165.261 511.573 168.662 511.247 170.1 511.259C170.1 516.497 170.745 520.48 170.745 525.719C145.951 524.632 133.43 524.356 133.43 524.356ZM177.735 525.509L176.767 510.944C176.767 510.944 184.842 510.29 192.682 510.264C200.702 510.237 208.491 510.839 208.491 510.839L210.104 527.186L177.735 525.509ZM218.922 527.814C218.922 527.814 216.448 511.15 216.448 511.046C216.448 510.942 231.038 512.899 237.096 515.345C239.243 516.212 241.821 517.122 243.763 518.279C244.788 518.89 247.312 520.165 247.312 520.165L247.957 530.119L218.922 527.814ZM271.888 550.669C272.02 550.607 272.156 550.552 272.296 550.504V545.985C270.939 546.21 269.687 546.729 268.609 547.474L271.888 550.669ZM275.329 558.765V563.283C276.686 563.059 277.938 562.539 279.016 561.794L275.737 558.6C275.605 558.661 275.469 558.716 275.329 558.765ZM276.295 554.634C276.295 554.942 276.551 555.192 276.867 555.192C277.183 555.192 277.44 554.942 277.44 554.634C277.44 554.326 277.183 554.076 276.867 554.076C276.551 554.076 276.295 554.326 276.295 554.634ZM271.33 554.634C271.33 554.326 271.074 554.076 270.758 554.076C270.442 554.076 270.185 554.326 270.185 554.634C270.185 554.942 270.442 555.192 270.758 555.192C271.074 555.192 271.33 554.942 271.33 554.634ZM273.813 552.215C274.129 552.215 274.385 551.966 274.385 551.658C274.385 551.35 274.129 551.1 273.813 551.1C273.496 551.1 273.24 551.35 273.24 551.658C273.24 551.966 273.496 552.215 273.813 552.215ZM279.015 547.474C277.938 546.73 276.685 546.21 275.329 545.985V550.504C275.469 550.552 275.604 550.608 275.737 550.669L279.015 547.474ZM268.61 561.794C269.687 562.539 270.939 563.059 272.296 563.283V558.765C272.156 558.716 272.021 558.661 271.888 558.6L268.61 561.794ZM269.573 556.112H264.936C265.166 557.434 265.699 558.654 266.464 559.704L269.742 556.51C269.68 556.38 269.623 556.248 269.573 556.112ZM269.743 552.759L266.464 549.564C265.7 550.614 265.167 551.835 264.937 553.156H269.573C269.623 553.02 269.68 552.888 269.743 552.759Z" fill="#167DB1"/>
<path d="M52.9157 573.906C52.1364 573.906 51.5046 574.548 51.5046 575.34C51.5046 576.133 52.1364 576.775 52.9157 576.775C53.6949 576.775 54.3267 576.133 54.3267 575.34C54.3267 574.548 53.6951 573.906 52.9157 573.906ZM50.9055 571.017C51.0438 570.951 51.1856 570.89 51.331 570.837V565.912C49.9144 566.156 48.6059 566.723 47.4803 567.535L50.9055 571.017ZM52.9157 577.976C52.5853 577.976 52.3177 578.249 52.3177 578.585C52.3177 578.92 52.5853 579.193 52.9157 579.193C53.246 579.193 53.5136 578.92 53.5136 578.585C53.5138 578.249 53.246 577.976 52.9157 577.976ZM54.5005 579.843V584.768C55.9171 584.523 57.2256 583.957 58.3512 583.145L54.926 579.663C54.7877 579.729 54.6461 579.79 54.5005 579.843ZM57.3442 576.951C57.292 577.099 57.2334 577.244 57.1679 577.384L60.5929 580.867C61.3914 579.722 61.9483 578.392 62.1888 576.951H57.3442ZM52.9157 559.68C44.4091 559.68 37.5133 566.691 37.5133 575.34C37.5133 583.989 44.4091 591 52.9157 591C61.4222 591 68.318 583.989 68.318 575.34C68.318 566.691 61.4222 559.68 52.9157 559.68ZM52.9157 586.526C46.8396 586.526 41.9141 581.518 41.9141 575.34C41.9141 569.162 46.8398 564.154 52.9157 564.154C58.9915 564.154 63.9174 569.162 63.9174 575.34C63.9174 581.518 58.9917 586.526 52.9157 586.526ZM55.5089 575.34C55.5089 575.676 55.7765 575.948 56.1068 575.948C56.4371 575.948 56.7048 575.676 56.7048 575.34C56.7048 575.004 56.4371 574.732 56.1068 574.732C55.7765 574.732 55.5089 575.004 55.5089 575.34ZM52.9157 572.703C53.246 572.703 53.5136 572.431 53.5136 572.095C53.5136 571.759 53.246 571.487 52.9157 571.487C52.5853 571.487 52.3177 571.759 52.3177 572.095C52.3177 572.431 52.5853 572.703 52.9157 572.703ZM58.3514 567.535C57.2257 566.723 55.9173 566.156 54.5007 565.912V570.837C54.6461 570.89 54.7879 570.95 54.9264 571.017L58.3514 567.535ZM48.6638 573.296L45.2388 569.813C44.4403 570.958 43.8834 572.288 43.6429 573.729H48.4875C48.5395 573.581 48.5981 573.436 48.6638 573.296ZM48.4871 576.951H43.6429C43.8832 578.392 44.4405 579.722 45.2388 580.867L48.664 577.384C48.5985 577.243 48.5391 577.099 48.4871 576.951ZM47.4801 583.145C48.6058 583.957 49.9144 584.524 51.331 584.768V579.843C51.1856 579.79 51.0436 579.73 50.9051 579.663L47.4801 583.145ZM50.3226 575.34C50.3226 575.004 50.055 574.732 49.7247 574.732C49.3944 574.732 49.1267 575.004 49.1267 575.34C49.1267 575.676 49.3944 575.948 49.7247 575.948C50.055 575.948 50.3226 575.676 50.3226 575.34ZM57.3444 573.729H62.1886C61.9481 572.288 61.391 570.958 60.5927 569.813L57.1675 573.296C57.233 573.436 57.2924 573.581 57.3444 573.729ZM167.815 573.1C167.036 573.1 166.404 573.742 166.404 574.534C166.404 575.327 167.036 575.969 167.815 575.969C168.594 575.969 169.226 575.327 169.226 574.534C169.226 573.742 168.595 573.1 167.815 573.1ZM169.4 579.037V583.962C170.817 583.718 172.125 583.151 173.251 582.339L169.825 578.857C169.687 578.924 169.546 578.984 169.4 579.037ZM167.815 577.171C167.485 577.171 167.217 577.443 167.217 577.779C167.217 578.115 167.485 578.387 167.815 578.387C168.146 578.387 168.413 578.115 168.413 577.779C168.413 577.443 168.146 577.171 167.815 577.171ZM196.37 567.963C197.114 563.231 196.342 562.823 193.261 555.846C192.425 553.952 190.213 552.799 188.425 551.807C179.079 546.624 155.744 543.41 154.228 543.378C149.477 538.568 141.7 529.521 131.262 522.284C129.315 520.934 122.448 520.725 122.448 520.725C122.448 520.725 66.1048 518.53 52.6717 521.779C51.5128 522.059 50.7074 521.961 49.7356 522.481C49.5772 522.566 46.7851 525.499 46.6268 525.818C46.472 526.129 45.5577 527.144 45.2451 527.574C43.1721 530.423 40.6311 533.235 38.8546 536.354C38.0746 537.724 37.7131 539.027 36.9547 540.393C36.2247 541.708 33.5689 542.719 33.1551 545.134C32.9564 546.293 31.6602 545.86 31.6006 547.593C32.1926 547.778 32.2641 547.998 32.9822 548.119C31.9437 551.959 31.3064 558.813 31.2513 559.535C31.2527 559.535 31.2538 559.534 31.2552 559.534C31.2464 559.621 31.2452 559.616 31.2513 559.535C28.0019 560.572 28.3036 566.509 28 565.433C28.3907 567.013 29.467 569.071 29.8734 570.772C30.2214 572.23 29.0656 572.852 29.0097 574.284C29.2618 574.434 29.5048 576.007 29.7005 576.216C30.5219 578.515 36.9503 580.596 36.9503 580.596L37.5872 580.596C37.0399 578.946 36.743 577.178 36.743 575.34C36.743 566.258 43.9837 558.896 52.9157 558.896C61.8476 558.896 69.0883 566.258 69.0883 575.34C69.0883 577.192 68.7866 578.973 68.2311 580.635L152.836 580.742C152.068 578.826 151.643 576.731 151.643 574.534C151.643 565.453 158.883 558.091 167.815 558.091C176.747 558.091 183.988 565.453 183.988 574.534C183.988 576.745 183.557 578.854 182.779 580.78L184.107 580.782C184.107 580.782 194.035 581.72 195.334 578.499C195.867 577.894 196.064 574.835 196.024 573.055C196.044 571.224 196.407 571.577 196.888 570.421C197.355 569.298 196.198 568.476 196.37 567.963ZM83.4149 540.568C83.0981 540.794 83.1192 540.914 82.7239 541.095C81.4659 542.065 69.1863 540.744 52.499 540.744C52.7829 541.156 50.5456 540.801 52.3263 536.881C54.7468 531.552 58.4383 527.819 58.235 527.744C63.1387 526.994 76.2783 527.212 83.4151 527.398C83.2703 531.613 83.3293 533.895 83.4149 540.568ZM133.329 544.608C133.072 544.235 132.263 543.76 132.12 543.378C131.956 542.937 132.391 542.064 132.12 541.447C131.377 539.748 128.913 538.605 126.421 538.637C125.827 539.336 124.93 539.647 124.521 540.568C124.408 540.824 123.971 543.239 124.003 543.378C124.088 543.756 124.3 543.826 124.353 544.021C124.797 544.039 124.582 544.09 124.348 544.256C124.372 544.156 124.371 544.082 124.353 544.021C123.108 543.97 116.668 544.182 90.8416 542.851C90.1262 529.03 89.4845 528.577 91.0143 526.345C106.127 526.345 122.103 526.169 122.103 526.169C122.103 526.169 133.47 540.277 136.956 544.783C136.34 545.083 134.335 544.653 133.329 544.608ZM144.21 543.203C138.601 538.627 131.197 528.76 127.63 525.818C126.42 525.818 130.46 525.748 132.639 525.291C139.14 531.122 145.87 536.397 151.776 543.258C148.979 543.388 146.585 545.139 144.21 543.203ZM167.815 558.874C159.309 558.874 152.413 565.886 152.413 574.534C152.413 583.183 159.309 590.194 167.815 590.194C176.322 590.194 183.218 583.183 183.218 574.534C183.218 565.885 176.322 558.874 167.815 558.874ZM167.815 585.72C161.739 585.72 156.814 580.712 156.814 574.534C156.814 568.357 161.739 563.349 167.815 563.349C173.891 563.349 178.817 568.357 178.817 574.534C178.817 580.712 173.891 585.72 167.815 585.72ZM172.067 576.579L175.492 580.061C176.291 578.917 176.848 577.586 177.088 576.146H172.244C172.192 576.293 172.133 576.438 172.067 576.579ZM172.244 572.923H177.088C176.848 571.483 176.29 570.152 175.492 569.008L172.067 572.49C172.133 572.631 172.192 572.775 172.244 572.923ZM165.805 570.212C165.944 570.145 166.085 570.085 166.231 570.031V565.106C164.814 565.351 163.506 565.918 162.38 566.729L165.805 570.212ZM165.222 574.534C165.222 574.198 164.955 573.926 164.624 573.926C164.294 573.926 164.026 574.198 164.026 574.534C164.026 574.87 164.294 575.142 164.624 575.142C164.955 575.142 165.222 574.87 165.222 574.534ZM167.815 571.898C168.146 571.898 168.413 571.626 168.413 571.29C168.413 570.954 168.146 570.682 167.815 570.682C167.485 570.682 167.217 570.954 167.217 571.29C167.217 571.625 167.485 571.898 167.815 571.898ZM173.251 566.729C172.125 565.917 170.817 565.351 169.4 565.106V570.031C169.546 570.084 169.688 570.145 169.826 570.211L173.251 566.729ZM170.409 574.534C170.409 574.87 170.676 575.142 171.007 575.142C171.337 575.142 171.605 574.87 171.605 574.534C171.605 574.198 171.337 573.926 171.007 573.926C170.676 573.926 170.409 574.198 170.409 574.534ZM163.564 572.49L160.138 569.007C159.34 570.152 158.783 571.482 158.542 572.923H163.387C163.439 572.775 163.498 572.631 163.564 572.49ZM162.38 582.34C163.505 583.151 164.814 583.718 166.231 583.962V579.037C166.085 578.985 165.943 578.924 165.805 578.857L162.38 582.34ZM163.387 576.146H158.543C158.783 577.586 159.34 578.917 160.139 580.061L163.564 576.578C163.498 576.438 163.439 576.293 163.387 576.146Z" fill="#1274A8"/>
<path d="M619.326 547.387C618.565 547.387 617.948 548.011 617.948 548.781C617.948 549.551 618.565 550.176 619.326 550.176C620.087 550.176 620.704 549.551 620.704 548.781C620.704 548.011 620.087 547.387 619.326 547.387ZM617.363 544.58C617.498 544.515 617.637 544.456 617.779 544.405V539.619C616.396 539.856 615.118 540.407 614.019 541.196L617.363 544.58ZM619.326 551.343C619.003 551.343 618.742 551.608 618.742 551.934C618.742 552.261 619.003 552.525 619.326 552.525C619.648 552.525 619.91 552.261 619.91 551.934C619.91 551.608 619.648 551.343 619.326 551.343ZM620.873 553.157V557.944C622.256 557.706 623.534 557.155 624.633 556.366L621.289 552.982C621.154 553.047 621.015 553.106 620.873 553.157ZM623.65 550.347C623.599 550.491 623.541 550.631 623.477 550.768L626.821 554.152C627.601 553.04 628.145 551.747 628.38 550.347H623.65ZM619.326 533.562C611.021 533.562 604.288 540.376 604.288 548.781C604.288 557.186 611.021 564 619.326 564C627.631 564 634.364 557.186 634.364 548.781C634.364 540.376 627.631 533.562 619.326 533.562ZM619.326 559.652C613.394 559.652 608.585 554.785 608.585 548.781C608.585 542.777 613.394 537.91 619.326 537.91C625.258 537.91 630.067 542.777 630.067 548.781C630.067 554.785 625.258 559.652 619.326 559.652ZM621.858 548.781C621.858 549.107 622.119 549.372 622.442 549.372C622.764 549.372 623.025 549.107 623.025 548.781C623.025 548.455 622.764 548.19 622.442 548.19C622.119 548.19 621.858 548.455 621.858 548.781ZM619.326 546.219C619.648 546.219 619.91 545.954 619.91 545.628C619.91 545.301 619.648 545.037 619.326 545.037C619.003 545.037 618.742 545.301 618.742 545.628C618.742 545.954 619.003 546.219 619.326 546.219ZM624.633 541.196C623.534 540.407 622.257 539.856 620.873 539.619V544.405C621.015 544.456 621.154 544.515 621.289 544.58L624.633 541.196ZM615.175 546.794L611.831 543.41C611.051 544.522 610.507 545.815 610.273 547.215H615.003C615.053 547.072 615.111 546.931 615.175 546.794ZM615.002 550.347H610.273C610.507 551.747 611.051 553.04 611.831 554.152L615.175 550.767C615.111 550.631 615.053 550.491 615.002 550.347ZM614.019 556.367C615.118 557.156 616.396 557.706 617.779 557.944V553.157C617.637 553.106 617.498 553.047 617.363 552.982L614.019 556.367ZM616.794 548.781C616.794 548.455 616.533 548.19 616.21 548.19C615.888 548.19 615.627 548.454 615.627 548.781C615.627 549.107 615.888 549.372 616.21 549.372C616.533 549.372 616.794 549.107 616.794 548.781ZM623.65 547.215H628.379C628.145 545.815 627.601 544.522 626.821 543.41L623.477 546.795C623.541 546.931 623.599 547.071 623.65 547.215ZM731.506 546.604C730.745 546.604 730.129 547.228 730.129 547.998C730.129 548.768 730.745 549.392 731.506 549.392C732.267 549.392 732.884 548.768 732.884 547.998C732.884 547.228 732.267 546.604 731.506 546.604ZM733.054 552.374V557.16C734.436 556.923 735.714 556.372 736.813 555.583L733.469 552.199C733.334 552.264 733.195 552.323 733.054 552.374ZM731.506 550.56C731.183 550.56 730.922 550.825 730.922 551.151C730.922 551.478 731.183 551.742 731.506 551.742C731.828 551.742 732.09 551.478 732.09 551.151C732.09 550.825 731.829 550.56 731.506 550.56ZM759.385 541.612C760.111 537.013 759.358 536.617 756.35 529.836C755.533 527.996 753.374 526.875 751.628 525.911C742.503 520.874 719.721 517.751 718.24 517.72C713.602 513.045 706.008 504.253 695.818 497.22C693.917 495.908 687.213 495.705 687.213 495.705C687.213 495.705 632.203 493.571 619.088 496.729C617.956 497.001 617.17 496.906 616.221 497.411C616.067 497.494 613.341 500.344 613.186 500.654C613.035 500.956 612.142 501.943 611.837 502.36C609.813 505.129 607.332 507.862 605.598 510.893C604.836 512.224 604.483 513.491 603.743 514.818C603.03 516.096 600.437 517.079 600.033 519.426C599.839 520.552 598.574 520.131 598.515 521.815C599.093 521.996 599.163 522.21 599.864 522.327C598.85 526.059 598.228 532.719 598.174 533.421C598.176 533.421 598.177 533.42 598.178 533.42C598.17 533.505 598.168 533.5 598.174 533.421C595.002 534.429 595.296 540.198 595 539.153C595.381 540.689 596.432 542.688 596.829 544.342C597.169 545.759 596.04 546.363 595.986 547.755C596.232 547.901 596.469 549.43 596.66 549.632C597.462 551.867 603.738 553.889 603.738 553.889L604.36 553.889C603.826 552.285 603.536 550.567 603.536 548.781C603.536 539.955 610.605 532.801 619.326 532.801C628.046 532.801 635.116 539.955 635.116 548.781C635.116 550.581 634.821 552.312 634.279 553.927L716.882 554.031C716.131 552.169 715.716 550.133 715.716 547.998C715.716 539.172 722.786 532.018 731.506 532.018C740.227 532.018 747.296 539.172 747.296 547.998C747.296 550.147 746.876 552.196 746.115 554.068L747.412 554.069C747.412 554.069 757.105 554.981 758.373 551.851C758.893 551.263 759.086 548.291 759.047 546.561C759.066 544.781 759.421 545.125 759.891 544.001C760.347 542.909 759.217 542.111 759.385 541.612ZM649.103 514.989C648.794 515.208 648.815 515.325 648.429 515.501C647.2 516.443 635.211 515.16 618.919 515.16C619.196 515.56 617.012 515.215 618.751 511.405C621.114 506.227 624.718 502.599 624.519 502.526C629.307 501.797 642.136 502.009 649.103 502.19C648.962 506.286 649.02 508.504 649.103 514.989ZM697.836 518.914C697.585 518.552 696.795 518.091 696.656 517.72C696.496 517.291 696.92 516.442 696.656 515.843C695.93 514.192 693.524 513.08 691.091 513.112C690.512 513.792 689.636 514.094 689.236 514.989C689.126 515.237 688.7 517.584 688.731 517.72C688.814 518.086 689.02 518.155 689.073 518.344C689.506 518.361 689.296 518.411 689.068 518.573C689.091 518.475 689.09 518.404 689.073 518.344C687.857 518.295 681.569 518.5 656.354 517.208C655.656 503.775 655.029 503.335 656.523 501.166C671.278 501.166 686.876 500.995 686.876 500.995C686.876 500.995 697.974 514.705 701.377 519.085C700.776 519.377 698.818 518.958 697.836 518.914ZM708.46 517.549C702.983 513.103 695.755 503.514 692.272 500.654C691.091 500.654 695.035 500.586 697.162 500.142C703.509 505.809 710.081 510.936 715.846 517.603C713.116 517.729 710.778 519.431 708.46 517.549ZM731.506 532.779C723.201 532.779 716.468 539.593 716.468 547.998C716.468 556.403 723.201 563.217 731.506 563.217C739.811 563.217 746.544 556.403 746.544 547.998C746.544 539.593 739.811 532.779 731.506 532.779ZM731.506 558.869C725.574 558.869 720.765 554.002 720.765 547.998C720.765 541.994 725.574 537.128 731.506 537.128C737.438 537.128 742.247 541.994 742.247 547.998C742.247 554.002 737.438 558.869 731.506 558.869ZM735.658 549.985L739.001 553.369C739.781 552.257 740.325 550.964 740.56 549.564H735.83C735.779 549.708 735.721 549.848 735.658 549.985ZM735.83 546.432H740.559C740.325 545.032 739.781 543.739 739.001 542.627L735.657 546.012C735.721 546.148 735.779 546.288 735.83 546.432ZM729.544 543.797C729.679 543.733 729.817 543.674 729.959 543.622V538.836C728.576 539.073 727.298 539.624 726.199 540.413L729.544 543.797ZM728.974 547.998C728.974 547.672 728.713 547.407 728.39 547.407C728.068 547.407 727.807 547.672 727.807 547.998C727.807 548.324 728.068 548.589 728.39 548.589C728.713 548.589 728.974 548.324 728.974 547.998ZM731.506 545.436C731.828 545.436 732.09 545.171 732.09 544.845C732.09 544.518 731.829 544.254 731.506 544.254C731.183 544.254 730.922 544.518 730.922 544.845C730.922 545.171 731.184 545.436 731.506 545.436ZM736.813 540.413C735.714 539.624 734.437 539.073 733.054 538.836V543.622C733.196 543.673 733.334 543.732 733.469 543.797L736.813 540.413ZM734.038 547.998C734.038 548.324 734.299 548.589 734.622 548.589C734.944 548.589 735.206 548.325 735.206 547.998C735.206 547.672 734.944 547.407 734.622 547.407C734.299 547.407 734.038 547.672 734.038 547.998ZM727.355 546.011L724.011 542.627C723.231 543.739 722.687 545.032 722.453 546.432H727.182C727.234 546.288 727.291 546.148 727.355 546.011ZM726.199 555.584C727.298 556.372 728.576 556.923 729.959 557.161V552.374C729.817 552.323 729.678 552.264 729.543 552.199L726.199 555.584ZM727.182 549.564H722.453C722.688 550.964 723.232 552.257 724.011 553.369L727.355 549.985C727.291 549.848 727.233 549.708 727.182 549.564Z" fill="#2292CA"/>
<path d="M420.323 579.829C419.932 579.829 419.614 580.146 419.614 580.537C419.614 580.928 419.932 581.246 420.323 581.246C420.715 581.246 421.032 580.928 421.032 580.537C421.032 580.146 420.715 579.829 420.323 579.829ZM420.323 575.087C419.4 575.087 418.651 575.835 418.651 576.758C418.651 577.68 419.4 578.428 420.323 578.428C421.247 578.428 421.996 577.68 421.996 576.758C421.996 575.835 421.247 575.087 420.323 575.087ZM417.94 571.722C418.104 571.644 418.272 571.574 418.445 571.512V565.775C416.765 566.06 415.214 566.72 413.88 567.665L417.94 571.722ZM420.323 558.515C410.24 558.515 402.066 566.683 402.066 576.758C402.066 586.832 410.24 595 420.323 595C430.407 595 438.581 586.832 438.581 576.758C438.581 566.683 430.407 558.515 420.323 558.515ZM420.323 589.788C413.121 589.788 407.282 583.954 407.282 576.758C407.282 569.561 413.121 563.727 420.323 563.727C427.526 563.727 433.364 569.561 433.364 576.758C433.364 583.954 427.526 589.788 420.323 589.788ZM422.202 582.003V587.74C423.881 587.456 425.432 586.796 426.767 585.85L422.706 581.793C422.542 581.871 422.374 581.942 422.202 582.003ZM425.573 574.881H431.315C431.03 573.203 430.37 571.653 429.424 570.32L425.364 574.376C425.441 574.54 425.511 574.709 425.573 574.881ZM425.363 579.139L429.423 583.195C430.37 581.862 431.03 580.312 431.315 578.634H425.573C425.511 578.807 425.441 578.975 425.363 579.139ZM413.88 585.85C415.214 586.795 416.765 587.456 418.445 587.74V582.003C418.272 581.941 418.105 581.871 417.941 581.793L413.88 585.85ZM423.397 576.758C423.397 577.149 423.715 577.466 424.106 577.466C424.498 577.466 424.815 577.149 424.815 576.758C424.815 576.366 424.498 576.049 424.106 576.049C423.715 576.049 423.397 576.366 423.397 576.758ZM426.766 567.665C425.432 566.72 423.881 566.06 422.202 565.775V571.512C422.374 571.574 422.542 571.645 422.706 571.722L426.766 567.665ZM420.323 573.686C420.715 573.686 421.032 573.369 421.032 572.978C421.032 572.587 420.715 572.27 420.323 572.27C419.932 572.27 419.614 572.587 419.614 572.978C419.614 573.369 419.932 573.686 420.323 573.686ZM415.074 578.635H409.332C409.617 580.313 410.277 581.863 411.223 583.196L415.283 579.139C415.206 578.975 415.136 578.807 415.074 578.635ZM415.284 574.377L411.224 570.32C410.277 571.653 409.617 573.203 409.332 574.881H415.074C415.136 574.708 415.206 574.54 415.284 574.377ZM417.25 576.758C417.25 576.366 416.932 576.049 416.541 576.049C416.149 576.049 415.831 576.366 415.831 576.758C415.831 577.149 416.149 577.466 416.541 577.466C416.932 577.466 417.25 577.149 417.25 576.758ZM564.664 575.087C563.74 575.087 562.992 575.835 562.992 576.758C562.992 577.68 563.74 578.428 564.664 578.428C565.588 578.428 566.337 577.68 566.337 576.758C566.337 575.835 565.588 575.087 564.664 575.087ZM564.664 579.829C564.273 579.829 563.955 580.146 563.955 580.537C563.955 580.928 564.273 581.246 564.664 581.246C565.056 581.246 565.373 580.928 565.373 580.537C565.373 580.146 565.056 579.829 564.664 579.829ZM569.914 574.881H575.656C575.371 573.203 574.711 571.653 573.765 570.32L569.704 574.376C569.782 574.54 569.852 574.709 569.914 574.881ZM564.664 558.515C554.581 558.515 546.407 566.683 546.407 576.758C546.407 586.832 554.581 595 564.664 595C574.747 595 582.922 586.832 582.922 576.758C582.922 566.683 574.747 558.515 564.664 558.515ZM564.664 589.788C557.462 589.788 551.623 583.954 551.623 576.758C551.623 569.561 557.462 563.727 564.664 563.727C571.867 563.727 577.705 569.561 577.705 576.758C577.705 583.954 571.867 589.788 564.664 589.788ZM569.704 579.139L573.764 583.195C574.71 581.862 575.371 580.312 575.656 578.634H569.914C569.852 578.807 569.782 578.975 569.704 579.139ZM605.49 566.651C605.151 566.153 604.178 565.932 603.891 565.454C603.509 564.814 603.523 563.518 603.226 562.793C600.735 556.715 597.992 554.854 594.436 552.68C589.444 549.628 584.114 548.364 578.19 546.16C578.475 546.266 569.256 543.757 567.004 543.366C565.619 542.912 560.621 541.469 559.413 541.902C558.086 540.532 555.744 539.859 554.086 538.842C551.411 537.2 548.653 535.433 545.963 533.786C544.526 532.905 543.013 532.403 541.569 531.524C537.83 529.246 529.583 525.536 529.583 525.536C529.583 525.536 499.175 508.421 392.021 517.818C390.726 517.944 389.134 517.856 388.159 518.484C388.026 518.528 387.892 518.572 387.759 518.617C387.783 519.646 388.263 522.888 387.759 523.673C387.607 524.855 385.321 526.679 384.563 527.532C382.797 529.52 380.943 531.662 379.37 533.785C378.647 534.761 377.956 536.145 376.972 536.846C376.663 537.154 374.911 539.726 374.176 540.838C373.479 541.891 372.107 544.536 371.779 545.761C371.099 548.296 372.041 551.498 372.445 553.478C372.476 553.629 372.381 557.696 372.445 559.466C371.993 561.086 370.954 562.837 370.314 564.389C369.598 566.123 369.452 567.498 368.05 568.514C367.867 572.16 368.128 575.556 369.781 577.695C370.773 578.978 374.577 584.88 374.577 584.88H402.554C401.42 582.407 400.787 579.656 400.787 576.757C400.787 565.977 409.533 557.238 420.322 557.238C431.112 557.238 439.858 565.977 439.858 576.757C439.858 579.656 439.225 582.407 438.09 584.88H546.895C545.761 582.407 545.127 579.656 545.127 576.757C545.127 565.977 553.874 557.238 564.663 557.238C575.452 557.238 584.199 565.977 584.199 576.757C584.199 579.656 583.565 582.407 582.431 584.88H596.7C596.7 584.88 608.271 584.219 604.025 581.021C604.481 579.95 604.556 578.347 605.356 577.296C605.589 577.127 606.064 577.059 606.422 577.03C607.684 574.31 606.654 568.367 605.49 566.651ZM390.822 538.31C390.822 538.31 392.273 536.952 392.953 536.447C394.892 535.004 396.675 533.363 398.679 531.923C401.845 529.647 405.642 526.303 409.333 524.738C411.719 523.726 414.458 523.937 417.323 523.274C419.586 522.75 422.411 522.87 424.78 522.343C424.518 522.343 430.773 522.077 430.506 522.077C430.24 522.077 434.452 521.663 436.232 521.677C436.232 528.33 437.032 533.388 437.032 540.04C406.328 538.66 390.822 538.31 390.822 538.31ZM445.687 539.773L444.489 521.278C444.489 521.278 454.489 520.447 464.197 520.414C474.129 520.381 483.773 521.145 483.773 521.145L485.771 541.902L445.687 539.773ZM496.691 542.7C496.691 542.7 493.628 521.54 493.628 521.408C493.628 521.275 511.695 523.761 519.196 526.866C521.856 527.967 525.048 529.123 527.453 530.592C528.722 531.368 531.848 532.987 531.848 532.987L532.647 545.628L496.691 542.7ZM562.281 571.722C562.445 571.644 562.613 571.574 562.786 571.512V565.775C561.106 566.06 559.555 566.72 558.221 567.665L562.281 571.722ZM566.543 582.003V587.74C568.222 587.456 569.773 586.796 571.107 585.85L567.048 581.793C566.883 581.871 566.715 581.942 566.543 582.003ZM567.738 576.758C567.738 577.149 568.056 577.466 568.447 577.466C568.839 577.466 569.156 577.149 569.156 576.758C569.156 576.366 568.839 576.049 568.447 576.049C568.056 576.049 567.738 576.366 567.738 576.758ZM561.59 576.758C561.59 576.366 561.273 576.049 560.882 576.049C560.49 576.049 560.173 576.366 560.173 576.758C560.173 577.149 560.49 577.466 560.882 577.466C561.273 577.466 561.59 577.149 561.59 576.758ZM564.664 573.686C565.056 573.686 565.373 573.369 565.373 572.978C565.373 572.587 565.056 572.27 564.664 572.27C564.273 572.27 563.955 572.587 563.955 572.978C563.955 573.369 564.273 573.686 564.664 573.686ZM571.107 567.665C569.773 566.72 568.222 566.06 566.543 565.775V571.512C566.715 571.574 566.883 571.645 567.047 571.722L571.107 567.665ZM558.221 585.85C559.555 586.795 561.106 587.456 562.786 587.74V582.003C562.613 581.941 562.445 581.871 562.281 581.793L558.221 585.85ZM559.415 578.635H553.672C553.957 580.313 554.617 581.863 555.564 583.196L559.624 579.139C559.546 578.975 559.477 578.807 559.415 578.635ZM559.624 574.377L555.564 570.32C554.618 571.653 553.958 573.203 553.673 574.881H559.415C559.476 574.708 559.547 574.54 559.624 574.377Z" fill="#1B88BF"/>
</g>
<path d="M387.006 681.96H423.365V759.921H369.691L387.006 681.96Z" fill="white"/>
<path d="M439.816 681.96H476.176L506.476 759.921H452.802L439.816 681.96Z" fill="white"/>
<path d="M167.118 681.961H203.477L90.9352 759.921H41.5898L167.118 681.961Z" fill="white"/>
<path d="M493.49 681.96H529.85L590.45 759.921H536.776L493.49 681.96Z" fill="white"/>
<path d="M224.254 681.96H260.614L178.372 759.921H120.369L224.254 681.96Z" fill="white"/>
<path d="M551.494 681.96H587.421L683.082 759.921H620.751L551.494 681.96Z" fill="white"/>
<path d="M278.794 681.96H315.154L258.882 759.921H209.537L278.794 681.96Z" fill="white"/>
<path d="M609.496 681.96H645.856L771.384 759.921H709.053L609.496 681.96Z" fill="white"/>
<path d="M333.335 681.96H369.694L335.066 759.921H285.721L333.335 681.96Z" fill="white"/>
<path d="M482.483 644.244C482.483 644.244 487.549 633.516 499.895 639.881C512.242 646.247 500.252 670.635 506.675 676.642C513.169 682.65 504.32 686.584 505.676 690.946C506.961 695.238 503.25 700.172 494.615 699.6C485.979 699.028 476.916 699.457 473.062 691.948C469.137 684.367 470.065 667.774 471.564 665.414C472.991 663.054 482.483 644.244 482.483 644.244Z" fill="#131F2D"/>
<path d="M457.29 746.517L496.755 745.516C499.895 745.445 502.393 742.798 502.321 739.651L501.037 686.941C500.966 683.794 498.325 681.291 495.185 681.363L455.72 682.364C452.58 682.436 450.082 685.082 450.154 688.229L451.438 740.939C451.51 744.157 454.15 746.589 457.29 746.517Z" fill="#B05638"/>
<path d="M322.197 657.69C325.622 653.899 330.118 641.455 331.76 636.735L336.969 622.001C343.464 622.788 347.674 624.719 347.246 628.51C345.604 642.957 326.122 661.194 326.122 661.194C326.122 661.194 322.125 667.13 318.629 669.205C315.132 671.279 309.28 668.704 308.994 667.774C308.709 666.844 310.422 663.197 311.849 661.337C313.205 659.406 321.626 657.833 322.197 657.69Z" fill="#FCBF93"/>
<path d="M462.5 701.531L483.41 688.872C483.267 688.801 482.839 688.157 481.34 683.652C480.698 681.72 480.341 680.004 480.127 678.717C480.127 678.574 480.127 678.431 480.056 678.359C479.842 676.428 479.984 675.284 479.984 675.284L475.417 676.929L466.925 680.004C466.996 682.15 466.71 683.652 466.282 684.724C465.14 687.228 463.142 687.299 463.071 687.299L462.5 701.531Z" fill="#FCBF93"/>
<path d="M466.354 684.724C474.56 685.439 479.199 680.075 480.198 678.717C480.341 678.502 480.412 678.431 480.412 678.431C480.412 678.431 480.341 678.431 480.127 678.359C479.485 678.144 477.629 677.644 475.488 677L466.996 680.075C467.067 682.15 466.782 683.651 466.354 684.724Z" fill="#EF6343"/>
<path d="M465.925 681.792C465.925 681.792 484.123 683.795 484.48 671.422C484.837 659.049 487.548 653.47 474.917 652.326C462.285 651.253 459.359 655.759 458.574 659.979C456.362 672.995 460.787 681.22 465.925 681.792Z" fill="#FCBF93"/>
<path d="M473.989 658.333C480.412 656.689 477.985 668.132 479.627 667.345C481.482 666.487 484.551 666.487 484.051 668.704C483.552 670.921 482.838 671.708 482.481 673.067C482.124 674.425 482.481 677.143 483.98 676.643C485.479 676.07 499.395 660.121 489.546 647.749C479.698 635.304 450.367 642.957 459.573 655.973C461.286 658.262 469.422 659.549 473.989 658.333Z" fill="#131F2D"/>
<path d="M420.038 682.15C420.68 680.576 422.821 680.862 424.462 682.722C425.961 684.438 425.89 689.087 425.89 689.802C427.745 692.162 433.954 698.814 437.451 701.889C438.236 702.533 439.592 702.318 440.377 701.675C442.375 699.887 445.8 696.954 447.584 695.881C450.225 694.308 465.069 684.152 466.996 688.443C466.996 688.443 465.925 705.036 441.875 714.977C439.52 715.979 436.808 715.692 434.739 714.262C431.099 711.83 425.461 706.109 421.536 691.376C421.608 691.376 417.968 687.156 420.038 682.15Z" fill="#E9AA7D"/>
<path d="M450.154 835.846L459.789 838.42C459.789 838.42 465.712 817.751 466.996 803.376C467.21 801.23 467.282 799.156 467.21 797.368C466.925 789.143 484.338 754.885 472.42 747.161C464.213 741.797 452.295 746.303 452.295 746.303C452.295 746.303 450.654 789.787 450.654 797.94C450.654 799.084 450.654 800.586 450.654 802.374C450.582 813.603 450.154 835.846 450.154 835.846Z" fill="#FCBF93"/>
<path d="M468.494 748.806C468.494 748.806 476.344 793.077 478.2 802.947C478.342 803.733 478.485 804.305 478.557 804.592C479.413 808.668 483.909 836.847 483.909 836.847L493.472 836.346C493.472 836.346 496.326 815.677 495.755 800.801C495.613 797.154 495.256 793.864 494.614 791.36C491.259 778.415 499.038 746.517 486.692 739.008C474.275 731.498 468.494 748.806 468.494 748.806Z" fill="#FCBF93"/>
<path d="M493.044 690.66C493.044 690.66 506.818 718.196 510.172 721.557C513.526 724.918 525.444 735.861 529.583 738.865C529.583 738.865 542.214 742.512 541.929 744.014C541.644 745.516 533.151 745.23 532.152 745.588C531.224 745.945 534.008 748.305 531.653 748.234C530.083 748.162 528.584 745.445 527.727 743.585C527.727 743.585 506.175 733 503.035 731.355C499.824 729.639 490.261 717.623 488.62 712.545C486.978 707.468 493.044 690.66 493.044 690.66Z" fill="#FCBF93"/>
<path d="M443.232 711.187C440.662 704.821 442.161 698.313 442.161 698.313C451.082 688.229 456.648 687.299 458.575 687.299C464.855 686.155 476.416 686.941 482.768 687.514C482.768 687.442 482.768 687.37 482.768 687.37C482.768 687.37 492.973 688.157 495.827 691.519C498.753 694.952 509.03 712.188 509.03 712.188C509.03 712.188 509.529 716.408 504.819 720.985C503.178 722.63 500.823 724.275 497.54 725.848C496.684 726.277 495.827 726.42 495.042 726.349L504.534 772.551C500.966 778.344 493.615 782.134 485.194 784.423C467.638 789.286 445.444 787.784 443.731 785.138C441.947 774.052 444.516 742.012 448.084 717.766C445.729 715.978 444.159 713.547 443.232 711.187Z" fill="#F16C0B"/>
<path d="M478.199 802.946C478.342 803.733 478.485 804.305 478.556 804.591C479.412 808.668 483.908 836.847 483.908 836.847L493.471 836.346C493.471 836.346 496.326 815.677 495.755 800.801C493.186 802.017 488.119 803.304 478.199 802.946Z" fill="#364154"/>
<path d="M470.205 843.999H494.184C494.184 843.999 494.612 840.065 494.113 836.704C494.041 836.275 493.827 835.917 493.542 835.631C492.114 836.132 490.045 836.418 487.761 835.631C485.906 834.916 484.193 833.7 483.265 832.699C483.051 832.913 478.341 837.92 476.057 837.92C473.631 837.92 470.063 839.064 470.205 843.999Z" fill="#131F2D"/>
<path d="M450.154 835.846L459.789 838.42C459.789 838.42 465.712 817.751 466.996 803.376C463 803.662 456.149 803.876 450.654 802.375C450.582 813.603 450.154 835.846 450.154 835.846Z" fill="#364154"/>
<path d="M437.022 843.999H461C461 843.999 461.428 840.065 460.929 836.704C460.858 836.275 460.929 835.917 460.643 835.631C459.216 836.132 456.861 836.418 454.577 835.631C452.722 834.916 451.223 833.7 450.296 832.77C450.081 832.985 445.157 837.991 442.874 837.991C440.447 837.92 436.879 839.064 437.022 843.999Z" fill="#131F2D"/>
<path d="M485.264 784.637C493.685 782.349 501.036 778.558 504.604 772.765L495.113 726.563C495.041 726.492 474.131 768.545 485.264 784.637Z" fill="#CA5C0B"/>
<path d="M495.826 691.59C495.826 691.59 497.682 715.621 504.818 721.128C509.528 716.551 509.029 712.331 509.029 712.331C509.029 712.331 498.681 695.023 495.826 691.59Z" fill="#CA5C0B"/>
<path d="M443.23 711.187C444.23 713.618 445.657 716.05 448.155 718.053C448.797 715.907 450.081 711.044 448.511 710.185C446.513 709.041 443.23 711.187 443.23 711.187Z" fill="#CA5C0B"/>
<path d="M421.608 680.362C420.181 679.432 418.754 676.642 418.254 675.57C413.83 664.484 408.691 642.885 406.979 638.952C406.336 637.521 405.195 630.727 403.625 621.93C400.841 606.196 396.845 584.096 392.92 575.37C392.42 574.298 391.064 573.439 389.28 572.653C384.57 570.65 376.863 569.72 375.007 569.506C373.081 567.932 370.44 561.353 370.44 551.268L369.584 551.411L355.097 554.272C355.097 554.272 355.453 558.849 355.453 563.141C355.453 566.717 355.239 570.078 354.454 570.507C353.384 570.579 352.813 570.65 352.813 570.65C352.813 570.65 340.752 587.457 339.753 603.049C338.754 618.64 349.387 625.434 339.682 656.617C329.762 688.443 397.273 668.346 393.562 660.05C386.854 644.959 383.642 640.668 383.5 635.948C383.428 632.586 384.856 629.01 387.71 621.358C387.996 622.287 388.21 623.217 388.424 624.147C390.065 630.155 391.421 635.447 391.992 638.165C393.705 646.39 412.688 677.858 412.688 677.858C412.688 677.858 413.259 678.216 413.901 680.147C414.543 682.078 419.896 692.234 422.251 692.234C424.534 692.234 425.034 688.801 425.534 686.584C425.962 684.295 423.393 681.506 421.608 680.362Z" fill="#FCBF93"/>
<path d="M389.21 510.86C385.998 508.857 380.86 511.217 380.86 511.217C382.644 508.714 389.067 509.572 389.067 509.572C376.15 506.855 373.509 515.079 373.295 515.866C363.946 507.427 349.031 525.45 349.031 525.45L370.512 553.915C370.512 553.915 372.439 549.409 375.079 550.768C379.076 552.985 386.926 544.045 384.428 532.316C384.143 531.028 383.857 529.884 383.5 528.811C384.357 529.169 385.284 529.455 386.141 529.455C388.496 529.455 391.993 523.447 392.492 521.445C392.992 519.442 392.421 512.791 389.21 510.86Z" fill="#131F2D"/>
<path d="M355.168 554.272C355.168 554.272 355.525 558.849 355.525 563.141C363.589 562.855 367.871 555.488 369.584 551.411L355.168 554.272Z" fill="#EF6343"/>
<path d="M371.083 549.838C371.083 549.838 375.293 543.115 376.364 537.394C377.078 533.317 375.008 518.083 359.807 520.3C359.807 520.3 355.383 520.729 351.244 523.519C347.961 525.736 343.179 530.599 348.532 543.83L349.888 548.336L371.083 549.838Z" fill="#131F2D"/>
<path d="M352.457 558.349C352.457 558.349 371.583 558.635 371.583 546.691C371.583 534.747 374.081 526.737 361.877 526.022C349.674 525.307 347.247 529.884 346.32 533.889C345.321 537.823 347.461 557.92 352.457 558.349Z" fill="#FCBF93"/>
<path d="M376.578 804.734C371.796 823.902 364.517 838.635 364.517 838.635L358.237 838.206C358.237 838.206 361.306 823.473 361.163 803.519C361.02 789.572 359.307 773.123 353.812 757.388C334.901 703.319 337.969 663.984 337.969 663.984L373.509 668.132L375.15 668.346C375.293 684.724 375.721 706.895 376.078 724.203C376.435 739.794 376.72 751.524 376.72 751.524C383.5 766.257 381.002 787.069 376.578 804.734Z" fill="#131F2D"/>
<path d="M388.851 618.211C385.283 628.152 383.428 632.157 383.499 635.948C372.081 618.211 351.385 615.565 351.385 615.565L390.564 611.059C390.279 613.419 389.708 615.851 388.851 618.211Z" fill="#CB7D45"/>
<path d="M396.987 801.659C394.917 823.473 385.925 837.633 385.925 837.633L382.928 839.851C382.928 839.851 380.073 824.474 378.075 806.165C376.148 788.785 373.508 770.333 370.51 764.755C358.664 742.441 355.096 658.333 355.096 658.333L391.064 656.545C394.703 662.625 396.273 672.637 396.63 684.009C397.558 712.688 390.849 750.165 389.85 755.6C389.779 756.029 389.922 756.459 390.064 756.816C397.272 770.977 398.343 787.284 396.987 801.659Z" fill="#364154"/>
<path d="M366.444 541.828C374.508 543.902 378.005 541.756 378.005 541.756C378.005 541.756 381.502 527.095 374.651 521.802C364.731 514.149 353.741 524.877 353.313 525.521C352.028 524.448 349.816 523.662 346.89 527.238C342.465 532.602 346.391 542.185 346.391 542.185C348.246 542.4 348.674 536.106 349.602 533.102C350.316 530.885 352.599 528.596 353.741 527.524C354.098 528.883 357.952 542.328 367.586 546.762C367.586 546.762 363.161 542.829 359.878 537.393C361.805 539.467 363.946 541.184 366.444 541.828Z" fill="#131F2D"/>
<path d="M398.058 670.921C398.129 672.137 398.058 673.138 397.844 673.782C397.059 676.213 394.418 677.286 388.067 676.643C384.213 676.213 382.429 669.705 381.644 664.127C379.289 672.065 376.006 676.571 371.796 677.501C365.658 678.86 334.543 682.65 332.474 667.846C330.262 651.539 336.97 622.717 337.327 607.125C336.399 601.618 336.114 596.826 336.185 592.678C336.47 581.593 339.682 575.371 342.18 572.867C342.893 572.295 343.607 572.009 346.461 571.508C347.889 571.294 349.887 571.008 352.741 570.579C352.741 570.579 353.883 570.436 353.883 570.507C353.384 571.437 346.319 582.165 346.89 584.883C347.46 587.743 372.438 585.169 374.151 583.595C375.864 582.022 378.575 569.864 378.575 569.864C378.575 569.864 387.425 570.865 391.778 574.012C391.778 574.012 391.778 574.012 391.707 574.083C392.206 574.441 392.634 574.87 392.848 575.299C397.487 584.096 402.054 606.339 405.337 622.216C397.487 626.579 390.636 625.291 388.495 624.719C391.35 642.957 397.63 662.553 398.058 670.921Z" fill="#FED500"/>
<path d="M396.989 801.659C394.919 823.473 385.927 837.634 385.927 837.634L382.859 840.423C382.859 840.423 380.075 824.402 378.006 806.093C380.147 806.308 389.567 806.666 396.989 801.659Z" fill="#FCBF93"/>
<path d="M376.577 804.735C371.796 823.902 364.516 838.635 364.516 838.635L358.236 838.206C358.236 838.206 361.305 823.473 361.162 803.519C363.303 804.592 367.728 805.736 376.577 804.735Z" fill="#FCBF93"/>
<path d="M368.155 843.927H364.159C362.803 843.713 361.804 843.355 360.448 843.141C358.378 842.854 357.379 843.713 357.165 843.927L357.094 843.999H339.966C339.538 843.355 339.966 841.925 340.323 840.923C340.609 840.208 341.18 839.636 341.893 839.421C343.677 838.921 347.317 838.42 350.528 835.488C352.384 833.843 359.449 829.337 359.449 829.337H359.52C359.663 829.337 360.448 829.552 363.588 832.269C365.229 833.7 368.084 830.267 368.084 830.267C368.084 830.267 368.584 830.696 369.012 831.554C369.297 832.198 369.583 833.056 369.369 834.201C369.083 835.774 369.939 838.635 370.582 840.566C371.01 841.71 371.295 842.568 371.295 842.568C371.295 842.568 371.652 843.498 368.155 843.927Z" fill="#131F2D"/>
<path d="M369.082 831.554C368.155 832.198 366.085 833.557 364.729 833.771C362.945 833.986 359.52 829.337 359.52 829.337H359.591C359.734 829.337 360.519 829.552 363.659 832.269C365.3 833.7 368.155 830.267 368.155 830.267C368.155 830.267 368.726 830.696 369.082 831.554Z" fill="#131F2D"/>
<path d="M368.155 843.927H364.159C362.803 843.713 361.804 843.355 360.448 843.14C358.378 842.854 357.379 843.713 357.165 843.927L357.094 843.999H339.966C339.538 843.355 339.966 841.925 340.323 840.923C340.823 840.494 340.965 842.926 341.251 843.355C341.536 843.784 355.238 843.498 356.023 842.926C356.808 842.354 359.163 841.352 362.518 842.139C365.372 842.854 369.654 841.066 370.653 840.566C371.081 841.71 371.367 842.568 371.367 842.568C371.367 842.568 371.652 843.498 368.155 843.927Z" fill="#131F2D"/>
<path d="M389.638 843.927H385.641C384.285 843.713 383.286 843.355 381.93 843.141C379.861 842.854 378.862 843.713 378.648 843.927L378.576 843.999H361.449C361.021 843.355 361.449 841.925 361.806 840.923C362.091 840.208 362.662 839.636 363.376 839.421C365.16 838.921 368.799 838.42 372.011 835.488C373.866 833.843 380.931 829.337 380.931 829.337H381.003C381.145 829.337 381.93 829.552 385.142 832.269C386.783 833.7 389.638 830.267 389.638 830.267C389.638 830.267 390.137 830.696 390.566 831.554C390.851 832.198 391.136 833.056 390.922 834.201C390.637 835.774 391.493 838.635 392.136 840.566C392.564 841.71 392.849 842.568 392.849 842.568C392.849 842.568 393.135 843.498 389.638 843.927Z" fill="#131F2D"/>
<path d="M390.637 831.554C389.709 832.198 387.64 833.557 386.284 833.771C384.5 833.986 381.074 829.337 381.074 829.337H381.146C381.288 829.337 382.073 829.552 385.285 832.269C386.926 833.7 389.781 830.267 389.781 830.267C389.781 830.267 390.209 830.696 390.637 831.554Z" fill="#131F2D"/>
<path d="M389.638 843.927H385.641C384.285 843.713 383.286 843.355 381.93 843.14C379.861 842.854 378.862 843.713 378.648 843.927L378.576 843.999H361.449C361.021 843.355 361.449 841.925 361.806 840.923C362.305 840.494 362.448 842.926 362.733 843.355C363.019 843.784 376.721 843.498 377.506 842.926C378.291 842.354 380.646 841.352 384 842.139C386.855 842.854 391.136 841.066 392.136 840.566C392.564 841.71 392.849 842.568 392.849 842.568C392.849 842.568 393.135 843.498 389.638 843.927Z" fill="#131F2D"/>
<path d="M398.057 670.921C393.775 669.491 388.28 665.7 381.714 657.189C364.301 634.589 380.216 608.055 382.357 607.554C384.498 607.054 388.494 624.719 388.494 624.719C391.349 642.957 397.629 662.553 398.057 670.921Z" fill="#E2BF04"/>
<path d="M448.154 718.053C448.154 718.053 454.649 692.448 463.426 686.798C463.426 686.798 458.431 686.441 457.717 687.728C450.438 700.387 445.799 715.692 448.154 718.053Z" fill="#B05638"/>
<path d="M486.762 687.943C486.762 687.943 483.408 709.899 495.255 726.635C495.255 726.635 495.255 726.706 495.326 726.706L497.181 735.289C497.253 735.503 496.967 735.646 496.825 735.503C493.756 733.143 478.341 719.411 482.837 687.37C482.766 687.442 484.336 686.727 486.762 687.943Z" fill="#B05638"/>
<path d="M266.628 834.916C266.628 834.916 265.13 837.919 261.704 838.635C259.563 839.135 257.708 840.208 256.637 841.781C255.709 843.069 256.637 844.928 258.207 844.928H275.406C276.905 844.928 278.047 843.641 277.833 842.211C277.69 840.923 277.547 839.421 277.547 838.277C277.404 835.774 274.907 833.771 274.907 833.771L266.628 834.916Z" fill="#131F2D"/>
<path d="M262.776 791.503C262.062 804.591 263.846 834.415 263.846 834.415C263.846 834.415 265.059 837.705 272.624 838.563C276.692 838.992 280.331 837.919 280.331 837.919C281.83 830.839 283.257 824.116 284.542 817.751C293.891 771.764 297.53 743.37 297.53 743.37L260.635 734.788C260.635 734.788 262.276 760.75 262.704 778.415C262.847 783.85 262.918 788.571 262.776 791.503Z" fill="#364154"/>
<path d="M260.635 734.717C260.635 734.717 262.276 760.678 262.704 778.344L284.542 817.679C293.891 771.692 297.53 743.299 297.53 743.299L260.635 734.717Z" fill="#131F2D"/>
<path d="M297.744 675.284C297.744 675.284 312.017 668.775 322.793 674.497C333.569 680.218 327.003 727.207 311.517 731.784C311.589 731.784 282.615 741.01 297.744 675.284Z" fill="#75311B"/>
<path d="M256.423 745.659C256.495 745.587 256.495 745.516 256.566 745.444C256.923 744.944 257.494 743.656 257.922 742.655C255.067 728.566 256.994 720.412 256.994 720.412C256.637 716.336 254.211 687.656 259.849 674.354C262.561 667.917 267.128 667.917 267.128 667.917C267.128 667.917 266.058 678.144 266.771 683.651C267.414 688.729 262.632 736.004 261.847 743.799L261.633 751.667L259.349 751.094C259.278 751.094 259.135 751.023 259.064 751.023C258.778 750.88 258.564 750.665 258.35 750.379L256.495 747.447C256.067 746.946 256.067 746.231 256.423 745.659ZM260.848 744.372L260.777 744.3L260.848 744.372C260.777 744.443 260.777 744.443 260.848 744.372Z" fill="#E9AA7D"/>
<path d="M296.603 834.916C296.603 834.916 295.104 837.919 291.679 838.635C289.538 839.135 287.682 840.208 286.612 841.781C285.684 843.069 286.612 844.928 288.182 844.928H305.381C306.879 844.928 308.021 843.641 307.807 842.211C307.664 840.923 307.522 839.421 307.522 838.277C307.379 835.774 304.881 833.771 304.881 833.771L296.603 834.916Z" fill="#131F2D"/>
<path d="M273.838 664.77L288.539 672.28L291.465 662.052C291.465 662.052 289.609 658.548 288.753 652.755C288.396 650.323 288.254 647.462 288.468 644.387L276.55 650.538C276.55 650.538 276.835 651.61 277.049 653.255C277.263 655.043 277.335 657.404 276.835 659.692C276.336 661.623 275.408 663.483 273.838 664.77Z" fill="#FCBF93"/>
<path d="M307.806 738.722C307.806 738.722 310.589 775.769 309.947 834.844C309.947 834.844 306.592 836.632 302.525 836.99C294.96 837.777 293.105 834.701 293.105 834.701C293.105 834.701 285.397 805.879 283.47 792.934C281.686 780.99 269.982 737.792 269.982 737.792L307.806 738.722Z" fill="#364154"/>
<path d="M264.131 665.843C265.416 665.199 269.555 663.554 275.692 662.553C275.621 664.699 276.192 666.63 279.903 667.13C284.827 667.774 289.252 664.413 291.464 662.124C291.464 662.124 294.961 662.481 298.957 663.411C300.956 663.84 303.168 664.413 305.095 665.128C307.45 665.986 309.519 667.059 310.59 668.418C314.372 673.066 320.581 687.084 320.581 687.084C320.581 687.084 310.233 690.946 307.592 693.163L307.521 693.664L305.88 707.181L310.732 734.073C310.804 734.287 310.804 734.573 310.804 734.788C310.804 736.576 309.591 738.221 307.807 738.65C307.807 738.65 307.378 738.722 306.593 738.793C301.455 739.508 280.688 742.012 264.345 737.577C260.706 736.576 258.279 733.072 258.565 729.281L261.205 695.81C259.778 695.595 258.137 695.309 256.781 695.166C255.639 695.023 254.783 695.023 254.426 695.095C254.497 695.166 256.353 669.061 264.131 665.843Z" fill="#2AD38C"/>
<path d="M294.89 715.478C295.104 724.847 301.242 735.932 306.594 738.865C307.379 738.793 307.807 738.722 307.807 738.722C309.591 738.292 310.804 736.648 310.804 734.86C310.804 734.645 310.804 734.359 310.733 734.144L305.88 707.253L307.522 693.736C307.45 693.521 307.379 693.378 307.379 693.378C307.379 693.378 294.533 698.885 294.89 715.478Z" fill="#131F2D"/>
<path d="M256.852 695.238C258.207 695.381 261.276 695.881 261.276 695.881L262.846 681.863C262.775 681.863 257.637 691.733 256.852 695.238Z" fill="#131F2D"/>
<path d="M309.948 729.352V723.059C288.682 692.234 285.827 686.012 295.39 672.137C298.102 668.203 303.097 665.7 305.167 665.128C303.24 664.413 301.028 663.84 299.03 663.411C297.031 664.341 295.176 665.271 293.749 666.558C264.418 691.876 309.948 729.352 309.948 729.352Z" fill="#75311B"/>
<path d="M285.112 689.731C293.462 690.303 294.603 698.885 294.603 698.885C294.603 698.885 308.591 700.172 310.66 701.102C310.66 701.102 309.519 698.027 307.52 693.378C309.376 691.59 315.299 688.944 319.296 687.656C322.293 695.381 323.506 703.033 321.793 710.4C321.579 711.187 320.937 711.759 320.152 711.759C315.727 711.973 301.026 711.902 290.25 702.962L290.036 702.89C287.467 702.747 285.04 700.172 284.113 696.811C283.185 693.45 283.114 694.451 282.4 692.091C281.615 689.802 285.112 689.731 285.112 689.731Z" fill="#FCBF93"/>
<path d="M276.764 659.692C283.543 659.478 288.753 652.826 288.753 652.826L276.978 653.327C277.12 655.043 277.263 657.404 276.764 659.692Z" fill="#EF6343"/>
<path d="M276.12 655.616C276.12 655.616 291.106 657.475 291.463 646.819C291.749 636.234 285.54 629.368 281.329 629.439C272.98 629.582 271.624 632.944 270.625 636.448C269.697 639.953 269.197 654.829 276.12 655.616Z" fill="#FCBF93"/>
<path d="M292.281 647.719C292.281 647.719 291.005 633.718 275.724 634.215C260.468 634.711 267.06 620.528 280.189 618.438C280.189 618.438 278.807 623.427 287.072 624.237C304.4 625.882 293.823 645.499 292.281 647.719Z" fill="#131F2D"/>
<path d="M277.518 633.356C277.518 633.356 290.363 633.356 287.366 642.153C285.51 647.732 291.719 648.59 291.719 648.59L294.716 639.65L292.861 632.712L277.518 633.356Z" fill="#131F2D"/>
<defs>
<linearGradient id="paint0_linear_232_13289" x1="-3.41585e-06" y1="739.156" x2="1493.97" y2="262.318" gradientUnits="userSpaceOnUse">
<stop stop-color="#0873AF"/>
<stop offset="1" stop-color="#38B7ED"/>
</linearGradient>
<linearGradient id="paint1_linear_232_13289" x1="1.52673e-05" y1="739.066" x2="1493.13" y2="262.753" gradientUnits="userSpaceOnUse">
<stop stop-color="#0D9834"/>
<stop offset="1" stop-color="#CD4DD6"/>
</linearGradient>
<linearGradient id="paint2_linear_232_13289" x1="542" y1="189" x2="542" y2="629" gradientUnits="userSpaceOnUse">
<stop offset="0.482292" stop-color="#D0EBFF"/>
<stop offset="1" stop-color="#228EC6"/>
</linearGradient>
</defs>
</svg>
