<svg width="1920" height="1229" viewBox="0 0 1920 1229" fill="none" xmlns="http://www.w3.org/2000/svg">
<path d="M1696 224C1788.4 278.8 1900.17 280.833 1944.5 275V384.5C1810.5 374.1 1644.5 545 1598 612C1551.5 679 1439.5 755.5 1335.5 755.5C1217.69 755.5 1208 900.5 1141.5 941.5C1075 982.5 946.971 1146.19 538 1048.5C257.5 981.5 61 1171.5 -3 1229V1014.5V-5.5H421.5C568.5 57.5 527.586 140.326 749 224C921 289 1003.5 246 1207.5 168C1452.36 74.3751 1580.5 155.5 1696 224Z" fill="url(#paint0_linear_227_10759)"/>
<mask id="mask0_227_10759" style="mask-type:alpha" maskUnits="userSpaceOnUse" x="-3" y="-6" width="1948" height="1230">
<path d="M1696 224C1788.4 278.8 1900.17 280.833 1944.5 275V384.5C1810.5 374.1 1644.5 545 1598 612C1551.5 679 1439.5 755.5 1335.5 755.5C1217.69 755.5 1236 886 1169.5 927C1103 968 939.5 1158.38 470 1037C281 988.137 52.5 1180.5 -3 1224V1014.5V-5.5H421.5C541.5 41.5 524.5 149 749 224C973.5 299 959 251.5 1207.5 168C1456 84.5 1580.5 155.5 1696 224Z" fill="url(#paint1_linear_227_10759)"/>
</mask>
<g mask="url(#mask0_227_10759)">
<path opacity="0.2" d="M1909 258.679V814H-26V224.624H67.6674V322.874H199.883V274.105H250.904V91.8459H300.143V274.105H362.152V104.186H531.787V236.668H661.27V34H791.466V377.16H922.79V233.346H1086.9V129.579H1188.77V227.116H1283.86V192.112H1482.89V295.463H1638.33V195.969H1761.22V325.899H1840.69V258.679H1909Z" fill="url(#paint2_linear_227_10759)"/>
<path d="M260.435 687.571C259.878 687.571 259.426 688.019 259.426 688.571C259.426 689.124 259.878 689.572 260.435 689.572C260.992 689.572 261.443 689.124 261.443 688.571C261.443 688.019 260.992 687.571 260.435 687.571ZM260.435 680.872C259.121 680.872 258.056 681.929 258.056 683.232C258.056 684.536 259.121 685.593 260.435 685.593C261.749 685.593 262.814 684.536 262.814 683.232C262.814 681.929 261.749 680.872 260.435 680.872ZM257.045 676.12C257.278 676.01 257.517 675.911 257.762 675.824V667.72C255.373 668.122 253.167 669.054 251.269 670.39L257.045 676.12ZM260.435 657.465C246.091 657.465 234.462 669.002 234.462 683.232C234.462 697.463 246.09 709 260.435 709C274.78 709 286.408 697.463 286.408 683.232C286.408 669.002 274.78 657.465 260.435 657.465ZM260.435 701.638C250.189 701.638 241.883 693.398 241.883 683.232C241.883 673.068 250.189 664.827 260.435 664.827C270.681 664.827 278.987 673.067 278.987 683.232C278.987 693.398 270.681 701.638 260.435 701.638ZM263.107 690.642V698.746C265.496 698.343 267.703 697.412 269.601 696.076L263.825 690.346C263.592 690.455 263.353 690.555 263.107 690.642ZM267.903 680.581H276.072C275.666 678.211 274.727 676.022 273.381 674.139L267.605 679.869C267.716 680.1 267.815 680.338 267.903 680.581ZM267.605 686.596L273.381 692.326C274.727 690.443 275.667 688.254 276.072 685.884H267.903C267.815 686.127 267.715 686.364 267.605 686.596ZM251.269 696.075C253.167 697.411 255.373 698.343 257.763 698.746V690.642C257.517 690.555 257.279 690.455 257.045 690.345L251.269 696.075ZM264.808 683.232C264.808 683.785 265.259 684.233 265.816 684.233C266.373 684.233 266.825 683.785 266.825 683.232C266.825 682.68 266.373 682.232 265.816 682.232C265.259 682.232 264.808 682.68 264.808 683.232ZM269.601 670.39C267.703 669.055 265.496 668.122 263.107 667.72V675.824C263.352 675.911 263.591 676.011 263.824 676.12L269.601 670.39ZM260.435 678.894C260.992 678.894 261.443 678.446 261.443 677.894C261.443 677.341 260.992 676.893 260.435 676.893C259.878 676.893 259.426 677.341 259.426 677.894C259.426 678.446 259.878 678.894 260.435 678.894ZM252.967 685.884H244.798C245.203 688.254 246.142 690.444 247.489 692.326L253.265 686.597C253.154 686.365 253.056 686.127 252.967 685.884ZM253.265 679.869L247.49 674.139C246.143 676.022 245.203 678.212 244.798 680.582H252.967C253.055 680.338 253.155 680.101 253.265 679.869ZM256.062 683.232C256.062 682.68 255.611 682.232 255.054 682.232C254.497 682.232 254.045 682.68 254.045 683.232C254.045 683.785 254.496 684.233 255.054 684.233C255.611 684.233 256.062 683.785 256.062 683.232ZM465.773 680.872C464.459 680.872 463.394 681.929 463.394 683.232C463.394 684.536 464.459 685.593 465.773 685.593C467.087 685.593 468.152 684.536 468.152 683.232C468.152 681.929 467.087 680.872 465.773 680.872ZM465.773 687.571C465.216 687.571 464.765 688.019 464.765 688.571C464.765 689.124 465.216 689.572 465.773 689.572C466.33 689.572 466.782 689.124 466.782 688.571C466.782 688.019 466.33 687.571 465.773 687.571ZM473.241 680.581H481.411C481.005 678.211 480.066 676.022 478.719 674.139L472.944 679.869C473.054 680.1 473.153 680.338 473.241 680.581ZM465.773 657.465C451.429 657.465 439.8 669.002 439.8 683.232C439.8 697.463 451.429 709 465.773 709C480.118 709 491.746 697.463 491.746 683.232C491.746 669.002 480.118 657.465 465.773 657.465ZM465.773 701.638C455.528 701.638 447.221 693.398 447.221 683.232C447.221 673.068 455.527 664.827 465.773 664.827C476.019 664.827 484.325 673.067 484.325 683.232C484.325 693.398 476.019 701.638 465.773 701.638ZM472.943 686.596L478.719 692.326C480.065 690.443 481.004 688.254 481.41 685.884H473.241C473.154 686.127 473.053 686.364 472.943 686.596ZM523.851 668.957C523.37 668.254 521.985 667.941 521.578 667.266C521.033 666.363 521.054 664.532 520.63 663.507C517.088 654.923 513.185 652.294 508.127 649.223C501.025 644.911 493.443 643.127 485.015 640.014C485.421 640.164 472.306 636.62 469.102 636.067C467.132 635.426 460.021 633.387 458.303 633.999C456.415 632.064 453.083 631.113 450.725 629.677C446.92 627.358 442.995 624.861 439.169 622.535C437.124 621.291 434.972 620.582 432.918 619.339C427.6 616.123 415.868 610.882 415.868 610.882C415.868 610.882 372.609 586.707 220.171 599.981C218.33 600.159 216.065 600.034 214.678 600.921C214.488 600.983 214.299 601.046 214.109 601.108C214.143 602.563 214.826 607.142 214.109 608.25C213.893 609.921 210.64 612.496 209.563 613.701C207.051 616.509 204.412 619.535 202.174 622.534C201.146 623.913 200.164 625.867 198.764 626.857C198.324 627.293 195.831 630.925 194.786 632.496C193.795 633.984 191.843 637.719 191.376 639.449C190.409 643.03 191.748 647.553 192.323 650.35C192.367 650.563 192.233 656.308 192.323 658.808C191.681 661.096 190.203 663.57 189.292 665.762C188.274 668.212 188.065 670.154 186.071 671.588C185.811 676.738 186.182 681.535 188.534 684.557C189.945 686.369 195.356 694.706 195.356 694.706H235.157C233.543 691.212 232.642 687.327 232.642 683.232C232.642 668.004 245.085 655.661 260.433 655.661C275.782 655.661 288.224 668.004 288.224 683.232C288.224 687.327 287.324 691.212 285.71 694.706H440.495C438.881 691.212 437.98 687.327 437.98 683.232C437.98 668.004 450.423 655.661 465.772 655.661C481.12 655.661 493.563 668.004 493.563 683.232C493.563 687.327 492.662 691.212 491.048 694.706H511.347C511.347 694.706 527.808 693.772 521.767 689.255C522.417 687.742 522.523 685.478 523.662 683.993C523.993 683.754 524.668 683.658 525.177 683.617C526.973 679.776 525.508 671.381 523.851 668.957ZM218.467 628.925C218.467 628.925 220.531 627.008 221.498 626.294C224.256 624.256 226.793 621.938 229.644 619.903C234.148 616.689 239.549 611.965 244.8 609.754C248.194 608.325 252.092 608.623 256.166 607.687C259.386 606.947 263.404 607.116 266.775 606.371C266.403 606.371 275.3 605.996 274.921 605.996C274.542 605.996 280.534 605.411 283.067 605.432C283.067 614.829 284.204 621.972 284.204 631.368C240.525 629.42 218.467 628.925 218.467 628.925ZM296.518 630.992L294.812 604.868C294.812 604.868 309.038 603.694 322.85 603.648C336.978 603.6 350.698 604.68 350.698 604.68L353.541 634L296.518 630.992ZM369.075 635.127C369.075 635.127 364.718 605.237 364.718 605.051C364.718 604.864 390.42 608.374 401.091 612.761C404.874 614.316 409.416 615.948 412.837 618.024C414.643 619.12 419.089 621.407 419.089 621.407L420.225 639.262L369.075 635.127ZM462.383 676.12C462.616 676.01 462.856 675.911 463.101 675.824V667.72C460.712 668.122 458.505 669.054 456.607 670.39L462.383 676.12ZM468.446 690.642V698.746C470.835 698.343 473.041 697.412 474.939 696.076L469.164 690.346C468.93 690.455 468.691 690.555 468.446 690.642ZM470.146 683.232C470.146 683.785 470.598 684.233 471.155 684.233C471.712 684.233 472.163 683.785 472.163 683.232C472.163 682.68 471.712 682.232 471.155 682.232C470.598 682.232 470.146 682.68 470.146 683.232ZM461.401 683.232C461.401 682.68 460.949 682.232 460.392 682.232C459.835 682.232 459.384 682.68 459.384 683.232C459.384 683.785 459.835 684.233 460.392 684.233C460.949 684.233 461.401 683.785 461.401 683.232ZM465.773 678.894C466.33 678.894 466.782 678.446 466.782 677.894C466.782 677.341 466.33 676.893 465.773 676.893C465.216 676.893 464.765 677.341 464.765 677.894C464.765 678.446 465.216 678.894 465.773 678.894ZM474.939 670.39C473.041 669.055 470.834 668.122 468.446 667.72V675.824C468.691 675.911 468.93 676.011 469.163 676.12L474.939 670.39ZM456.608 696.075C458.505 697.411 460.712 698.343 463.101 698.746V690.642C462.855 690.555 462.617 690.455 462.383 690.345L456.608 696.075ZM458.306 685.884H450.136C450.542 688.254 451.481 690.444 452.827 692.326L458.603 686.597C458.493 686.365 458.394 686.127 458.306 685.884ZM458.604 679.869L452.828 674.139C451.482 676.022 450.542 678.212 450.137 680.582H458.306C458.393 680.338 458.494 680.101 458.604 679.869Z" fill="#167DB1"/>
<path d="M76.0815 716.145C74.7029 716.145 73.5851 717.267 73.5851 718.651C73.5851 720.034 74.7029 721.156 76.0815 721.156C77.4602 721.156 78.578 720.034 78.578 718.651C78.578 717.267 77.4606 716.145 76.0815 716.145ZM72.5251 711.101C72.7699 710.984 73.0206 710.878 73.2779 710.786V702.184C70.7716 702.611 68.4567 703.601 66.4652 705.018L72.5251 711.101ZM76.0815 723.255C75.4971 723.255 75.0236 723.73 75.0236 724.317C75.0236 724.903 75.4971 725.379 76.0815 725.379C76.6659 725.379 77.1395 724.903 77.1395 724.317C77.1398 723.73 76.6659 723.255 76.0815 723.255ZM78.8856 726.514V735.116C81.3918 734.689 83.7068 733.699 85.6982 732.282L79.6383 726.2C79.3936 726.316 79.1431 726.422 78.8856 726.514ZM83.9167 721.464C83.8244 721.722 83.7206 721.975 83.6047 722.22L89.6643 728.302C91.0771 726.304 92.0624 723.98 92.4879 721.464H83.9167ZM76.0815 691.3C61.0316 691.3 48.8312 703.545 48.8312 718.65C48.8312 733.755 61.0316 746 76.0815 746C91.1315 746 103.332 733.755 103.332 718.65C103.332 703.545 91.1315 691.3 76.0815 691.3ZM76.0815 738.186C65.3316 738.186 56.6173 729.44 56.6173 718.65C56.6173 707.861 65.3319 699.114 76.0815 699.114C86.8312 699.114 95.5461 707.861 95.5461 718.65C95.5461 729.44 86.8315 738.186 76.0815 738.186ZM80.6695 718.65C80.6695 719.236 81.143 719.712 81.7274 719.712C82.3118 719.712 82.7854 719.236 82.7854 718.65C82.7854 718.063 82.3118 717.588 81.7274 717.588C81.143 717.588 80.6695 718.063 80.6695 718.65ZM76.0815 714.045C76.6659 714.045 77.1395 713.57 77.1395 712.983C77.1395 712.397 76.6659 711.921 76.0815 711.921C75.4971 711.921 75.0236 712.396 75.0236 712.983C75.0236 713.57 75.4971 714.045 76.0815 714.045ZM85.6986 705.018C83.7071 703.601 81.3922 702.611 78.8859 702.184V710.786C79.1431 710.878 79.3939 710.984 79.639 711.1L85.6986 705.018ZM68.5591 715.08L62.4995 708.998C61.0867 710.996 60.1014 713.32 59.6759 715.836H68.2471C68.3391 715.578 68.4428 715.325 68.5591 715.08ZM68.2464 721.464H59.6759C60.1011 723.98 61.087 726.304 62.4995 728.302L68.5594 722.22C68.4435 721.974 68.3384 721.722 68.2464 721.464ZM66.4649 732.282C68.4563 733.7 70.7716 734.689 73.2779 735.116V726.514C73.0206 726.422 72.7695 726.317 72.5245 726.2L66.4649 732.282ZM71.4939 718.65C71.4939 718.063 71.0204 717.588 70.436 717.588C69.8516 717.588 69.3781 718.063 69.3781 718.65C69.3781 719.236 69.8516 719.712 70.436 719.712C71.0204 719.712 71.4939 719.236 71.4939 718.65ZM83.917 715.836H92.4876C92.062 713.32 91.0764 710.996 89.6639 708.998L83.604 715.08C83.7199 715.326 83.8251 715.578 83.917 715.836ZM279.365 714.737C277.987 714.737 276.869 715.86 276.869 717.243C276.869 718.627 277.987 719.749 279.365 719.749C280.744 719.749 281.862 718.627 281.862 717.243C281.862 715.86 280.744 714.737 279.365 714.737ZM282.17 725.107V733.708C284.676 733.282 286.991 732.292 288.982 730.875L282.922 724.792C282.677 724.909 282.427 725.015 282.17 725.107ZM279.365 721.847C278.781 721.847 278.307 722.323 278.307 722.909C278.307 723.496 278.781 723.971 279.365 723.971C279.95 723.971 280.424 723.496 280.424 722.909C280.424 722.323 279.95 721.847 279.365 721.847ZM329.885 705.766C331.202 697.502 329.836 696.789 324.385 684.605C322.905 681.296 318.993 679.283 315.829 677.551C299.294 668.498 258.009 662.886 255.326 662.829C246.921 654.428 233.161 638.628 214.694 625.989C211.249 623.632 199.101 623.266 199.101 623.266C199.101 623.266 99.4162 619.433 75.6499 625.107C73.5996 625.596 72.1746 625.425 70.4553 626.333C70.1751 626.481 65.2352 631.603 64.955 632.16C64.6813 632.704 63.0636 634.477 62.5106 635.227C58.843 640.203 54.3473 645.115 51.2043 650.562C49.8243 652.954 49.1848 655.231 47.8429 657.616C46.5514 659.912 41.8526 661.678 41.1205 665.896C40.769 667.92 38.4757 667.164 38.3702 670.19C39.4177 670.514 39.5441 670.899 40.8146 671.11C38.9773 677.816 37.8497 689.786 37.7524 691.047C37.7547 691.046 37.7568 691.045 37.7591 691.045C37.7436 691.198 37.7416 691.189 37.7524 691.047C32.0034 692.859 32.5371 703.226 32 701.348C32.6912 704.107 34.5955 707.701 35.3144 710.673C35.9302 713.219 33.8853 714.305 33.7863 716.806C34.2325 717.068 34.6624 719.815 35.0085 720.18C36.4619 724.195 47.8352 727.829 47.8352 727.829L48.962 727.83C47.9937 724.948 47.4684 721.86 47.4684 718.65C47.4684 702.789 60.2788 689.932 76.0815 689.932C91.8843 689.932 104.695 702.789 104.695 718.65C104.695 721.885 104.161 724.996 103.178 727.898L252.864 728.085C251.504 724.739 250.753 721.079 250.753 717.242C250.753 701.382 263.563 688.525 279.365 688.525C295.168 688.525 307.978 701.382 307.978 717.242C307.978 721.105 307.217 724.787 305.84 728.151L308.189 728.154C308.189 728.154 325.754 729.793 328.052 724.167C328.995 723.111 329.344 717.769 329.274 714.66C329.308 711.462 329.951 712.079 330.802 710.059C331.628 708.098 329.581 706.663 329.885 705.766ZM130.042 657.922C129.481 658.317 129.519 658.526 128.819 658.843C126.593 660.536 104.868 658.229 75.3444 658.229C75.8466 658.948 71.8884 658.328 75.0388 651.482C79.3212 642.176 85.8524 635.656 85.4927 635.525C94.1684 634.216 117.416 634.596 130.042 634.921C129.786 642.281 129.89 646.268 130.042 657.922ZM218.352 664.976C217.897 664.325 216.464 663.497 216.213 662.83C215.922 662.058 216.691 660.534 216.213 659.456C214.898 656.49 210.538 654.492 206.129 654.549C205.079 655.77 203.492 656.314 202.768 657.922C202.567 658.368 201.795 662.586 201.851 662.83C202.002 663.489 202.376 663.612 202.471 663.951C203.257 663.983 202.876 664.072 202.462 664.363C202.505 664.188 202.502 664.059 202.471 663.951C200.268 663.863 188.874 664.233 143.181 661.909C141.916 637.77 140.78 636.979 143.487 633.081C170.225 633.081 198.49 632.774 198.49 632.774C198.49 632.774 218.601 657.413 224.769 665.283C223.679 665.807 220.13 665.055 218.352 664.976ZM237.603 662.523C227.678 654.532 214.58 637.3 208.268 632.16C206.128 632.16 213.276 632.038 217.13 631.24C228.632 641.425 240.54 650.638 250.988 662.62C246.04 662.847 241.804 665.905 237.603 662.523ZM279.365 689.893C264.316 689.893 252.115 702.138 252.115 717.243C252.115 732.348 264.316 744.593 279.365 744.593C294.415 744.593 306.616 732.348 306.616 717.243C306.616 702.138 294.416 689.893 279.365 689.893ZM279.365 736.779C268.615 736.779 259.901 728.032 259.901 717.243C259.901 706.454 268.615 697.708 279.365 697.708C290.115 697.708 298.83 706.454 298.83 717.243C298.83 728.032 290.115 736.779 279.365 736.779ZM286.888 720.814L292.948 726.895C294.361 724.897 295.346 722.573 295.772 720.057H287.201C287.109 720.315 287.004 720.568 286.888 720.814ZM287.201 714.429H295.771C295.346 711.913 294.36 709.59 292.948 707.591L286.888 713.673C287.004 713.919 287.109 714.171 287.201 714.429ZM275.809 709.694C276.054 709.577 276.305 709.472 276.562 709.379V700.777C274.056 701.204 271.741 702.194 269.749 703.611L275.809 709.694ZM274.778 717.243C274.778 716.656 274.304 716.181 273.719 716.181C273.135 716.181 272.662 716.656 272.662 717.243C272.662 717.829 273.135 718.305 273.719 718.305C274.304 718.305 274.778 717.829 274.778 717.243ZM279.365 712.638C279.95 712.638 280.424 712.163 280.424 711.576C280.424 710.99 279.95 710.514 279.365 710.514C278.781 710.514 278.307 710.99 278.307 711.576C278.308 712.163 278.781 712.638 279.365 712.638ZM288.982 703.611C286.991 702.193 284.676 701.204 282.17 700.777V709.379C282.427 709.471 282.678 709.576 282.923 709.693L288.982 703.611ZM283.954 717.243C283.954 717.829 284.427 718.305 285.012 718.305C285.596 718.305 286.07 717.83 286.07 717.243C286.07 716.656 285.596 716.181 285.012 716.181C284.427 716.181 283.954 716.656 283.954 717.243ZM271.843 713.672L265.783 707.59C264.37 709.589 263.385 711.913 262.96 714.428H271.531C271.623 714.171 271.727 713.918 271.843 713.672ZM269.749 730.875C271.74 732.293 274.055 733.282 276.562 733.709V725.108C276.304 725.015 276.053 724.909 275.808 724.793L269.749 730.875ZM271.53 720.057H262.96C263.386 722.573 264.371 724.897 265.784 726.895L271.844 720.813C271.728 720.567 271.622 720.315 271.53 720.057Z" fill="#1274A8"/>
<path d="M1079.2 668.867C1077.85 668.867 1076.75 669.962 1076.75 671.312C1076.75 672.662 1077.85 673.757 1079.2 673.757C1080.55 673.757 1081.64 672.662 1081.64 671.312C1081.64 669.962 1080.55 668.867 1079.2 668.867ZM1075.71 663.945C1075.95 663.831 1076.2 663.728 1076.45 663.638V655.244C1073.99 655.661 1071.73 656.627 1069.77 658.01L1075.71 663.945ZM1079.2 675.805C1078.62 675.805 1078.16 676.269 1078.16 676.841C1078.16 677.414 1078.62 677.878 1079.2 677.878C1079.77 677.878 1080.23 677.414 1080.23 676.841C1080.23 676.269 1079.77 675.805 1079.2 675.805ZM1081.94 678.986V687.379C1084.4 686.963 1086.67 685.997 1088.62 684.614L1082.68 678.679C1082.44 678.792 1082.2 678.895 1081.94 678.986ZM1086.87 674.058C1086.78 674.31 1086.68 674.556 1086.57 674.796L1092.51 680.731C1093.89 678.78 1094.86 676.512 1095.27 674.058H1086.87ZM1079.2 644.623C1064.45 644.623 1052.49 656.572 1052.49 671.312C1052.49 686.051 1064.45 698 1079.2 698C1093.94 698 1105.9 686.051 1105.9 671.312C1105.9 656.572 1093.94 644.623 1079.2 644.623ZM1079.2 690.375C1068.66 690.375 1060.12 681.84 1060.12 671.312C1060.12 660.784 1068.66 652.249 1079.2 652.249C1089.73 652.249 1098.27 660.784 1098.27 671.312C1098.27 681.84 1089.73 690.375 1079.2 690.375ZM1083.69 671.312C1083.69 671.884 1084.16 672.348 1084.73 672.348C1085.3 672.348 1085.77 671.884 1085.77 671.312C1085.77 670.739 1085.3 670.275 1084.73 670.275C1084.16 670.275 1083.69 670.739 1083.69 671.312ZM1079.2 666.818C1079.77 666.818 1080.23 666.354 1080.23 665.782C1080.23 665.21 1079.77 664.746 1079.2 664.746C1078.62 664.746 1078.16 665.209 1078.16 665.782C1078.16 666.354 1078.62 666.818 1079.2 666.818ZM1088.62 658.01C1086.67 656.627 1084.4 655.661 1081.95 655.244V663.638C1082.2 663.728 1082.44 663.831 1082.68 663.945L1088.62 658.01ZM1071.83 667.828L1065.89 661.893C1064.5 663.843 1063.54 666.111 1063.12 668.566H1071.52C1071.61 668.314 1071.71 668.067 1071.83 667.828ZM1071.52 674.058H1063.12C1063.54 676.512 1064.5 678.78 1065.89 680.73L1071.83 674.795C1071.71 674.556 1071.61 674.31 1071.52 674.058ZM1069.77 684.614C1071.72 685.998 1073.99 686.963 1076.45 687.379V678.986C1076.2 678.896 1075.95 678.793 1075.71 678.679L1069.77 684.614ZM1074.7 671.312C1074.7 670.739 1074.24 670.275 1073.66 670.275C1073.09 670.275 1072.63 670.739 1072.63 671.312C1072.63 671.884 1073.09 672.348 1073.66 672.348C1074.24 672.348 1074.7 671.884 1074.7 671.312ZM1086.88 668.566H1095.27C1094.86 666.111 1093.89 663.843 1092.51 661.893L1086.57 667.828C1086.68 668.068 1086.79 668.314 1086.88 668.566ZM1278.4 667.494C1277.05 667.494 1275.96 668.589 1275.96 669.939C1275.96 671.289 1277.05 672.384 1278.4 672.384C1279.75 672.384 1280.85 671.289 1280.85 669.939C1280.85 668.589 1279.75 667.494 1278.4 667.494ZM1281.15 677.613V686.006C1283.61 685.589 1285.87 684.623 1287.83 683.24L1281.89 677.305C1281.65 677.419 1281.4 677.523 1281.15 677.613ZM1278.4 674.432C1277.83 674.432 1277.36 674.896 1277.36 675.468C1277.36 676.04 1277.83 676.504 1278.4 676.504C1278.97 676.504 1279.44 676.041 1279.44 675.468C1279.44 674.896 1278.97 674.432 1278.4 674.432ZM1327.91 658.739C1329.2 650.675 1327.86 649.98 1322.52 638.09C1321.07 634.862 1317.23 632.897 1314.13 631.207C1297.93 622.373 1257.47 616.897 1254.84 616.842C1246.61 608.644 1233.12 593.226 1215.03 580.893C1211.65 578.592 1199.75 578.236 1199.75 578.236C1199.75 578.236 1102.06 574.495 1078.77 580.031C1076.76 580.509 1075.37 580.342 1073.68 581.228C1073.41 581.373 1068.57 586.371 1068.29 586.914C1068.03 587.445 1066.44 589.175 1065.9 589.907C1062.3 594.762 1057.9 599.556 1054.82 604.871C1053.47 607.205 1052.84 609.427 1051.53 611.754C1050.26 613.994 1045.65 615.718 1044.94 619.834C1044.59 621.809 1042.35 621.071 1042.24 624.024C1043.27 624.341 1043.39 624.715 1044.64 624.922C1042.84 631.465 1041.73 643.146 1041.64 644.377C1041.64 644.376 1041.64 644.375 1041.64 644.374C1041.63 644.523 1041.63 644.515 1041.64 644.377C1036 646.144 1036.53 656.261 1036 654.428C1036.68 657.12 1038.54 660.628 1039.25 663.527C1039.85 666.012 1037.85 667.071 1037.75 669.513C1038.19 669.768 1038.61 672.449 1038.95 672.804C1040.37 676.723 1051.52 680.269 1051.52 680.269L1052.62 680.27C1051.67 677.457 1051.16 674.444 1051.16 671.311C1051.16 655.834 1063.71 643.288 1079.2 643.288C1094.68 643.288 1107.24 655.834 1107.24 671.311C1107.24 674.469 1106.71 677.504 1105.75 680.336L1252.43 680.518C1251.1 677.254 1250.36 673.682 1250.36 669.938C1250.36 654.462 1262.92 641.915 1278.4 641.915C1293.89 641.915 1306.44 654.462 1306.44 669.938C1306.44 673.707 1305.69 677.301 1304.34 680.583L1306.65 680.586C1306.65 680.586 1323.86 682.185 1326.11 676.695C1327.04 675.665 1327.38 670.452 1327.31 667.418C1327.34 664.297 1327.97 664.9 1328.81 662.929C1329.62 661.015 1327.61 659.614 1327.91 658.739ZM1132.07 612.053C1131.53 612.438 1131.56 612.642 1130.88 612.951C1128.7 614.603 1107.41 612.353 1078.47 612.353C1078.97 613.054 1075.09 612.449 1078.18 605.768C1082.37 596.688 1088.77 590.326 1088.42 590.198C1096.92 588.92 1119.7 589.292 1132.07 589.608C1131.82 596.791 1131.93 600.681 1132.07 612.053ZM1218.61 618.937C1218.17 618.301 1216.76 617.493 1216.52 616.842C1216.23 616.089 1216.98 614.602 1216.52 613.55C1215.23 610.655 1210.96 608.706 1206.63 608.762C1205.61 609.953 1204.05 610.484 1203.34 612.053C1203.14 612.488 1202.39 616.604 1202.44 616.842C1202.59 617.485 1202.96 617.605 1203.05 617.936C1203.82 617.967 1203.45 618.055 1203.04 618.338C1203.08 618.167 1203.08 618.042 1203.05 617.936C1200.89 617.85 1189.73 618.211 1144.95 615.944C1143.71 592.388 1142.6 591.617 1145.25 587.813C1171.45 587.813 1199.15 587.514 1199.15 587.514C1199.15 587.514 1218.86 611.556 1224.9 619.236C1223.83 619.747 1220.36 619.014 1218.61 618.937ZM1237.48 616.542C1227.75 608.745 1214.92 591.93 1208.73 586.914C1206.63 586.914 1213.64 586.795 1217.41 586.017C1228.69 595.955 1240.36 604.945 1250.59 616.637C1245.75 616.859 1241.59 619.843 1237.48 616.542ZM1278.4 643.251C1263.65 643.251 1251.7 655.199 1251.7 669.939C1251.7 684.678 1263.65 696.627 1278.4 696.627C1293.15 696.627 1305.1 684.678 1305.1 669.939C1305.1 655.199 1293.15 643.251 1278.4 643.251ZM1278.4 689.002C1267.87 689.002 1259.33 680.467 1259.33 669.939C1259.33 659.41 1267.87 650.876 1278.4 650.876C1288.94 650.876 1297.48 659.41 1297.48 669.939C1297.48 680.467 1288.94 689.002 1278.4 689.002ZM1285.77 673.423L1291.71 679.358C1293.1 677.407 1294.06 675.14 1294.48 672.685H1286.08C1285.99 672.937 1285.89 673.183 1285.77 673.423ZM1286.08 667.193H1294.48C1294.06 664.738 1293.1 662.47 1291.71 660.52L1285.77 666.455C1285.89 666.695 1285.99 666.941 1286.08 667.193ZM1274.92 662.572C1275.16 662.459 1275.4 662.355 1275.65 662.265V653.871C1273.2 654.288 1270.93 655.254 1268.98 656.637L1274.92 662.572ZM1273.91 669.938C1273.91 669.366 1273.44 668.902 1272.87 668.902C1272.3 668.902 1271.83 669.366 1271.83 669.938C1271.83 670.511 1272.3 670.975 1272.87 670.975C1273.44 670.975 1273.91 670.511 1273.91 669.938ZM1278.4 665.445C1278.97 665.445 1279.44 664.982 1279.44 664.409C1279.44 663.837 1278.97 663.373 1278.4 663.373C1277.83 663.373 1277.36 663.837 1277.36 664.409C1277.37 664.981 1277.83 665.445 1278.4 665.445ZM1287.83 656.636C1285.87 655.253 1283.61 654.288 1281.15 653.871V662.265C1281.4 662.355 1281.65 662.458 1281.89 662.571L1287.83 656.636ZM1282.9 669.938C1282.9 670.511 1283.36 670.975 1283.93 670.975C1284.51 670.975 1284.97 670.511 1284.97 669.938C1284.97 669.366 1284.51 668.902 1283.93 668.902C1283.36 668.902 1282.9 669.366 1282.9 669.938ZM1271.03 666.454L1265.09 660.52C1263.71 662.47 1262.74 664.738 1262.33 667.192H1270.72C1270.81 666.941 1270.92 666.694 1271.03 666.454ZM1268.98 683.241C1270.93 684.624 1273.2 685.59 1275.65 686.006V677.613C1275.4 677.523 1275.16 677.42 1274.92 677.306L1268.98 683.241ZM1270.72 672.685H1262.33C1262.74 675.14 1263.71 677.407 1265.09 679.357L1271.03 673.422C1270.92 673.183 1270.81 672.937 1270.72 672.685Z" fill="#2292CA"/>
<path d="M727.387 727.261C726.696 727.261 726.135 727.82 726.135 728.51C726.135 729.199 726.696 729.758 727.387 729.758C728.078 729.758 728.638 729.199 728.638 728.51C728.638 727.82 728.078 727.261 727.387 727.261ZM727.387 718.903C725.756 718.903 724.434 720.221 724.434 721.848C724.434 723.474 725.756 724.793 727.387 724.793C729.018 724.793 730.34 723.474 730.34 721.848C730.34 720.221 729.018 718.903 727.387 718.903ZM723.179 712.972C723.468 712.835 723.765 712.712 724.069 712.603V702.491C721.105 702.993 718.366 704.156 716.01 705.822L723.179 712.972ZM727.387 689.695C709.583 689.695 695.15 704.09 695.15 721.848C695.15 739.605 709.582 754 727.387 754C745.191 754 759.624 739.605 759.624 721.848C759.624 704.09 745.191 689.695 727.387 689.695ZM727.387 744.814C714.67 744.814 704.36 734.532 704.36 721.848C704.36 709.164 714.67 698.882 727.387 698.882C740.104 698.882 750.413 709.164 750.413 721.848C750.413 734.532 740.104 744.814 727.387 744.814ZM730.704 731.093V741.205C733.669 740.703 736.408 739.54 738.763 737.873L731.595 730.723C731.305 730.86 731.008 730.985 730.704 731.093ZM736.655 718.539H746.795C746.292 715.582 745.126 712.85 743.455 710.501L736.287 717.65C736.424 717.94 736.546 718.236 736.655 718.539ZM736.286 726.044L743.455 733.195C745.126 730.845 746.292 728.113 746.795 725.156H736.656C736.547 725.459 736.423 725.756 736.286 726.044ZM716.01 737.873C718.366 739.54 721.105 740.703 724.07 741.205V731.093C723.766 730.984 723.469 730.86 723.18 730.723L716.01 737.873ZM732.814 721.848C732.814 722.537 733.375 723.096 734.066 723.096C734.757 723.096 735.318 722.537 735.318 721.848C735.318 721.158 734.757 720.599 734.066 720.599C733.375 720.599 732.814 721.158 732.814 721.848ZM738.763 705.823C736.407 704.157 733.669 702.993 730.704 702.491V712.603C731.008 712.712 731.304 712.836 731.594 712.973L738.763 705.823ZM727.387 716.435C728.078 716.435 728.638 715.876 728.638 715.186C728.638 714.497 728.078 713.938 727.387 713.938C726.696 713.938 726.135 714.497 726.135 715.186C726.135 715.876 726.696 716.435 727.387 716.435ZM718.118 725.156H707.979C708.482 728.114 709.647 730.846 711.319 733.195L718.487 726.045C718.35 725.756 718.228 725.459 718.118 725.156ZM718.488 717.651L711.319 710.501C709.648 712.851 708.482 715.583 707.979 718.54H718.118C718.227 718.236 718.351 717.94 718.488 717.651ZM721.96 721.848C721.96 721.158 721.399 720.599 720.708 720.599C720.017 720.599 719.456 721.158 719.456 721.848C719.456 722.537 720.016 723.096 720.708 723.096C721.399 723.096 721.96 722.537 721.96 721.848ZM982.248 718.903C980.617 718.903 979.295 720.221 979.295 721.848C979.295 723.474 980.617 724.793 982.248 724.793C983.879 724.793 985.201 723.474 985.201 721.848C985.201 720.221 983.879 718.903 982.248 718.903ZM982.248 727.261C981.557 727.261 980.996 727.82 980.996 728.51C980.996 729.199 981.557 729.758 982.248 729.758C982.939 729.758 983.5 729.199 983.5 728.51C983.5 727.82 982.939 727.261 982.248 727.261ZM991.517 718.539H1001.66C1001.15 715.582 999.987 712.85 998.316 710.501L991.148 717.65C991.284 717.94 991.408 718.236 991.517 718.539ZM982.248 689.695C964.444 689.695 950.011 704.09 950.011 721.848C950.011 739.605 964.444 754 982.248 754C1000.05 754 1014.48 739.605 1014.48 721.848C1014.48 704.09 1000.05 689.695 982.248 689.695ZM982.248 744.814C969.531 744.814 959.222 734.532 959.222 721.848C959.222 709.164 969.531 698.882 982.248 698.882C994.965 698.882 1005.27 709.164 1005.27 721.848C1005.27 734.532 994.965 744.814 982.248 744.814ZM991.147 726.044L998.315 733.195C999.987 730.845 1001.15 728.113 1001.66 725.156H991.517C991.409 725.459 991.284 725.756 991.147 726.044ZM1054.33 704.035C1053.74 703.157 1052.02 702.767 1051.51 701.925C1050.84 700.798 1050.86 698.513 1050.34 697.234C1045.94 686.523 1041.09 683.243 1034.82 679.411C1026 674.031 1016.59 671.805 1006.13 667.92C1006.63 668.107 990.356 663.685 986.379 662.995C983.934 662.195 975.108 659.651 972.976 660.415C970.633 658.001 966.497 656.813 963.571 655.021C958.847 652.128 953.977 649.013 949.228 646.11C946.69 644.558 944.019 643.673 941.468 642.123C934.868 638.109 920.306 631.569 920.306 631.569C920.306 631.569 866.614 601.404 677.413 617.967C675.128 618.189 672.316 618.034 670.594 619.14C670.359 619.218 670.124 619.296 669.889 619.374C669.93 621.189 670.778 626.902 669.889 628.286C669.62 630.37 665.583 633.583 664.245 635.087C661.127 638.591 657.853 642.367 655.075 646.109C653.799 647.829 652.58 650.268 650.843 651.503C650.296 652.047 647.202 656.579 645.905 658.539C644.675 660.396 642.252 665.056 641.672 667.215C640.472 671.684 642.135 677.328 642.848 680.818C642.902 681.084 642.736 688.252 642.848 691.371C642.051 694.226 640.216 697.312 639.086 700.048C637.822 703.105 637.563 705.528 635.089 707.318C634.766 713.744 635.226 719.729 638.145 723.5C639.896 725.761 646.613 736.164 646.613 736.164H696.012C694.009 731.804 692.891 726.956 692.891 721.847C692.891 702.846 708.335 687.444 727.385 687.444C746.436 687.444 761.879 702.846 761.879 721.847C761.879 726.956 760.76 731.804 758.758 736.164H950.873C948.87 731.804 947.752 726.956 947.752 721.847C947.752 702.846 963.195 687.444 982.246 687.444C1001.3 687.444 1016.74 702.846 1016.74 721.847C1016.74 726.956 1015.62 731.804 1013.62 736.164H1038.81C1038.81 736.164 1059.24 734.999 1051.75 729.363C1052.55 727.474 1052.68 724.649 1054.1 722.796C1054.51 722.498 1055.35 722.379 1055.98 722.327C1058.21 717.534 1056.39 707.059 1054.33 704.035ZM675.297 654.083C675.297 654.083 677.859 651.691 679.059 650.8C682.482 648.257 685.631 645.366 689.17 642.826C694.761 638.815 701.464 632.921 707.981 630.163C712.194 628.379 717.031 628.751 722.088 627.583C726.085 626.66 731.072 626.87 735.256 625.941C734.794 625.941 745.837 625.473 745.367 625.473C744.896 625.473 752.333 624.743 755.477 624.769C755.477 636.494 756.888 645.408 756.888 657.132C702.675 654.701 675.297 654.083 675.297 654.083ZM772.172 656.663L770.055 624.065C770.055 624.065 787.712 622.6 804.855 622.543C822.39 622.483 839.42 623.83 839.42 623.83L842.947 660.416L772.172 656.663ZM862.228 661.822C862.228 661.822 856.82 624.526 856.82 624.293C856.82 624.06 888.721 628.441 901.966 633.915C906.661 635.855 912.298 637.891 916.544 640.481C918.786 641.849 924.304 644.702 924.304 644.702L925.715 666.981L862.228 661.822ZM978.041 712.972C978.33 712.835 978.627 712.712 978.931 712.603V702.491C975.966 702.993 973.227 704.156 970.871 705.822L978.041 712.972ZM985.565 731.093V741.205C988.53 740.703 991.269 739.54 993.625 737.873L986.456 730.723C986.166 730.86 985.87 730.985 985.565 731.093ZM987.676 721.848C987.676 722.537 988.236 723.096 988.927 723.096C989.619 723.096 990.179 722.537 990.179 721.848C990.179 721.158 989.619 720.599 988.927 720.599C988.236 720.599 987.676 721.158 987.676 721.848ZM976.821 721.848C976.821 721.158 976.26 720.599 975.569 720.599C974.878 720.599 974.317 721.158 974.317 721.848C974.317 722.537 974.878 723.096 975.569 723.096C976.26 723.096 976.821 722.537 976.821 721.848ZM982.248 716.435C982.939 716.435 983.5 715.876 983.5 715.186C983.5 714.497 982.939 713.938 982.248 713.938C981.557 713.938 980.996 714.497 980.996 715.186C980.996 715.876 981.557 716.435 982.248 716.435ZM993.624 705.823C991.269 704.157 988.53 702.993 985.565 702.491V712.603C985.869 712.712 986.166 712.836 986.455 712.973L993.624 705.823ZM970.872 737.873C973.227 739.54 975.966 740.703 978.931 741.205V731.093C978.626 730.984 978.33 730.86 978.041 730.723L970.872 737.873ZM972.979 725.156H962.84C963.343 728.114 964.509 730.846 966.18 733.195L973.348 726.045C973.212 725.756 973.089 725.459 972.979 725.156ZM973.35 717.651L966.181 710.501C964.51 712.851 963.344 715.583 962.84 718.54H972.979C973.088 718.236 973.213 717.94 973.35 717.651Z" fill="#1B88BF"/>
</g>
<path d="M532.135 826H596.57V964.157H501.451L532.135 826Z" fill="white"/>
<path d="M625.719 826H690.154L743.85 964.157H648.731L625.719 826Z" fill="white"/>
<path d="M142.455 826H206.89L7.44769 964.157H-80L142.455 826Z" fill="white"/>
<path d="M720.836 826H785.271L892.663 964.157H797.544L720.836 826Z" fill="white"/>
<path d="M243.71 826H308.145L162.399 964.157H59.6094L243.71 826Z" fill="white"/>
<path d="M823.627 826H887.295L1056.82 964.157H946.361L823.627 826Z" fill="white"/>
<path d="M340.362 826H404.798L305.077 964.157H217.629L340.362 826Z" fill="white"/>
<path d="M926.416 826H990.851L1213.31 964.157H1102.85L926.416 826Z" fill="white"/>
<path d="M437.016 826H501.451L440.084 964.157H352.637L437.016 826Z" fill="white"/>
<path d="M1773.12 521.506C1773.12 521.506 1786.98 492.195 1820.77 509.586C1854.56 526.977 1821.75 593.609 1839.32 610.023C1857.1 626.437 1832.88 637.184 1836.59 649.103C1840.11 660.828 1829.95 674.31 1806.32 672.747C1782.69 671.184 1757.88 672.356 1747.34 651.839C1736.6 631.126 1739.13 585.793 1743.24 579.345C1747.14 572.896 1773.12 521.506 1773.12 521.506Z" fill="#131F2D"/>
<path d="M1704.17 800.931L1812.18 798.195C1820.77 798 1827.61 790.77 1827.41 782.172L1823.9 638.161C1823.7 629.563 1816.47 622.724 1807.88 622.92L1699.88 625.655C1691.29 625.851 1684.45 633.081 1684.64 641.678L1688.16 785.69C1688.36 794.483 1695.58 801.126 1704.17 800.931Z" fill="#B05638"/>
<path d="M1334.47 558.241C1343.84 547.885 1356.15 513.885 1360.64 500.988L1374.9 460.736C1392.67 462.885 1404.19 468.161 1403.02 478.517C1398.53 517.988 1345.21 567.816 1345.21 567.816C1345.21 567.816 1334.27 584.034 1324.7 589.701C1315.13 595.368 1299.12 588.333 1298.34 585.793C1297.56 583.253 1302.24 573.287 1306.15 568.207C1309.86 562.931 1332.91 558.632 1334.47 558.241Z" fill="#FCBF93"/>
<path d="M1718.43 678.023L1775.66 643.437C1775.27 643.242 1774.09 641.483 1769.99 629.173C1768.24 623.897 1767.26 619.207 1766.67 615.69C1766.67 615.299 1766.67 614.908 1766.48 614.713C1765.89 609.437 1766.28 606.311 1766.28 606.311L1753.78 610.805L1730.54 619.207C1730.74 625.069 1729.96 629.173 1728.78 632.104C1725.66 638.943 1720.19 639.138 1720 639.138L1718.43 678.023Z" fill="#FCBF93"/>
<path d="M1728.98 632.103C1751.44 634.057 1764.13 619.402 1766.87 615.69C1767.26 615.103 1767.45 614.908 1767.45 614.908C1767.45 614.908 1767.26 614.908 1766.67 614.713C1764.91 614.126 1759.84 612.759 1753.98 611L1730.74 619.402C1730.93 625.069 1730.15 629.172 1728.98 632.103Z" fill="#EF6343"/>
<path d="M1727.81 624.092C1727.81 624.092 1777.61 629.563 1778.58 595.759C1779.56 561.954 1786.98 546.713 1752.41 543.586C1717.85 540.655 1709.84 552.965 1707.69 564.494C1701.64 600.057 1713.74 622.529 1727.81 624.092Z" fill="#FCBF93"/>
<path d="M1749.88 560C1767.45 555.506 1760.81 586.77 1765.3 584.621C1770.38 582.276 1778.78 582.276 1777.41 588.333C1776.05 594.391 1774.09 596.54 1773.12 600.253C1772.14 603.966 1773.12 611.391 1777.22 610.023C1781.32 608.46 1819.4 564.885 1792.45 531.081C1765.5 497.081 1685.23 517.989 1710.43 553.552C1715.11 559.805 1737.38 563.322 1749.88 560Z" fill="#131F2D"/>
<path d="M1602.23 625.069C1603.99 620.77 1609.85 621.552 1614.34 626.632C1618.44 631.322 1618.24 644.023 1618.24 645.977C1623.32 652.425 1640.31 670.598 1649.88 679C1652.03 680.759 1655.74 680.172 1657.89 678.414C1663.36 673.529 1672.73 665.517 1677.62 662.586C1684.84 658.287 1725.46 630.54 1730.74 642.264C1730.74 642.264 1727.81 687.598 1661.99 714.759C1655.55 717.494 1648.12 716.713 1642.46 712.805C1632.5 706.161 1617.07 690.529 1606.33 650.276C1606.53 650.276 1596.56 638.747 1602.23 625.069Z" fill="#E9AA7D"/>
<path d="M1684.64 1044.99L1711.01 1052.02C1711.01 1052.02 1727.22 995.552 1730.74 956.276C1731.32 950.414 1731.52 944.747 1731.32 939.862C1730.54 917.391 1778.19 823.793 1745.58 802.69C1723.12 788.034 1690.5 800.345 1690.5 800.345C1690.5 800.345 1686.01 919.149 1686.01 941.425C1686.01 944.552 1686.01 948.655 1686.01 953.54C1685.82 984.218 1684.64 1044.99 1684.64 1044.99Z" fill="#FCBF93"/>
<path d="M1734.84 807.184C1734.84 807.184 1756.32 928.138 1761.4 955.104C1761.79 957.253 1762.18 958.816 1762.38 959.598C1764.72 970.736 1777.02 1047.72 1777.02 1047.72L1803.19 1046.36C1803.19 1046.36 1811.01 989.885 1809.44 949.242C1809.05 939.276 1808.08 930.288 1806.32 923.449C1797.14 888.081 1818.43 800.931 1784.64 780.414C1750.66 759.897 1734.84 807.184 1734.84 807.184Z" fill="#FCBF93"/>
<path d="M1802.02 648.322C1802.02 648.322 1839.72 723.552 1848.89 732.736C1858.07 741.92 1890.69 771.816 1902.02 780.023C1902.02 780.023 1936.59 789.988 1935.8 794.092C1935.02 798.195 1911.78 797.414 1909.05 798.391C1906.51 799.368 1914.13 805.816 1907.68 805.621C1903.38 805.425 1899.28 798 1896.94 792.919C1896.94 792.919 1837.96 764 1829.36 759.506C1820.58 754.816 1794.41 721.988 1789.91 708.115C1785.42 694.241 1802.02 648.322 1802.02 648.322Z" fill="#FCBF93"/>
<path d="M1665.7 704.402C1658.67 687.012 1662.77 669.23 1662.77 669.23C1687.18 641.678 1702.42 639.138 1707.69 639.138C1724.88 636.012 1756.52 638.161 1773.9 639.724C1773.9 639.529 1773.9 639.333 1773.9 639.333C1773.9 639.333 1801.83 641.483 1809.64 650.667C1817.65 660.046 1845.77 707.138 1845.77 707.138C1845.77 707.138 1847.14 718.667 1834.25 731.172C1829.75 735.667 1823.31 740.161 1814.33 744.46C1811.98 745.632 1809.64 746.023 1807.49 745.828L1833.47 872.058C1823.7 887.885 1803.58 898.241 1780.54 904.494C1732.49 917.782 1671.76 913.678 1667.07 906.448C1662.19 876.161 1669.22 788.621 1678.98 722.379C1672.54 717.494 1668.24 710.851 1665.7 704.402Z" fill="#F16C0B"/>
<path d="M1761.4 955.104C1761.79 957.253 1762.18 958.816 1762.37 959.598C1764.72 970.736 1777.02 1047.72 1777.02 1047.72L1803.19 1046.36C1803.19 1046.36 1811.01 989.885 1809.44 949.241C1802.41 952.563 1788.55 956.081 1761.4 955.104Z" fill="#364154"/>
<path d="M1739.53 1067.26H1805.15C1805.15 1067.26 1806.32 1056.52 1804.95 1047.33C1804.76 1046.16 1804.17 1045.18 1803.39 1044.4C1799.48 1045.77 1793.82 1046.55 1787.57 1044.4C1782.49 1042.45 1777.8 1039.13 1775.27 1036.39C1774.68 1036.98 1761.79 1050.66 1755.54 1050.66C1748.9 1050.66 1739.13 1053.78 1739.53 1067.26Z" fill="#131F2D"/>
<path d="M1684.64 1044.99L1711.01 1052.02C1711.01 1052.02 1727.22 995.552 1730.74 956.276C1719.8 957.058 1701.05 957.644 1686.01 953.54C1685.82 984.218 1684.64 1044.99 1684.64 1044.99Z" fill="#364154"/>
<path d="M1648.71 1067.26H1714.33C1714.33 1067.26 1715.5 1056.52 1714.14 1047.33C1713.94 1046.16 1714.14 1045.18 1713.36 1044.4C1709.45 1045.77 1703 1046.55 1696.75 1044.4C1691.68 1042.45 1687.58 1039.13 1685.04 1036.59C1684.45 1037.17 1670.98 1050.85 1664.73 1050.85C1658.09 1050.66 1648.32 1053.78 1648.71 1067.26Z" fill="#131F2D"/>
<path d="M1780.73 905.08C1803.78 898.828 1823.9 888.471 1833.66 872.644L1807.69 746.414C1807.49 746.218 1750.27 861.115 1780.73 905.08Z" fill="#CA5C0B"/>
<path d="M1809.64 650.862C1809.64 650.862 1814.72 716.517 1834.25 731.563C1847.14 719.058 1845.77 707.529 1845.77 707.529C1845.77 707.529 1817.45 660.241 1809.64 650.862Z" fill="#CA5C0B"/>
<path d="M1665.7 704.402C1668.44 711.046 1672.34 717.69 1679.18 723.161C1680.93 717.299 1684.45 704.012 1680.15 701.667C1674.69 698.54 1665.7 704.402 1665.7 704.402Z" fill="#CA5C0B"/>
<path d="M1606.53 620.184C1602.62 617.644 1598.71 610.023 1597.35 607.092C1585.24 576.805 1571.18 517.793 1566.49 507.046C1564.73 503.138 1561.61 484.575 1557.31 460.54C1549.69 417.552 1538.76 357.172 1528.01 333.333C1526.65 330.402 1522.94 328.057 1518.05 325.908C1505.16 320.437 1484.07 317.896 1478.99 317.31C1473.72 313.011 1466.49 295.034 1466.49 267.483L1464.15 267.873L1424.5 275.69C1424.5 275.69 1425.48 288.195 1425.48 299.919C1425.48 309.69 1424.89 318.873 1422.75 320.046C1419.82 320.241 1418.25 320.437 1418.25 320.437C1418.25 320.437 1385.25 366.356 1382.51 408.954C1379.78 451.552 1408.88 470.115 1382.32 555.31C1355.17 642.264 1539.93 587.356 1529.77 564.69C1511.41 523.46 1502.62 511.736 1502.23 498.839C1502.04 489.655 1505.94 479.885 1513.76 458.977C1514.54 461.517 1515.12 464.057 1515.71 466.598C1520.2 483.011 1523.91 497.471 1525.47 504.896C1530.16 527.368 1582.11 613.345 1582.11 613.345C1582.11 613.345 1583.67 614.322 1585.43 619.598C1587.19 624.874 1601.84 652.621 1608.28 652.621C1614.53 652.621 1615.9 643.241 1617.27 637.184C1618.44 630.931 1611.41 623.31 1606.53 620.184Z" fill="#FCBF93"/>
<path d="M1517.86 157.08C1509.07 151.609 1495.01 158.058 1495.01 158.058C1499.89 151.218 1517.47 153.563 1517.47 153.563C1482.12 146.138 1474.89 168.609 1474.31 170.759C1448.72 147.701 1407.9 196.943 1407.9 196.943L1466.69 274.713C1466.69 274.713 1471.96 262.402 1479.19 266.115C1490.12 272.172 1511.61 247.747 1504.77 215.701C1503.99 212.184 1503.21 209.058 1502.23 206.126C1504.58 207.103 1507.12 207.885 1509.46 207.885C1515.9 207.885 1525.47 191.471 1526.84 186C1528.21 180.529 1526.65 162.356 1517.86 157.08Z" fill="#131F2D"/>
<path d="M1424.7 275.69C1424.7 275.69 1425.68 288.195 1425.68 299.92C1447.74 299.138 1459.46 279.011 1464.15 267.874L1424.7 275.69Z" fill="#EF6343"/>
<path d="M1468.25 263.575C1468.25 263.575 1479.77 245.207 1482.7 229.575C1484.66 218.437 1478.99 176.816 1437.39 182.874C1437.39 182.874 1425.28 184.046 1413.96 191.667C1404.97 197.724 1391.89 211.012 1406.54 247.161L1410.25 259.471L1468.25 263.575Z" fill="#131F2D"/>
<path d="M1417.28 286.828C1417.28 286.828 1469.62 287.609 1469.62 254.977C1469.62 222.345 1476.45 200.46 1443.06 198.506C1409.66 196.552 1403.02 209.058 1400.48 220C1397.75 230.747 1403.61 285.655 1417.28 286.828Z" fill="#FCBF93"/>
<path d="M1483.29 959.989C1470.2 1012.36 1450.28 1052.61 1450.28 1052.61L1433.1 1051.44C1433.1 1051.44 1441.49 1011.18 1441.1 956.667C1440.71 918.563 1436.03 873.621 1420.99 830.632C1369.23 682.908 1377.63 575.437 1377.63 575.437L1474.89 586.77L1479.38 587.357C1479.77 632.104 1480.95 692.678 1481.92 739.966C1482.9 782.563 1483.68 814.609 1483.68 814.609C1502.23 854.862 1495.4 911.724 1483.29 959.989Z" fill="#131F2D"/>
<path d="M1516.88 450.379C1507.12 477.54 1502.04 488.483 1502.23 498.839C1470.99 450.379 1414.35 443.149 1414.35 443.149L1521.57 430.839C1520.79 437.287 1519.22 443.931 1516.88 450.379Z" fill="#CB7D45"/>
<path d="M1539.15 951.586C1533.48 1011.18 1508.87 1049.87 1508.87 1049.87L1500.67 1055.93C1500.67 1055.93 1492.86 1013.92 1487.39 963.897C1482.12 916.414 1474.89 866 1466.69 850.759C1434.27 789.793 1424.5 560 1424.5 560L1522.94 555.115C1532.9 571.724 1537.19 599.081 1538.17 630.15C1540.71 708.506 1522.35 810.897 1519.62 825.747C1519.42 826.92 1519.81 828.092 1520.2 829.069C1539.93 867.759 1542.86 912.311 1539.15 951.586Z" fill="#364154"/>
<path d="M1455.56 241.69C1477.63 247.356 1487.2 241.494 1487.2 241.494C1487.2 241.494 1496.77 201.437 1478.02 186.977C1450.87 166.069 1420.79 195.379 1419.62 197.138C1416.11 194.207 1410.05 192.057 1402.04 201.828C1389.93 216.483 1400.68 242.667 1400.68 242.667C1405.75 243.253 1406.93 226.057 1409.47 217.851C1411.42 211.793 1417.67 205.54 1420.79 202.609C1421.77 206.322 1432.32 243.057 1458.68 255.172C1458.68 255.172 1446.57 244.425 1437.59 229.575C1442.86 235.241 1448.72 239.931 1455.56 241.69Z" fill="#131F2D"/>
<path d="M1542.08 594.391C1542.27 597.713 1542.08 600.448 1541.49 602.207C1539.34 608.851 1532.12 611.782 1514.73 610.023C1504.19 608.851 1499.3 591.069 1497.16 575.828C1490.71 597.517 1481.73 609.828 1470.2 612.368C1453.41 616.08 1368.26 626.437 1362.59 585.989C1356.54 541.437 1374.9 462.69 1375.87 420.092C1373.33 405.046 1372.55 391.954 1372.75 380.621C1373.53 350.333 1382.32 333.333 1389.15 326.494C1391.11 324.931 1393.06 324.149 1400.87 322.782C1404.78 322.195 1410.25 321.414 1418.06 320.241C1418.06 320.241 1421.18 319.851 1421.18 320.046C1419.82 322.586 1400.48 351.897 1402.04 359.322C1403.61 367.138 1471.96 360.103 1476.65 355.805C1481.34 351.506 1488.76 318.287 1488.76 318.287C1488.76 318.287 1512.98 321.023 1524.89 329.621C1524.89 329.621 1524.89 329.621 1524.69 329.816C1526.06 330.793 1527.23 331.966 1527.82 333.138C1540.51 357.172 1553.01 417.943 1562 461.322C1540.51 473.241 1521.76 469.724 1515.91 468.161C1523.72 517.989 1540.9 571.529 1542.08 594.391Z" fill="#FED500"/>
<path d="M1539.15 951.586C1533.48 1011.18 1508.87 1049.87 1508.87 1049.87L1500.48 1057.49C1500.48 1057.49 1492.86 1013.72 1487.2 963.701C1493.05 964.288 1518.83 965.265 1539.15 951.586Z" fill="#FCBF93"/>
<path d="M1483.29 959.989C1470.2 1012.36 1450.28 1052.61 1450.28 1052.61L1433.1 1051.44C1433.1 1051.44 1441.5 1011.18 1441.11 956.667C1446.96 959.598 1459.07 962.724 1483.29 959.989Z" fill="#FCBF93"/>
<path d="M1460.24 1067.07H1449.31C1445.6 1066.48 1442.86 1065.51 1439.15 1064.92C1433.49 1064.14 1430.75 1066.48 1430.17 1067.07L1429.97 1067.26H1383.1C1381.93 1065.51 1383.1 1061.6 1384.08 1058.86C1384.86 1056.91 1386.42 1055.35 1388.37 1054.76C1393.26 1053.39 1403.22 1052.02 1412 1044.01C1417.08 1039.52 1436.42 1027.21 1436.42 1027.21H1436.61C1437 1027.21 1439.15 1027.79 1447.74 1035.22C1452.24 1039.13 1460.05 1029.75 1460.05 1029.75C1460.05 1029.75 1461.42 1030.92 1462.59 1033.26C1463.37 1035.02 1464.15 1037.37 1463.56 1040.49C1462.78 1044.79 1465.13 1052.61 1466.88 1057.89C1468.06 1061.01 1468.84 1063.36 1468.84 1063.36C1468.84 1063.36 1469.81 1065.9 1460.24 1067.07Z" fill="#131F2D"/>
<path d="M1462.78 1033.26C1460.24 1035.02 1454.58 1038.74 1450.87 1039.32C1445.99 1039.91 1436.61 1027.21 1436.61 1027.21H1436.81C1437.2 1027.21 1439.35 1027.79 1447.94 1035.22C1452.43 1039.13 1460.24 1029.75 1460.24 1029.75C1460.24 1029.75 1461.81 1030.92 1462.78 1033.26Z" fill="#131F2D"/>
<path d="M1460.24 1067.07H1449.31C1445.6 1066.48 1442.86 1065.51 1439.15 1064.92C1433.49 1064.14 1430.75 1066.48 1430.17 1067.07L1429.97 1067.26H1383.1C1381.93 1065.51 1383.1 1061.6 1384.08 1058.86C1385.44 1057.69 1385.83 1064.33 1386.62 1065.51C1387.4 1066.68 1424.89 1065.9 1427.04 1064.33C1429.19 1062.77 1435.64 1060.03 1444.82 1062.18C1452.63 1064.14 1464.35 1059.25 1467.08 1057.89C1468.25 1061.01 1469.03 1063.36 1469.03 1063.36C1469.03 1063.36 1469.81 1065.9 1460.24 1067.07Z" fill="#131F2D"/>
<path d="M1519.03 1067.07H1508.09C1504.38 1066.48 1501.65 1065.51 1497.94 1064.92C1492.27 1064.14 1489.54 1066.48 1488.95 1067.07L1488.76 1067.26H1441.88C1440.71 1065.51 1441.88 1061.6 1442.86 1058.86C1443.64 1056.91 1445.21 1055.35 1447.16 1054.76C1452.04 1053.39 1462 1052.02 1470.79 1044.01C1475.87 1039.52 1495.2 1027.21 1495.2 1027.21H1495.4C1495.79 1027.21 1497.94 1027.79 1506.73 1035.22C1511.22 1039.13 1519.03 1029.75 1519.03 1029.75C1519.03 1029.75 1520.4 1030.92 1521.57 1033.26C1522.35 1035.02 1523.13 1037.37 1522.54 1040.49C1521.76 1044.79 1524.11 1052.61 1525.86 1057.89C1527.04 1061.01 1527.82 1063.36 1527.82 1063.36C1527.82 1063.36 1528.6 1065.9 1519.03 1067.07Z" fill="#131F2D"/>
<path d="M1521.76 1033.26C1519.23 1035.02 1513.56 1038.74 1509.85 1039.32C1504.97 1039.91 1495.59 1027.21 1495.59 1027.21H1495.79C1496.18 1027.21 1498.33 1027.79 1507.12 1035.22C1511.61 1039.13 1519.42 1029.75 1519.42 1029.75C1519.42 1029.75 1520.59 1030.92 1521.76 1033.26Z" fill="#131F2D"/>
<path d="M1519.03 1067.07H1508.09C1504.38 1066.48 1501.65 1065.51 1497.94 1064.92C1492.27 1064.14 1489.54 1066.48 1488.95 1067.07L1488.76 1067.26H1441.88C1440.71 1065.51 1441.88 1061.6 1442.86 1058.86C1444.23 1057.69 1444.62 1064.33 1445.4 1065.51C1446.18 1066.68 1483.68 1065.9 1485.83 1064.33C1487.98 1062.77 1494.42 1060.03 1503.6 1062.18C1511.41 1064.14 1523.13 1059.25 1525.86 1057.89C1527.04 1061.01 1527.82 1063.36 1527.82 1063.36C1527.82 1063.36 1528.6 1065.9 1519.03 1067.07Z" fill="#131F2D"/>
<path d="M1542.08 594.391C1530.36 590.483 1515.32 580.126 1497.35 556.874C1449.7 495.126 1493.25 422.632 1499.11 421.264C1504.97 419.897 1515.91 468.161 1515.91 468.161C1523.72 517.989 1540.9 571.529 1542.08 594.391Z" fill="#E2BF04"/>
<path d="M1679.18 723.161C1679.18 723.161 1696.95 653.207 1720.97 637.77C1720.97 637.77 1707.3 636.793 1705.35 640.31C1685.43 674.897 1672.73 716.713 1679.18 723.161Z" fill="#B05638"/>
<path d="M1784.84 640.897C1784.84 640.897 1775.66 700.885 1808.08 746.609C1808.08 746.609 1808.08 746.805 1808.27 746.805L1813.35 770.253C1813.54 770.839 1812.76 771.23 1812.37 770.839C1803.97 764.391 1761.79 726.874 1774.09 639.333C1773.9 639.529 1778.19 637.575 1784.84 640.897Z" fill="#B05638"/>
<path d="M1182.4 1042.45C1182.4 1042.45 1178.3 1050.66 1168.92 1052.61C1163.06 1053.98 1157.98 1056.91 1155.05 1061.21C1152.52 1064.72 1155.05 1069.8 1159.35 1069.8H1206.42C1210.52 1069.8 1213.65 1066.29 1213.06 1062.38C1212.67 1058.86 1212.28 1054.76 1212.28 1051.63C1211.89 1044.79 1205.05 1039.32 1205.05 1039.32L1182.4 1042.45Z" fill="#131F2D"/>
<path d="M1171.85 923.839C1169.9 959.598 1174.78 1041.08 1174.78 1041.08C1174.78 1041.08 1178.1 1050.07 1198.8 1052.41C1209.94 1053.59 1219.9 1050.66 1219.9 1050.66C1224 1031.31 1227.9 1012.94 1231.42 995.552C1257 869.908 1266.96 792.334 1266.96 792.334L1165.99 768.885C1165.99 768.885 1170.48 839.816 1171.66 888.081C1172.05 902.931 1172.24 915.828 1171.85 923.839Z" fill="#364154"/>
<path d="M1165.99 768.69C1165.99 768.69 1170.48 839.621 1171.66 887.885L1231.42 995.357C1257 869.713 1266.96 792.138 1266.96 792.138L1165.99 768.69Z" fill="#131F2D"/>
<path d="M1267.55 606.31C1267.55 606.31 1306.61 588.529 1336.1 604.161C1365.59 619.793 1347.62 748.173 1305.24 760.678C1305.44 760.678 1226.14 785.885 1267.55 606.31Z" fill="#75311B"/>
<path d="M1154.47 798.586C1154.66 798.391 1154.66 798.196 1154.86 798C1155.84 796.632 1157.4 793.115 1158.57 790.38C1150.76 751.885 1156.03 729.609 1156.03 729.609C1155.06 718.471 1148.42 640.115 1163.84 603.77C1171.27 586.184 1183.76 586.184 1183.76 586.184C1183.76 586.184 1180.84 614.127 1182.79 629.173C1184.55 643.046 1171.46 772.207 1169.31 793.506L1168.73 815L1162.48 813.437C1162.28 813.437 1161.89 813.242 1161.7 813.242C1160.91 812.851 1160.33 812.265 1159.74 811.483L1154.66 803.471C1153.49 802.104 1153.49 800.15 1154.47 798.586ZM1166.58 795.069L1166.38 794.874L1166.58 795.069C1166.38 795.265 1166.38 795.265 1166.58 795.069Z" fill="#E9AA7D"/>
<path d="M1264.42 1042.45C1264.42 1042.45 1260.32 1050.66 1250.95 1052.61C1245.09 1053.98 1240.01 1056.91 1237.08 1061.21C1234.54 1064.72 1237.08 1069.8 1241.38 1069.8H1288.45C1292.55 1069.8 1295.67 1066.29 1295.09 1062.38C1294.7 1058.86 1294.31 1054.76 1294.31 1051.63C1293.91 1044.79 1287.08 1039.32 1287.08 1039.32L1264.42 1042.45Z" fill="#131F2D"/>
<path d="M1202.12 577.587L1242.35 598.104L1250.36 570.161C1250.36 570.161 1245.28 560.587 1242.94 544.759C1241.96 538.115 1241.57 530.299 1242.16 521.897L1209.54 538.702C1209.54 538.702 1210.32 541.633 1210.91 546.127C1211.5 551.012 1211.69 557.46 1210.32 563.713C1208.96 568.989 1206.42 574.069 1202.12 577.587Z" fill="#FCBF93"/>
<path d="M1295.09 779.633C1295.09 779.633 1302.7 880.851 1300.95 1042.25C1300.95 1042.25 1291.77 1047.14 1280.63 1048.12C1259.93 1050.26 1254.85 1041.86 1254.85 1041.86C1254.85 1041.86 1233.76 963.115 1228.49 927.747C1223.61 895.115 1191.58 777.092 1191.58 777.092L1295.09 779.633Z" fill="#364154"/>
<path d="M1175.56 580.517C1179.08 578.759 1190.4 574.264 1207.2 571.529C1207 577.391 1208.57 582.667 1218.72 584.035C1232.2 585.793 1244.31 576.609 1250.36 570.356C1250.36 570.356 1259.93 571.333 1270.87 573.874C1276.34 575.046 1282.39 576.609 1287.66 578.563C1294.11 580.908 1299.77 583.839 1302.7 587.552C1313.05 600.253 1330.04 638.552 1330.04 638.552C1330.04 638.552 1301.73 649.104 1294.5 655.161L1294.3 656.529L1289.81 693.46L1303.09 766.931C1303.29 767.517 1303.29 768.299 1303.29 768.885C1303.29 773.77 1299.97 778.265 1295.09 779.437C1295.09 779.437 1293.91 779.632 1291.77 779.828C1277.7 781.782 1220.87 788.621 1176.15 776.506C1166.19 773.77 1159.55 764.196 1160.33 753.839L1167.55 662.391C1163.65 661.805 1159.16 661.023 1155.44 660.632C1152.32 660.241 1149.98 660.242 1149 660.437C1149.2 660.632 1154.27 589.31 1175.56 580.517Z" fill="#2AD38C"/>
<path d="M1259.74 716.126C1260.32 741.724 1277.12 772.011 1291.77 780.023C1293.91 779.828 1295.09 779.632 1295.09 779.632C1299.97 778.46 1303.29 773.965 1303.29 769.08C1303.29 768.494 1303.29 767.713 1303.09 767.126L1289.81 693.655L1294.31 656.724C1294.11 656.138 1293.91 655.747 1293.91 655.747C1293.91 655.747 1258.76 670.793 1259.74 716.126Z" fill="#131F2D"/>
<path d="M1155.64 660.828C1159.35 661.219 1167.75 662.587 1167.75 662.587L1172.05 624.288C1171.85 624.288 1157.79 651.253 1155.64 660.828Z" fill="#131F2D"/>
<path d="M1300.95 754.035V736.839C1242.75 652.621 1234.93 635.621 1261.1 597.713C1268.53 586.966 1282.2 580.127 1287.86 578.563C1282.59 576.609 1276.53 575.046 1271.06 573.874C1265.6 576.414 1260.52 578.954 1256.61 582.471C1176.34 651.644 1300.95 754.035 1300.95 754.035Z" fill="#75311B"/>
<path d="M1232.98 645.782C1255.83 647.345 1258.96 670.793 1258.96 670.793C1258.96 670.793 1297.23 674.31 1302.9 676.851C1302.9 676.851 1299.77 668.448 1294.3 655.747C1299.38 650.862 1315.59 643.632 1326.53 640.115C1334.73 661.218 1338.05 682.127 1333.37 702.253C1332.78 704.402 1331.02 705.966 1328.87 705.966C1316.76 706.552 1276.53 706.356 1247.04 681.931L1246.46 681.736C1239.42 681.345 1232.78 674.31 1230.25 665.127C1227.71 655.943 1227.51 658.678 1225.56 652.23C1223.41 645.977 1232.98 645.782 1232.98 645.782Z" fill="#FCBF93"/>
<path d="M1210.13 563.713C1228.68 563.126 1242.94 544.954 1242.94 544.954L1210.71 546.322C1211.11 551.012 1211.5 557.46 1210.13 563.713Z" fill="#EF6343"/>
<path d="M1208.37 552.575C1208.37 552.575 1249.39 557.655 1250.36 528.54C1251.14 499.621 1234.15 480.862 1222.63 481.058C1199.78 481.448 1196.07 490.632 1193.33 500.207C1190.8 509.782 1189.43 550.425 1208.37 552.575Z" fill="#FCBF93"/>
<path d="M1252.6 531C1252.6 531 1249.11 492.748 1207.28 494.104C1165.54 495.46 1183.57 456.709 1219.5 451C1219.5 451 1215.72 464.631 1238.34 466.843C1285.76 471.339 1256.82 524.934 1252.6 531Z" fill="#131F2D"/>
<path d="M1212.2 491.759C1212.2 491.759 1247.35 491.759 1239.15 515.793C1234.07 531.034 1251.06 533.379 1251.06 533.379L1259.26 508.954L1254.19 490L1212.2 491.759Z" fill="#131F2D"/>
<defs>
<linearGradient id="paint0_linear_227_10759" x1="-3" y1="946" x2="1919" y2="332.999" gradientUnits="userSpaceOnUse">
<stop stop-color="#0873AF"/>
<stop offset="1" stop-color="#38B7ED"/>
</linearGradient>
<linearGradient id="paint1_linear_227_10759" x1="-2.99998" y1="945.999" x2="1919" y2="332.999" gradientUnits="userSpaceOnUse">
<stop stop-color="#0D9834"/>
<stop offset="1" stop-color="#CD4DD6"/>
</linearGradient>
<linearGradient id="paint2_linear_227_10759" x1="941.5" y1="34" x2="941.5" y2="814" gradientUnits="userSpaceOnUse">
<stop offset="0.482292" stop-color="#D0EBFF"/>
<stop offset="1" stop-color="#228EC6"/>
</linearGradient>
</defs>
</svg>
