<svg width="1514" height="959" viewBox="0 0 1514 959" fill="none" xmlns="http://www.w3.org/2000/svg">
<path d="M1320.81 178.283C1392.65 220.854 1479.53 222.433 1514 217.902V302.965C1409.83 294.886 1280.78 427.646 1244.63 479.694C1208.48 531.742 1121.41 591.17 1040.56 591.17C948.975 591.17 941.44 703.81 889.742 735.661C838.045 767.511 738.514 894.668 420.577 818.782C202.515 766.734 49.754 914.332 0 959V792.369V0H330.009C444.288 48.9405 412.482 113.283 584.61 178.283C718.324 228.777 782.46 195.373 941.051 134.78C1131.41 62.0496 1231.02 125.07 1320.81 178.283Z" fill="url(#paint0_linear_234_13570)"/>
<mask id="mask0_234_13570" style="mask-type:alpha" maskUnits="userSpaceOnUse" x="0" y="0" width="1513" height="955">
<path d="M1319.94 178.261C1391.73 220.827 1478.56 222.406 1513 217.875V302.928C1408.9 294.85 1279.93 427.595 1243.81 479.636C1207.68 531.677 1120.67 591.098 1039.87 591.098C948.348 591.098 962.571 692.462 910.908 724.309C859.244 756.155 732.222 904.033 367.471 809.75C220.638 771.796 43.1176 921.212 0 955V792.273V0H329.791C423.018 36.5067 409.811 120.006 584.224 178.261C758.636 236.517 747.371 199.622 940.43 134.764C1133.49 69.9064 1230.21 125.055 1319.94 178.261Z" fill="url(#paint1_linear_234_13570)"/>
</mask>
<g mask="url(#mask0_234_13570)">
<path opacity="0.2" d="M1228 343.742V657H136V324.532H188.86V379.954H263.475V352.444H292.268V249.631H320.056V352.444H355.05V256.592H450.782V331.326H523.855V217H597.33V410.577H671.441V329.452H764.056V270.916H821.542V325.937H875.207V306.191H987.531V364.492H1075.25V308.367H1144.6V381.661H1189.45V343.742H1228Z" fill="url(#paint2_linear_234_13570)"/>
<path d="M200.253 497.053C199.937 497.053 199.68 497.303 199.68 497.611C199.68 497.919 199.937 498.168 200.253 498.168C200.569 498.168 200.825 497.919 200.825 497.611C200.825 497.303 200.569 497.053 200.253 497.053ZM200.253 493.318C199.507 493.318 198.902 493.907 198.902 494.634C198.902 495.361 199.507 495.95 200.253 495.95C200.999 495.95 201.603 495.361 201.603 494.634C201.603 493.907 200.999 493.318 200.253 493.318ZM198.328 490.669C198.461 490.607 198.596 490.552 198.736 490.504V485.985C197.38 486.21 196.127 486.729 195.05 487.474L198.328 490.669ZM200.253 480.268C192.11 480.268 185.509 486.7 185.509 494.634C185.509 502.568 192.11 509 200.253 509C208.395 509 214.996 502.568 214.996 494.634C214.996 486.7 208.395 480.268 200.253 480.268ZM200.253 504.896C194.437 504.896 189.722 500.302 189.722 494.634C189.722 488.967 194.437 484.373 200.253 484.373C206.069 484.373 210.784 488.967 210.784 494.634C210.784 500.302 206.069 504.896 200.253 504.896ZM201.77 498.765V503.283C203.126 503.059 204.378 502.539 205.456 501.794L202.177 498.6C202.045 498.661 201.909 498.716 201.77 498.765ZM204.492 493.156H209.129C208.899 491.835 208.366 490.614 207.602 489.564L204.323 492.759C204.386 492.888 204.442 493.021 204.492 493.156ZM204.323 496.509L207.601 499.704C208.366 498.654 208.899 497.434 209.129 496.112H204.492C204.442 496.248 204.385 496.38 204.323 496.509ZM195.05 501.794C196.127 502.539 197.38 503.059 198.736 503.283V498.765C198.597 498.716 198.461 498.661 198.329 498.6L195.05 501.794ZM202.735 494.634C202.735 494.942 202.991 495.192 203.308 495.192C203.624 495.192 203.88 494.942 203.88 494.634C203.88 494.326 203.624 494.076 203.308 494.076C202.991 494.076 202.735 494.326 202.735 494.634ZM205.456 487.474C204.378 486.73 203.126 486.21 201.77 485.985V490.504C201.909 490.552 202.044 490.608 202.177 490.669L205.456 487.474ZM200.253 492.215C200.569 492.215 200.825 491.966 200.825 491.658C200.825 491.35 200.569 491.1 200.253 491.1C199.937 491.1 199.68 491.35 199.68 491.658C199.68 491.966 199.937 492.215 200.253 492.215ZM196.014 496.112H191.377C191.607 497.434 192.14 498.654 192.904 499.704L196.183 496.51C196.12 496.38 196.064 496.248 196.014 496.112ZM196.183 492.759L192.904 489.564C192.14 490.614 191.607 491.835 191.377 493.156H196.014C196.063 493.02 196.12 492.888 196.183 492.759ZM197.771 494.634C197.771 494.326 197.514 494.076 197.198 494.076C196.882 494.076 196.625 494.326 196.625 494.634C196.625 494.942 196.882 495.192 197.198 495.192C197.514 495.192 197.771 494.942 197.771 494.634ZM316.813 493.318C316.067 493.318 315.462 493.907 315.462 494.634C315.462 495.361 316.067 495.95 316.813 495.95C317.558 495.95 318.163 495.361 318.163 494.634C318.163 493.907 317.558 493.318 316.813 493.318ZM316.813 497.053C316.496 497.053 316.24 497.303 316.24 497.611C316.24 497.919 316.496 498.168 316.813 498.168C317.129 498.168 317.385 497.919 317.385 497.611C317.385 497.303 317.129 497.053 316.813 497.053ZM321.052 493.156H325.689C325.459 491.835 324.926 490.614 324.161 489.564L320.883 492.759C320.945 492.888 321.002 493.021 321.052 493.156ZM316.813 480.268C308.67 480.268 302.069 486.7 302.069 494.634C302.069 502.568 308.67 509 316.813 509C324.955 509 331.556 502.568 331.556 494.634C331.556 486.7 324.955 480.268 316.813 480.268ZM316.813 504.896C310.997 504.896 306.281 500.302 306.281 494.634C306.281 488.967 310.996 484.373 316.813 484.373C322.629 484.373 327.344 488.967 327.344 494.634C327.343 500.302 322.629 504.896 316.813 504.896ZM320.882 496.509L324.161 499.704C324.925 498.654 325.458 497.434 325.688 496.112H321.052C321.002 496.248 320.945 496.38 320.882 496.509ZM349.78 486.675C349.507 486.283 348.721 486.109 348.49 485.732C348.181 485.229 348.192 484.208 347.952 483.637C345.941 478.851 343.726 477.385 340.854 475.673C336.823 473.269 332.519 472.275 327.735 470.539C327.966 470.622 320.52 468.646 318.702 468.338C317.584 467.981 313.547 466.844 312.572 467.185C311.5 466.107 309.609 465.576 308.271 464.775C306.11 463.483 303.883 462.091 301.711 460.794C300.55 460.1 299.328 459.705 298.162 459.012C295.143 457.219 288.484 454.297 288.484 454.297C288.484 454.297 263.928 440.819 177.397 448.219C176.352 448.318 175.066 448.249 174.279 448.743C174.171 448.778 174.064 448.813 173.956 448.848C173.975 449.659 174.363 452.212 173.956 452.83C173.833 453.761 171.987 455.197 171.375 455.869C169.949 457.434 168.452 459.121 167.181 460.794C166.598 461.562 166.04 462.652 165.246 463.204C164.996 463.447 163.581 465.472 162.987 466.347C162.425 467.177 161.317 469.259 161.051 470.224C160.503 472.22 161.263 474.742 161.589 476.301C161.614 476.42 161.538 479.623 161.589 481.017C161.225 482.293 160.386 483.672 159.869 484.894C159.291 486.26 159.172 487.342 158.041 488.142C157.893 491.013 158.104 493.688 159.439 495.372C160.239 496.383 163.311 501.031 163.311 501.031H185.904C184.988 499.083 184.476 496.917 184.476 494.634C184.476 486.144 191.539 479.262 200.252 479.262C208.965 479.262 216.027 486.144 216.027 494.634C216.027 496.917 215.516 499.083 214.6 501.031H302.463C301.547 499.083 301.036 496.917 301.036 494.634C301.036 486.144 308.099 479.262 316.812 479.262C325.524 479.262 332.587 486.144 332.587 494.634C332.587 496.917 332.076 499.083 331.16 501.031H342.682C342.682 501.031 352.026 500.51 348.597 497.992C348.966 497.148 349.026 495.886 349.673 495.058C349.861 494.925 350.244 494.871 350.533 494.848C351.552 492.707 350.721 488.026 349.78 486.675ZM176.43 464.356C176.43 464.356 177.602 463.288 178.15 462.889C179.716 461.753 181.156 460.461 182.774 459.327C185.331 457.534 188.397 454.901 191.377 453.668C193.304 452.872 195.517 453.038 197.83 452.516C199.658 452.103 201.938 452.197 203.852 451.782C203.64 451.782 208.691 451.573 208.476 451.573C208.261 451.573 211.662 451.247 213.1 451.259C213.1 456.497 213.745 460.48 213.745 465.719C188.951 464.632 176.43 464.356 176.43 464.356ZM220.735 465.509L219.767 450.944C219.767 450.944 227.842 450.29 235.682 450.264C243.702 450.237 251.491 450.839 251.491 450.839L253.104 467.186L220.735 465.509ZM261.922 467.814C261.922 467.814 259.448 451.15 259.448 451.046C259.448 450.942 274.038 452.899 280.096 455.345C282.243 456.212 284.821 457.122 286.763 458.279C287.788 458.89 290.312 460.165 290.312 460.165L290.957 470.119L261.922 467.814ZM314.888 490.669C315.02 490.607 315.156 490.552 315.296 490.504V485.985C313.939 486.21 312.687 486.729 311.609 487.474L314.888 490.669ZM318.329 498.765V503.283C319.686 503.059 320.938 502.539 322.016 501.794L318.737 498.6C318.605 498.661 318.469 498.716 318.329 498.765ZM319.295 494.634C319.295 494.942 319.551 495.192 319.867 495.192C320.183 495.192 320.44 494.942 320.44 494.634C320.44 494.326 320.183 494.076 319.867 494.076C319.551 494.076 319.295 494.326 319.295 494.634ZM314.33 494.634C314.33 494.326 314.074 494.076 313.758 494.076C313.442 494.076 313.185 494.326 313.185 494.634C313.185 494.942 313.442 495.192 313.758 495.192C314.074 495.192 314.33 494.942 314.33 494.634ZM316.813 492.215C317.129 492.215 317.385 491.966 317.385 491.658C317.385 491.35 317.129 491.1 316.813 491.1C316.496 491.1 316.24 491.35 316.24 491.658C316.24 491.966 316.496 492.215 316.813 492.215ZM322.015 487.474C320.938 486.73 319.685 486.21 318.329 485.985V490.504C318.469 490.552 318.604 490.608 318.737 490.669L322.015 487.474ZM311.61 501.794C312.687 502.539 313.939 503.059 315.296 503.283V498.765C315.156 498.716 315.021 498.661 314.888 498.6L311.61 501.794ZM312.573 496.112H307.936C308.166 497.434 308.699 498.654 309.464 499.704L312.742 496.51C312.68 496.38 312.623 496.248 312.573 496.112ZM312.743 492.759L309.464 489.564C308.7 490.614 308.167 491.835 307.937 493.156H312.573C312.623 493.02 312.68 492.888 312.743 492.759Z" fill="#167DB1"/>
<path d="M95.9157 513.906C95.1364 513.906 94.5046 514.548 94.5046 515.34C94.5046 516.133 95.1364 516.775 95.9157 516.775C96.6949 516.775 97.3267 516.133 97.3267 515.34C97.3267 514.548 96.6951 513.906 95.9157 513.906ZM93.9055 511.017C94.0438 510.951 94.1856 510.89 94.331 510.837V505.912C92.9144 506.156 91.6059 506.723 90.4803 507.535L93.9055 511.017ZM95.9157 517.976C95.5853 517.976 95.3177 518.249 95.3177 518.585C95.3177 518.92 95.5853 519.193 95.9157 519.193C96.246 519.193 96.5136 518.92 96.5136 518.585C96.5138 518.249 96.246 517.976 95.9157 517.976ZM97.5005 519.843V524.768C98.9171 524.523 100.226 523.957 101.351 523.145L97.926 519.663C97.7877 519.729 97.6461 519.79 97.5005 519.843ZM100.344 516.951C100.292 517.099 100.233 517.244 100.168 517.384L103.593 520.867C104.391 519.722 104.948 518.392 105.189 516.951H100.344ZM95.9157 499.68C87.4091 499.68 80.5133 506.691 80.5133 515.34C80.5133 523.989 87.4091 531 95.9157 531C104.422 531 111.318 523.989 111.318 515.34C111.318 506.691 104.422 499.68 95.9157 499.68ZM95.9157 526.526C89.8396 526.526 84.9141 521.518 84.9141 515.34C84.9141 509.162 89.8398 504.154 95.9157 504.154C101.992 504.154 106.917 509.162 106.917 515.34C106.917 521.518 101.992 526.526 95.9157 526.526ZM98.5089 515.34C98.5089 515.676 98.7765 515.948 99.1068 515.948C99.4371 515.948 99.7048 515.676 99.7048 515.34C99.7048 515.004 99.4371 514.732 99.1068 514.732C98.7765 514.732 98.5089 515.004 98.5089 515.34ZM95.9157 512.703C96.246 512.703 96.5136 512.431 96.5136 512.095C96.5136 511.759 96.246 511.487 95.9157 511.487C95.5853 511.487 95.3177 511.759 95.3177 512.095C95.3177 512.431 95.5853 512.703 95.9157 512.703ZM101.351 507.535C100.226 506.723 98.9173 506.156 97.5007 505.912V510.837C97.6461 510.89 97.7879 510.95 97.9264 511.017L101.351 507.535ZM91.6638 513.296L88.2388 509.813C87.4403 510.958 86.8834 512.288 86.6429 513.729H91.4875C91.5395 513.581 91.5981 513.436 91.6638 513.296ZM91.4871 516.951H86.6429C86.8832 518.392 87.4405 519.722 88.2388 520.867L91.664 517.384C91.5985 517.243 91.5391 517.099 91.4871 516.951ZM90.4801 523.145C91.6058 523.957 92.9144 524.524 94.331 524.768V519.843C94.1856 519.79 94.0436 519.73 93.9051 519.663L90.4801 523.145ZM93.3226 515.34C93.3226 515.004 93.055 514.732 92.7247 514.732C92.3944 514.732 92.1267 515.004 92.1267 515.34C92.1267 515.676 92.3944 515.948 92.7247 515.948C93.055 515.948 93.3226 515.676 93.3226 515.34ZM100.344 513.729H105.189C104.948 512.288 104.391 510.958 103.593 509.813L100.167 513.296C100.233 513.436 100.292 513.581 100.344 513.729ZM210.815 513.1C210.036 513.1 209.404 513.742 209.404 514.534C209.404 515.327 210.036 515.969 210.815 515.969C211.594 515.969 212.226 515.327 212.226 514.534C212.226 513.742 211.595 513.1 210.815 513.1ZM212.4 519.037V523.962C213.817 523.718 215.125 523.151 216.251 522.339L212.825 518.857C212.687 518.924 212.546 518.984 212.4 519.037ZM210.815 517.171C210.485 517.171 210.217 517.443 210.217 517.779C210.217 518.115 210.485 518.387 210.815 518.387C211.146 518.387 211.413 518.115 211.413 517.779C211.413 517.443 211.146 517.171 210.815 517.171ZM239.37 507.963C240.114 503.231 239.342 502.823 236.261 495.846C235.425 493.952 233.213 492.799 231.425 491.807C222.079 486.624 198.744 483.41 197.228 483.378C192.477 478.568 184.7 469.521 174.262 462.284C172.315 460.934 165.448 460.725 165.448 460.725C165.448 460.725 109.105 458.53 95.6717 461.779C94.5128 462.059 93.7074 461.961 92.7356 462.481C92.5772 462.566 89.7851 465.499 89.6268 465.818C89.472 466.129 88.5577 467.144 88.2451 467.574C86.1721 470.423 83.6311 473.235 81.8546 476.354C81.0746 477.724 80.7131 479.027 79.9547 480.393C79.2247 481.708 76.5689 482.719 76.1551 485.134C75.9564 486.293 74.6602 485.86 74.6006 487.593C75.1926 487.778 75.2641 487.998 75.9822 488.119C74.9437 491.959 74.3064 498.813 74.2513 499.535C74.2527 499.535 74.2538 499.534 74.2552 499.534C74.2464 499.621 74.2452 499.616 74.2513 499.535C71.0019 500.572 71.3036 506.509 71 505.433C71.3907 507.013 72.467 509.071 72.8734 510.772C73.2214 512.23 72.0656 512.852 72.0097 514.284C72.2618 514.434 72.5048 516.007 72.7005 516.216C73.5219 518.515 79.9503 520.596 79.9503 520.596L80.5872 520.596C80.0399 518.946 79.743 517.178 79.743 515.34C79.743 506.258 86.9837 498.896 95.9157 498.896C104.848 498.896 112.088 506.258 112.088 515.34C112.088 517.192 111.787 518.973 111.231 520.635L195.836 520.742C195.068 518.826 194.643 516.731 194.643 514.534C194.643 505.453 201.883 498.091 210.815 498.091C219.747 498.091 226.988 505.453 226.988 514.534C226.988 516.745 226.557 518.854 225.779 520.78L227.107 520.782C227.107 520.782 237.035 521.72 238.334 518.499C238.867 517.894 239.064 514.835 239.024 513.055C239.044 511.224 239.407 511.577 239.888 510.421C240.355 509.298 239.198 508.476 239.37 507.963ZM126.415 480.568C126.098 480.794 126.119 480.914 125.724 481.095C124.466 482.065 112.186 480.744 95.499 480.744C95.7829 481.156 93.5456 480.801 95.3263 476.881C97.7468 471.552 101.438 467.819 101.235 467.744C106.139 466.994 119.278 467.212 126.415 467.398C126.27 471.613 126.329 473.895 126.415 480.568ZM176.329 484.608C176.072 484.235 175.263 483.76 175.12 483.378C174.956 482.937 175.391 482.064 175.12 481.447C174.377 479.748 171.913 478.605 169.421 478.637C168.827 479.336 167.93 479.647 167.521 480.568C167.408 480.824 166.971 483.239 167.003 483.378C167.088 483.756 167.3 483.826 167.353 484.021C167.797 484.039 167.582 484.09 167.348 484.256C167.372 484.156 167.371 484.082 167.353 484.021C166.108 483.97 159.668 484.182 133.842 482.851C133.126 469.03 132.484 468.577 134.014 466.345C149.127 466.345 165.103 466.169 165.103 466.169C165.103 466.169 176.47 480.277 179.956 484.783C179.34 485.083 177.335 484.653 176.329 484.608ZM187.21 483.203C181.601 478.627 174.197 468.76 170.63 465.818C169.42 465.818 173.46 465.748 175.639 465.291C182.14 471.122 188.87 476.397 194.776 483.258C191.979 483.388 189.585 485.139 187.21 483.203ZM210.815 498.874C202.309 498.874 195.413 505.886 195.413 514.534C195.413 523.183 202.309 530.194 210.815 530.194C219.322 530.194 226.218 523.183 226.218 514.534C226.218 505.885 219.322 498.874 210.815 498.874ZM210.815 525.72C204.739 525.72 199.814 520.712 199.814 514.534C199.814 508.357 204.739 503.349 210.815 503.349C216.891 503.349 221.817 508.357 221.817 514.534C221.817 520.712 216.891 525.72 210.815 525.72ZM215.067 516.579L218.492 520.061C219.291 518.917 219.848 517.586 220.088 516.146H215.244C215.192 516.293 215.133 516.438 215.067 516.579ZM215.244 512.923H220.088C219.848 511.483 219.29 510.152 218.492 509.008L215.067 512.49C215.133 512.631 215.192 512.775 215.244 512.923ZM208.805 510.212C208.944 510.145 209.085 510.085 209.231 510.031V505.106C207.814 505.351 206.506 505.918 205.38 506.729L208.805 510.212ZM208.222 514.534C208.222 514.198 207.955 513.926 207.624 513.926C207.294 513.926 207.026 514.198 207.026 514.534C207.026 514.87 207.294 515.142 207.624 515.142C207.955 515.142 208.222 514.87 208.222 514.534ZM210.815 511.898C211.146 511.898 211.413 511.626 211.413 511.29C211.413 510.954 211.146 510.682 210.815 510.682C210.485 510.682 210.217 510.954 210.217 511.29C210.217 511.625 210.485 511.898 210.815 511.898ZM216.251 506.729C215.125 505.917 213.817 505.351 212.4 505.106V510.031C212.546 510.084 212.688 510.145 212.826 510.211L216.251 506.729ZM213.409 514.534C213.409 514.87 213.676 515.142 214.007 515.142C214.337 515.142 214.605 514.87 214.605 514.534C214.605 514.198 214.337 513.926 214.007 513.926C213.676 513.926 213.409 514.198 213.409 514.534ZM206.564 512.49L203.138 509.007C202.34 510.152 201.783 511.482 201.542 512.923H206.387C206.439 512.775 206.498 512.631 206.564 512.49ZM205.38 522.34C206.505 523.151 207.814 523.718 209.231 523.962V519.037C209.085 518.985 208.943 518.924 208.805 518.857L205.38 522.34ZM206.387 516.146H201.543C201.783 517.586 202.34 518.917 203.139 520.061L206.564 516.578C206.498 516.438 206.439 516.293 206.387 516.146Z" fill="#1274A8"/>
<path d="M662.326 487.387C661.565 487.387 660.948 488.011 660.948 488.781C660.948 489.551 661.565 490.176 662.326 490.176C663.087 490.176 663.704 489.551 663.704 488.781C663.704 488.011 663.087 487.387 662.326 487.387ZM660.363 484.58C660.498 484.515 660.637 484.456 660.779 484.405V479.619C659.396 479.856 658.118 480.407 657.019 481.196L660.363 484.58ZM662.326 491.343C662.003 491.343 661.742 491.608 661.742 491.934C661.742 492.261 662.003 492.525 662.326 492.525C662.648 492.525 662.91 492.261 662.91 491.934C662.91 491.608 662.648 491.343 662.326 491.343ZM663.873 493.157V497.944C665.256 497.706 666.534 497.155 667.633 496.366L664.289 492.982C664.154 493.047 664.015 493.106 663.873 493.157ZM666.65 490.347C666.599 490.491 666.541 490.631 666.477 490.768L669.821 494.152C670.601 493.04 671.145 491.747 671.38 490.347H666.65ZM662.326 473.562C654.021 473.562 647.288 480.376 647.288 488.781C647.288 497.186 654.021 504 662.326 504C670.631 504 677.364 497.186 677.364 488.781C677.364 480.376 670.631 473.562 662.326 473.562ZM662.326 499.652C656.394 499.652 651.585 494.785 651.585 488.781C651.585 482.777 656.394 477.91 662.326 477.91C668.258 477.91 673.067 482.777 673.067 488.781C673.067 494.785 668.258 499.652 662.326 499.652ZM664.858 488.781C664.858 489.107 665.119 489.372 665.442 489.372C665.764 489.372 666.025 489.107 666.025 488.781C666.025 488.455 665.764 488.19 665.442 488.19C665.119 488.19 664.858 488.455 664.858 488.781ZM662.326 486.219C662.648 486.219 662.91 485.954 662.91 485.628C662.91 485.301 662.648 485.037 662.326 485.037C662.003 485.037 661.742 485.301 661.742 485.628C661.742 485.954 662.003 486.219 662.326 486.219ZM667.633 481.196C666.534 480.407 665.257 479.856 663.873 479.619V484.405C664.015 484.456 664.154 484.515 664.289 484.58L667.633 481.196ZM658.175 486.794L654.831 483.41C654.051 484.522 653.507 485.815 653.273 487.215H658.003C658.053 487.072 658.111 486.931 658.175 486.794ZM658.002 490.347H653.273C653.507 491.747 654.051 493.04 654.831 494.152L658.175 490.767C658.111 490.631 658.053 490.491 658.002 490.347ZM657.019 496.367C658.118 497.156 659.396 497.706 660.779 497.944V493.157C660.637 493.106 660.498 493.047 660.363 492.982L657.019 496.367ZM659.794 488.781C659.794 488.455 659.533 488.19 659.21 488.19C658.888 488.19 658.627 488.454 658.627 488.781C658.627 489.107 658.888 489.372 659.21 489.372C659.533 489.372 659.794 489.107 659.794 488.781ZM666.65 487.215H671.379C671.145 485.815 670.601 484.522 669.821 483.41L666.477 486.795C666.541 486.931 666.599 487.071 666.65 487.215ZM774.506 486.604C773.745 486.604 773.129 487.228 773.129 487.998C773.129 488.768 773.745 489.392 774.506 489.392C775.267 489.392 775.884 488.768 775.884 487.998C775.884 487.228 775.267 486.604 774.506 486.604ZM776.054 492.374V497.16C777.436 496.923 778.714 496.372 779.813 495.583L776.469 492.199C776.334 492.264 776.195 492.323 776.054 492.374ZM774.506 490.56C774.183 490.56 773.922 490.825 773.922 491.151C773.922 491.478 774.183 491.742 774.506 491.742C774.828 491.742 775.09 491.478 775.09 491.151C775.09 490.825 774.829 490.56 774.506 490.56ZM802.385 481.612C803.111 477.013 802.358 476.617 799.35 469.836C798.533 467.996 796.374 466.875 794.628 465.911C785.503 460.874 762.721 457.751 761.24 457.72C756.602 453.045 749.008 444.253 738.818 437.22C736.917 435.908 730.213 435.705 730.213 435.705C730.213 435.705 675.203 433.571 662.088 436.729C660.956 437.001 660.17 436.906 659.221 437.411C659.067 437.494 656.341 440.344 656.186 440.654C656.035 440.956 655.142 441.943 654.837 442.36C652.813 445.129 650.332 447.862 648.598 450.893C647.836 452.224 647.483 453.491 646.743 454.818C646.03 456.096 643.437 457.079 643.033 459.426C642.839 460.552 641.574 460.131 641.515 461.815C642.093 461.996 642.163 462.21 642.864 462.327C641.85 466.059 641.228 472.719 641.174 473.421C641.176 473.421 641.177 473.42 641.178 473.42C641.17 473.505 641.168 473.5 641.174 473.421C638.002 474.429 638.296 480.198 638 479.153C638.381 480.689 639.432 482.688 639.829 484.342C640.169 485.759 639.04 486.363 638.986 487.755C639.232 487.901 639.469 489.43 639.66 489.632C640.462 491.867 646.738 493.889 646.738 493.889L647.36 493.889C646.826 492.285 646.536 490.567 646.536 488.781C646.536 479.955 653.605 472.801 662.326 472.801C671.046 472.801 678.116 479.955 678.116 488.781C678.116 490.581 677.821 492.312 677.279 493.927L759.882 494.031C759.131 492.169 758.716 490.133 758.716 487.998C758.716 479.172 765.786 472.018 774.506 472.018C783.227 472.018 790.296 479.172 790.296 487.998C790.296 490.147 789.876 492.196 789.115 494.068L790.412 494.069C790.412 494.069 800.105 494.981 801.373 491.851C801.893 491.263 802.086 488.291 802.047 486.561C802.066 484.781 802.421 485.125 802.891 484.001C803.347 482.909 802.217 482.111 802.385 481.612ZM692.103 454.989C691.794 455.208 691.815 455.325 691.429 455.501C690.2 456.443 678.211 455.16 661.919 455.16C662.196 455.56 660.012 455.215 661.751 451.405C664.114 446.227 667.718 442.599 667.519 442.526C672.307 441.797 685.136 442.009 692.103 442.19C691.962 446.286 692.02 448.504 692.103 454.989ZM740.836 458.914C740.585 458.552 739.795 458.091 739.656 457.72C739.496 457.291 739.92 456.442 739.656 455.843C738.93 454.192 736.524 453.08 734.091 453.112C733.512 453.792 732.636 454.094 732.236 454.989C732.126 455.237 731.7 457.584 731.731 457.72C731.814 458.086 732.02 458.155 732.073 458.344C732.506 458.361 732.296 458.411 732.068 458.573C732.091 458.475 732.09 458.404 732.073 458.344C730.857 458.295 724.569 458.5 699.354 457.208C698.656 443.775 698.029 443.335 699.523 441.166C714.278 441.166 729.876 440.995 729.876 440.995C729.876 440.995 740.974 454.705 744.377 459.085C743.776 459.377 741.818 458.958 740.836 458.914ZM751.46 457.549C745.983 453.103 738.755 443.514 735.272 440.654C734.091 440.654 738.035 440.586 740.162 440.142C746.509 445.809 753.081 450.936 758.846 457.603C756.116 457.729 753.778 459.431 751.46 457.549ZM774.506 472.779C766.201 472.779 759.468 479.593 759.468 487.998C759.468 496.403 766.201 503.217 774.506 503.217C782.811 503.217 789.544 496.403 789.544 487.998C789.544 479.593 782.811 472.779 774.506 472.779ZM774.506 498.869C768.574 498.869 763.765 494.002 763.765 487.998C763.765 481.994 768.574 477.128 774.506 477.128C780.438 477.128 785.247 481.994 785.247 487.998C785.247 494.002 780.438 498.869 774.506 498.869ZM778.658 489.985L782.001 493.369C782.781 492.257 783.325 490.964 783.56 489.564H778.83C778.779 489.708 778.721 489.848 778.658 489.985ZM778.83 486.432H783.559C783.325 485.032 782.781 483.739 782.001 482.627L778.657 486.012C778.721 486.148 778.779 486.288 778.83 486.432ZM772.544 483.797C772.679 483.733 772.817 483.674 772.959 483.622V478.836C771.576 479.073 770.298 479.624 769.199 480.413L772.544 483.797ZM771.974 487.998C771.974 487.672 771.713 487.407 771.39 487.407C771.068 487.407 770.807 487.672 770.807 487.998C770.807 488.324 771.068 488.589 771.39 488.589C771.713 488.589 771.974 488.324 771.974 487.998ZM774.506 485.436C774.828 485.436 775.09 485.171 775.09 484.845C775.09 484.518 774.829 484.254 774.506 484.254C774.183 484.254 773.922 484.518 773.922 484.845C773.922 485.171 774.184 485.436 774.506 485.436ZM779.813 480.413C778.714 479.624 777.437 479.073 776.054 478.836V483.622C776.196 483.673 776.334 483.732 776.469 483.797L779.813 480.413ZM777.038 487.998C777.038 488.324 777.299 488.589 777.622 488.589C777.944 488.589 778.206 488.325 778.206 487.998C778.206 487.672 777.944 487.407 777.622 487.407C777.299 487.407 777.038 487.672 777.038 487.998ZM770.355 486.011L767.011 482.627C766.231 483.739 765.687 485.032 765.453 486.432H770.182C770.234 486.288 770.291 486.148 770.355 486.011ZM769.199 495.584C770.298 496.372 771.576 496.923 772.959 497.161V492.374C772.817 492.323 772.678 492.264 772.543 492.199L769.199 495.584ZM770.182 489.564H765.453C765.688 490.964 766.232 492.257 767.011 493.369L770.355 489.985C770.291 489.848 770.233 489.708 770.182 489.564Z" fill="#2292CA"/>
<path d="M463.323 519.829C462.932 519.829 462.614 520.146 462.614 520.537C462.614 520.928 462.932 521.246 463.323 521.246C463.715 521.246 464.032 520.928 464.032 520.537C464.032 520.146 463.715 519.829 463.323 519.829ZM463.323 515.087C462.4 515.087 461.651 515.835 461.651 516.758C461.651 517.68 462.4 518.428 463.323 518.428C464.247 518.428 464.996 517.68 464.996 516.758C464.996 515.835 464.247 515.087 463.323 515.087ZM460.94 511.722C461.104 511.644 461.272 511.574 461.445 511.512V505.775C459.765 506.06 458.214 506.72 456.88 507.665L460.94 511.722ZM463.323 498.515C453.24 498.515 445.066 506.683 445.066 516.758C445.066 526.832 453.24 535 463.323 535C473.407 535 481.581 526.832 481.581 516.758C481.581 506.683 473.407 498.515 463.323 498.515ZM463.323 529.788C456.121 529.788 450.282 523.954 450.282 516.758C450.282 509.561 456.121 503.727 463.323 503.727C470.526 503.727 476.364 509.561 476.364 516.758C476.364 523.954 470.526 529.788 463.323 529.788ZM465.202 522.003V527.74C466.881 527.456 468.432 526.796 469.767 525.85L465.706 521.793C465.542 521.871 465.374 521.942 465.202 522.003ZM468.573 514.881H474.315C474.03 513.203 473.37 511.653 472.424 510.32L468.364 514.376C468.441 514.54 468.511 514.709 468.573 514.881ZM468.363 519.139L472.423 523.195C473.37 521.862 474.03 520.312 474.315 518.634H468.573C468.511 518.807 468.441 518.975 468.363 519.139ZM456.88 525.85C458.214 526.795 459.765 527.456 461.445 527.74V522.003C461.272 521.941 461.105 521.871 460.941 521.793L456.88 525.85ZM466.397 516.758C466.397 517.149 466.715 517.466 467.106 517.466C467.498 517.466 467.815 517.149 467.815 516.758C467.815 516.366 467.498 516.049 467.106 516.049C466.715 516.049 466.397 516.366 466.397 516.758ZM469.766 507.665C468.432 506.72 466.881 506.06 465.202 505.775V511.512C465.374 511.574 465.542 511.645 465.706 511.722L469.766 507.665ZM463.323 513.686C463.715 513.686 464.032 513.369 464.032 512.978C464.032 512.587 463.715 512.27 463.323 512.27C462.932 512.27 462.614 512.587 462.614 512.978C462.614 513.369 462.932 513.686 463.323 513.686ZM458.074 518.635H452.332C452.617 520.313 453.277 521.863 454.223 523.196L458.283 519.139C458.206 518.975 458.136 518.807 458.074 518.635ZM458.284 514.377L454.224 510.32C453.277 511.653 452.617 513.203 452.332 514.881H458.074C458.136 514.708 458.206 514.54 458.284 514.377ZM460.25 516.758C460.25 516.366 459.932 516.049 459.541 516.049C459.149 516.049 458.831 516.366 458.831 516.758C458.831 517.149 459.149 517.466 459.541 517.466C459.932 517.466 460.25 517.149 460.25 516.758ZM607.664 515.087C606.74 515.087 605.992 515.835 605.992 516.758C605.992 517.68 606.74 518.428 607.664 518.428C608.588 518.428 609.337 517.68 609.337 516.758C609.337 515.835 608.588 515.087 607.664 515.087ZM607.664 519.829C607.273 519.829 606.955 520.146 606.955 520.537C606.955 520.928 607.273 521.246 607.664 521.246C608.056 521.246 608.373 520.928 608.373 520.537C608.373 520.146 608.056 519.829 607.664 519.829ZM612.914 514.881H618.656C618.371 513.203 617.711 511.653 616.765 510.32L612.704 514.376C612.782 514.54 612.852 514.709 612.914 514.881ZM607.664 498.515C597.581 498.515 589.407 506.683 589.407 516.758C589.407 526.832 597.581 535 607.664 535C617.747 535 625.922 526.832 625.922 516.758C625.922 506.683 617.747 498.515 607.664 498.515ZM607.664 529.788C600.462 529.788 594.623 523.954 594.623 516.758C594.623 509.561 600.462 503.727 607.664 503.727C614.867 503.727 620.705 509.561 620.705 516.758C620.705 523.954 614.867 529.788 607.664 529.788ZM612.704 519.139L616.764 523.195C617.71 521.862 618.371 520.312 618.656 518.634H612.914C612.852 518.807 612.782 518.975 612.704 519.139ZM648.49 506.651C648.151 506.153 647.178 505.932 646.891 505.454C646.509 504.814 646.523 503.518 646.226 502.793C643.735 496.715 640.992 494.854 637.436 492.68C632.444 489.628 627.114 488.364 621.19 486.16C621.475 486.266 612.256 483.757 610.004 483.366C608.619 482.912 603.621 481.469 602.413 481.902C601.086 480.532 598.744 479.859 597.086 478.842C594.411 477.2 591.653 475.433 588.963 473.786C587.526 472.905 586.013 472.403 584.569 471.524C580.83 469.246 572.583 465.536 572.583 465.536C572.583 465.536 542.175 448.421 435.021 457.818C433.726 457.944 432.134 457.856 431.159 458.484C431.026 458.528 430.892 458.572 430.759 458.617C430.783 459.646 431.263 462.888 430.759 463.673C430.607 464.855 428.321 466.679 427.563 467.532C425.797 469.52 423.943 471.662 422.37 473.785C421.647 474.761 420.956 476.145 419.972 476.846C419.663 477.154 417.911 479.726 417.176 480.838C416.479 481.891 415.107 484.536 414.779 485.761C414.099 488.296 415.041 491.498 415.445 493.478C415.476 493.629 415.381 497.696 415.445 499.466C414.993 501.086 413.954 502.837 413.314 504.389C412.598 506.123 412.452 507.498 411.05 508.514C410.867 512.16 411.128 515.556 412.781 517.695C413.773 518.978 417.577 524.88 417.577 524.88H445.554C444.42 522.407 443.787 519.656 443.787 516.757C443.787 505.977 452.533 497.238 463.322 497.238C474.112 497.238 482.858 505.977 482.858 516.757C482.858 519.656 482.225 522.407 481.09 524.88H589.895C588.761 522.407 588.127 519.656 588.127 516.757C588.127 505.977 596.874 497.238 607.663 497.238C618.452 497.238 627.199 505.977 627.199 516.757C627.199 519.656 626.565 522.407 625.431 524.88H639.7C639.7 524.88 651.271 524.219 647.025 521.021C647.481 519.95 647.556 518.347 648.356 517.296C648.589 517.127 649.064 517.059 649.422 517.03C650.684 514.31 649.654 508.367 648.49 506.651ZM433.822 478.31C433.822 478.31 435.273 476.952 435.953 476.447C437.892 475.004 439.675 473.363 441.679 471.923C444.845 469.647 448.642 466.303 452.333 464.738C454.719 463.726 457.458 463.937 460.323 463.274C462.586 462.75 465.411 462.87 467.78 462.343C467.518 462.343 473.773 462.077 473.506 462.077C473.24 462.077 477.452 461.663 479.232 461.677C479.232 468.33 480.032 473.388 480.032 480.04C449.328 478.66 433.822 478.31 433.822 478.31ZM488.687 479.773L487.489 461.278C487.489 461.278 497.489 460.447 507.197 460.414C517.129 460.381 526.773 461.145 526.773 461.145L528.771 481.902L488.687 479.773ZM539.691 482.7C539.691 482.7 536.628 461.54 536.628 461.408C536.628 461.275 554.695 463.761 562.196 466.866C564.856 467.967 568.048 469.123 570.453 470.592C571.722 471.368 574.848 472.987 574.848 472.987L575.647 485.628L539.691 482.7ZM605.281 511.722C605.445 511.644 605.613 511.574 605.786 511.512V505.775C604.106 506.06 602.555 506.72 601.221 507.665L605.281 511.722ZM609.543 522.003V527.74C611.222 527.456 612.773 526.796 614.107 525.85L610.048 521.793C609.883 521.871 609.715 521.942 609.543 522.003ZM610.738 516.758C610.738 517.149 611.056 517.466 611.447 517.466C611.839 517.466 612.156 517.149 612.156 516.758C612.156 516.366 611.839 516.049 611.447 516.049C611.056 516.049 610.738 516.366 610.738 516.758ZM604.59 516.758C604.59 516.366 604.273 516.049 603.882 516.049C603.49 516.049 603.173 516.366 603.173 516.758C603.173 517.149 603.49 517.466 603.882 517.466C604.273 517.466 604.59 517.149 604.59 516.758ZM607.664 513.686C608.056 513.686 608.373 513.369 608.373 512.978C608.373 512.587 608.056 512.27 607.664 512.27C607.273 512.27 606.955 512.587 606.955 512.978C606.955 513.369 607.273 513.686 607.664 513.686ZM614.107 507.665C612.773 506.72 611.222 506.06 609.543 505.775V511.512C609.715 511.574 609.883 511.645 610.047 511.722L614.107 507.665ZM601.221 525.85C602.555 526.795 604.106 527.456 605.786 527.74V522.003C605.613 521.941 605.445 521.871 605.281 521.793L601.221 525.85ZM602.415 518.635H596.672C596.957 520.313 597.617 521.863 598.564 523.196L602.624 519.139C602.546 518.975 602.477 518.807 602.415 518.635ZM602.624 514.377L598.564 510.32C597.618 511.653 596.958 513.203 596.673 514.881H602.415C602.476 514.708 602.547 514.54 602.624 514.377Z" fill="#1B88BF"/>
</g>
<path d="M386.416 586H422.775V663.96H369.102L386.416 586Z" fill="white"/>
<path d="M439.227 586H475.586L505.886 663.96H452.212L439.227 586Z" fill="white"/>
<path d="M166.528 586H202.887L90.3454 663.96H41L166.528 586Z" fill="white"/>
<path d="M492.9 586H529.26L589.86 663.96H536.186L492.9 586Z" fill="white"/>
<path d="M223.664 586H260.024L177.782 663.96H119.779L223.664 586Z" fill="white"/>
<path d="M550.904 586H586.831L682.492 663.96H620.161L550.904 586Z" fill="white"/>
<path d="M278.204 586H314.564L258.293 663.96H208.947L278.204 586Z" fill="white"/>
<path d="M608.906 586H645.266L770.794 663.96H708.463L608.906 586Z" fill="white"/>
<path d="M332.745 586H369.105L334.476 663.96H285.131L332.745 586Z" fill="white"/>
<path d="M454.691 529.728C454.691 529.728 459.059 520.469 469.702 525.963C480.345 531.457 470.01 552.506 475.547 557.691C481.145 562.877 473.517 566.272 474.685 570.037C475.793 573.741 472.594 578 465.15 577.506C457.706 577.012 449.892 577.383 446.57 570.901C443.187 564.358 443.986 550.037 445.278 548C446.509 545.963 454.691 529.728 454.691 529.728Z" fill="#131F2D"/>
<path d="M432.974 618L466.995 617.136C469.702 617.074 471.855 614.79 471.794 612.074L470.686 566.58C470.625 563.864 468.349 561.704 465.642 561.765L431.62 562.63C428.913 562.691 426.76 564.975 426.822 567.691L427.929 613.185C427.991 615.963 430.267 618.062 432.974 618Z" fill="#B05638"/>
<path d="M316.514 541.333C319.467 538.062 323.343 527.321 324.758 523.247L329.249 510.531C334.847 511.21 338.477 512.877 338.108 516.148C336.693 528.617 319.898 544.358 319.898 544.358C319.898 544.358 316.453 549.482 313.438 551.272C310.423 553.062 305.379 550.84 305.133 550.037C304.887 549.235 306.363 546.087 307.593 544.482C308.762 542.815 316.022 541.457 316.514 541.333Z" fill="#FCBF93"/>
<path d="M437.465 579.173L455.491 568.247C455.367 568.185 454.998 567.63 453.706 563.741C453.153 562.074 452.845 560.593 452.661 559.482C452.661 559.358 452.661 559.235 452.599 559.173C452.414 557.506 452.538 556.519 452.538 556.519L448.6 557.938L441.279 560.593C441.341 562.444 441.095 563.741 440.725 564.667C439.741 566.827 438.019 566.889 437.957 566.889L437.465 579.173Z" fill="#FCBF93"/>
<path d="M440.787 564.667C447.862 565.284 451.861 560.654 452.722 559.481C452.845 559.296 452.907 559.235 452.907 559.235C452.907 559.235 452.845 559.235 452.661 559.173C452.107 558.988 450.508 558.556 448.662 558L441.341 560.654C441.402 562.444 441.156 563.741 440.787 564.667Z" fill="#EF6343"/>
<path d="M440.418 562.136C440.418 562.136 456.106 563.864 456.414 553.185C456.722 542.506 459.059 537.692 448.17 536.704C437.281 535.778 434.758 539.667 434.082 543.309C432.175 554.543 435.989 561.642 440.418 562.136Z" fill="#FCBF93"/>
<path d="M447.368 541.889C452.905 540.469 450.814 550.346 452.229 549.667C453.828 548.926 456.474 548.926 456.043 550.84C455.612 552.753 454.997 553.432 454.69 554.605C454.382 555.778 454.69 558.124 455.981 557.691C457.273 557.198 469.27 543.432 460.78 532.753C452.29 522.012 427.005 528.617 434.941 539.852C436.418 541.827 443.431 542.938 447.368 541.889Z" fill="#131F2D"/>
<path d="M400.86 562.444C401.414 561.086 403.259 561.333 404.674 562.938C405.966 564.42 405.905 568.432 405.905 569.049C407.504 571.086 412.857 576.827 415.871 579.482C416.548 580.037 417.717 579.852 418.394 579.296C420.116 577.753 423.069 575.222 424.607 574.296C426.883 572.938 439.68 564.173 441.341 567.877C441.341 567.877 440.418 582.198 419.685 590.778C417.655 591.642 415.317 591.395 413.533 590.161C410.396 588.062 405.536 583.124 402.152 570.407C402.213 570.407 399.076 566.765 400.86 562.444Z" fill="#E9AA7D"/>
<path d="M426.822 695.099L435.128 697.321C435.128 697.321 440.234 679.482 441.341 667.074C441.526 665.222 441.587 663.432 441.526 661.889C441.28 654.79 456.291 625.222 446.017 618.556C438.942 613.926 428.668 617.815 428.668 617.815C428.668 617.815 427.253 655.346 427.253 662.383C427.253 663.371 427.253 664.667 427.253 666.21C427.191 675.901 426.822 695.099 426.822 695.099Z" fill="#FCBF93"/>
<path d="M442.631 619.975C442.631 619.975 449.398 658.185 450.998 666.704C451.121 667.383 451.244 667.877 451.305 668.124C452.044 671.642 455.919 695.963 455.919 695.963L464.163 695.531C464.163 695.531 466.624 677.691 466.132 664.852C466.009 661.704 465.701 658.864 465.148 656.704C462.256 645.531 468.962 618 458.319 611.519C447.614 605.037 442.631 619.975 442.631 619.975Z" fill="#FCBF93"/>
<path d="M463.797 569.79C463.797 569.79 475.671 593.556 478.563 596.457C481.454 599.358 491.728 608.803 495.296 611.395C495.296 611.395 506.186 614.543 505.939 615.84C505.693 617.136 498.372 616.889 497.511 617.198C496.711 617.506 499.111 619.543 497.08 619.482C495.727 619.42 494.435 617.074 493.697 615.469C493.697 615.469 475.117 606.333 472.41 604.914C469.642 603.432 461.398 593.062 459.983 588.679C458.568 584.296 463.797 569.79 463.797 569.79Z" fill="#FCBF93"/>
<path d="M420.854 587.506C418.639 582.012 419.931 576.395 419.931 576.395C427.621 567.691 432.42 566.889 434.081 566.889C439.495 565.901 449.461 566.58 454.937 567.074C454.937 567.012 454.937 566.951 454.937 566.951C454.937 566.951 463.734 567.63 466.195 570.531C468.718 573.494 477.577 588.37 477.577 588.37C477.577 588.37 478.007 592.012 473.947 595.963C472.532 597.383 470.502 598.803 467.672 600.161C466.933 600.531 466.195 600.654 465.518 600.593L473.701 640.469C470.625 645.469 464.288 648.741 457.029 650.716C441.894 654.914 422.761 653.617 421.285 651.333C419.747 641.765 421.961 614.111 425.037 593.185C423.007 591.642 421.654 589.543 420.854 587.506Z" fill="#F16C0B"/>
<path d="M451 666.704C451.123 667.383 451.246 667.876 451.308 668.123C452.046 671.642 455.922 695.963 455.922 695.963L464.166 695.531C464.166 695.531 466.626 677.691 466.134 664.852C463.919 665.901 459.551 667.012 451 666.704Z" fill="#364154"/>
<path d="M444.109 702.136H464.78C464.78 702.136 465.149 698.741 464.719 695.84C464.657 695.469 464.473 695.161 464.227 694.914C462.996 695.346 461.212 695.593 459.243 694.914C457.644 694.296 456.167 693.247 455.367 692.383C455.183 692.568 451.122 696.889 449.154 696.889C447.062 696.889 443.986 697.877 444.109 702.136Z" fill="#131F2D"/>
<path d="M426.822 695.099L435.128 697.321C435.128 697.321 440.234 679.482 441.341 667.074C437.896 667.321 431.99 667.506 427.253 666.21C427.191 675.901 426.822 695.099 426.822 695.099Z" fill="#364154"/>
<path d="M415.502 702.136H436.173C436.173 702.136 436.542 698.741 436.111 695.84C436.05 695.469 436.111 695.161 435.865 694.914C434.635 695.346 432.605 695.593 430.636 694.914C429.036 694.296 427.744 693.247 426.945 692.445C426.76 692.63 422.515 696.951 420.546 696.951C418.455 696.889 415.379 697.877 415.502 702.136Z" fill="#131F2D"/>
<path d="M457.089 650.901C464.349 648.926 470.686 645.654 473.762 640.654L465.579 600.778C465.518 600.716 447.492 637.012 457.089 650.901Z" fill="#CA5C0B"/>
<path d="M466.193 570.593C466.193 570.593 467.793 591.334 473.945 596.087C478.005 592.136 477.575 588.494 477.575 588.494C477.575 588.494 468.654 573.556 466.193 570.593Z" fill="#CA5C0B"/>
<path d="M420.854 587.506C421.715 589.605 422.945 591.704 425.098 593.432C425.652 591.58 426.76 587.383 425.406 586.642C423.683 585.654 420.854 587.506 420.854 587.506Z" fill="#CA5C0B"/>
<path d="M402.214 560.901C400.983 560.099 399.753 557.691 399.322 556.765C395.508 547.198 391.078 528.556 389.602 525.161C389.048 523.926 388.064 518.062 386.71 510.469C384.311 496.889 380.866 477.815 377.482 470.284C377.052 469.358 375.883 468.617 374.345 467.938C370.284 466.21 363.64 465.407 362.04 465.222C360.379 463.864 358.103 458.185 358.103 449.482L357.365 449.605L344.876 452.074C344.876 452.074 345.184 456.025 345.184 459.728C345.184 462.815 344.999 465.716 344.322 466.087C343.399 466.148 342.907 466.21 342.907 466.21C342.907 466.21 332.51 480.716 331.649 494.173C330.788 507.63 339.954 513.494 331.587 540.407C323.036 567.877 381.235 550.531 378.036 543.37C372.253 530.346 369.484 526.642 369.361 522.568C369.3 519.667 370.53 516.58 372.991 509.975C373.237 510.778 373.422 511.58 373.606 512.383C375.021 517.568 376.19 522.136 376.682 524.482C378.159 531.58 394.524 558.741 394.524 558.741C394.524 558.741 395.016 559.049 395.57 560.716C396.123 562.383 400.737 571.148 402.768 571.148C404.736 571.148 405.167 568.185 405.597 566.272C405.967 564.296 403.752 561.889 402.214 560.901Z" fill="#FCBF93"/>
<path d="M374.283 414.605C371.514 412.877 367.085 414.914 367.085 414.914C368.623 412.753 374.16 413.494 374.16 413.494C363.025 411.148 360.748 418.247 360.564 418.926C352.504 411.642 339.646 427.198 339.646 427.198L358.164 451.766C358.164 451.766 359.825 447.877 362.102 449.049C365.547 450.963 372.314 443.247 370.161 433.124C369.915 432.012 369.669 431.025 369.361 430.099C370.099 430.407 370.899 430.654 371.638 430.654C373.668 430.654 376.682 425.469 377.113 423.741C377.544 422.012 377.051 416.272 374.283 414.605Z" fill="#131F2D"/>
<path d="M344.938 452.074C344.938 452.074 345.245 456.025 345.245 459.728C352.197 459.482 355.888 453.124 357.365 449.605L344.938 452.074Z" fill="#EF6343"/>
<path d="M358.656 448.247C358.656 448.247 362.286 442.445 363.209 437.506C363.824 433.988 362.04 420.84 348.936 422.753C348.936 422.753 345.121 423.124 341.553 425.531C338.723 427.445 334.601 431.642 339.215 443.062L340.384 446.951L358.656 448.247Z" fill="#131F2D"/>
<path d="M342.599 455.593C342.599 455.593 359.087 455.84 359.087 445.531C359.087 435.222 361.24 428.309 350.72 427.691C340.2 427.074 338.108 431.025 337.308 434.482C336.447 437.877 338.292 455.222 342.599 455.593Z" fill="#FCBF93"/>
<path d="M363.393 668.247C359.271 684.79 352.996 697.506 352.996 697.506L347.582 697.136C347.582 697.136 350.227 684.42 350.104 667.198C349.981 655.161 348.505 640.963 343.768 627.383C327.465 580.716 330.11 546.766 330.11 546.766L360.748 550.346L362.163 550.531C362.286 564.667 362.655 583.803 362.962 598.741C363.27 612.198 363.516 622.321 363.516 622.321C369.361 635.037 367.207 653 363.393 668.247Z" fill="#131F2D"/>
<path d="M373.974 507.259C370.898 515.84 369.299 519.296 369.36 522.568C359.517 507.259 341.676 504.975 341.676 504.975L375.451 501.087C375.205 503.124 374.713 505.222 373.974 507.259Z" fill="#CB7D45"/>
<path d="M380.988 665.593C379.204 684.42 371.452 696.642 371.452 696.642L368.868 698.556C368.868 698.556 366.407 685.284 364.685 669.482C363.024 654.482 360.747 638.556 358.164 633.741C347.951 614.482 344.875 541.889 344.875 541.889L375.882 540.346C379.019 545.593 380.373 554.235 380.68 564.05C381.48 588.803 375.697 621.148 374.836 625.84C374.774 626.21 374.897 626.58 375.02 626.889C381.234 639.111 382.157 653.185 380.988 665.593Z" fill="#364154"/>
<path d="M354.658 441.333C361.61 443.123 364.624 441.272 364.624 441.272C364.624 441.272 367.639 428.617 361.733 424.049C353.181 417.444 343.707 426.704 343.338 427.259C342.23 426.333 340.323 425.654 337.801 428.741C333.987 433.37 337.37 441.642 337.37 441.642C338.97 441.827 339.339 436.395 340.139 433.802C340.754 431.889 342.723 429.914 343.707 428.988C344.015 430.161 347.337 441.765 355.642 445.593C355.642 445.593 351.828 442.198 348.998 437.506C350.659 439.296 352.505 440.778 354.658 441.333Z" fill="#131F2D"/>
<path d="M381.911 552.753C381.973 553.803 381.911 554.667 381.727 555.222C381.05 557.321 378.774 558.247 373.298 557.692C369.976 557.321 368.438 551.704 367.761 546.889C365.731 553.741 362.901 557.63 359.271 558.432C353.981 559.605 327.157 562.877 325.373 550.099C323.466 536.025 329.249 511.148 329.557 497.692C328.757 492.938 328.511 488.803 328.572 485.222C328.818 475.654 331.587 470.284 333.74 468.124C334.355 467.63 334.971 467.383 337.431 466.951C338.662 466.766 340.384 466.519 342.845 466.148C342.845 466.148 343.83 466.025 343.83 466.087C343.399 466.889 337.308 476.148 337.801 478.494C338.293 480.963 359.825 478.741 361.302 477.383C362.778 476.025 365.116 465.531 365.116 465.531C365.116 465.531 372.745 466.395 376.497 469.111C376.497 469.111 376.497 469.111 376.436 469.173C376.867 469.482 377.236 469.852 377.42 470.222C381.419 477.815 385.356 497.012 388.186 510.716C381.419 514.482 375.513 513.371 373.667 512.877C376.128 528.617 381.542 545.531 381.911 552.753Z" fill="#FED500"/>
<path d="M380.99 665.593C379.206 684.42 371.454 696.642 371.454 696.642L368.808 699.049C368.808 699.049 366.409 685.222 364.625 669.42C366.471 669.605 374.591 669.914 380.99 665.593Z" fill="#FCBF93"/>
<path d="M363.393 668.247C359.271 684.79 352.996 697.506 352.996 697.506L347.582 697.136C347.582 697.136 350.227 684.42 350.104 667.198C351.95 668.124 355.764 669.111 363.393 668.247Z" fill="#FCBF93"/>
<path d="M356.133 702.074H352.688C351.519 701.889 350.658 701.58 349.489 701.395C347.705 701.148 346.843 701.889 346.659 702.074L346.597 702.136H331.832C331.463 701.58 331.832 700.346 332.14 699.481C332.386 698.864 332.878 698.37 333.493 698.185C335.031 697.753 338.169 697.321 340.937 694.79C342.537 693.37 348.628 689.481 348.628 689.481H348.689C348.812 689.481 349.489 689.667 352.196 692.012C353.611 693.247 356.072 690.284 356.072 690.284C356.072 690.284 356.502 690.654 356.871 691.395C357.117 691.951 357.364 692.691 357.179 693.679C356.933 695.037 357.671 697.506 358.225 699.173C358.594 700.16 358.84 700.901 358.84 700.901C358.84 700.901 359.148 701.704 356.133 702.074Z" fill="#131F2D"/>
<path d="M356.933 691.395C356.133 691.951 354.349 693.123 353.18 693.309C351.642 693.494 348.689 689.481 348.689 689.481H348.751C348.874 689.481 349.551 689.667 352.258 692.012C353.673 693.247 356.133 690.284 356.133 690.284C356.133 690.284 356.626 690.654 356.933 691.395Z" fill="#131F2D"/>
<path d="M356.133 702.074H352.688C351.519 701.889 350.658 701.58 349.489 701.395C347.705 701.148 346.843 701.889 346.659 702.074L346.597 702.136H331.832C331.463 701.58 331.832 700.346 332.14 699.481C332.57 699.111 332.694 701.21 332.94 701.58C333.186 701.95 344.998 701.704 345.675 701.21C346.351 700.716 348.381 699.852 351.273 700.531C353.734 701.148 357.425 699.605 358.286 699.173C358.655 700.16 358.902 700.901 358.902 700.901C358.902 700.901 359.148 701.704 356.133 702.074Z" fill="#131F2D"/>
<path d="M374.653 702.074H371.207C370.039 701.889 369.177 701.58 368.008 701.395C366.224 701.148 365.363 701.889 365.178 702.074L365.117 702.136H350.352C349.983 701.58 350.352 700.346 350.659 699.481C350.905 698.864 351.398 698.37 352.013 698.185C353.551 697.753 356.688 697.321 359.457 694.79C361.056 693.37 367.147 689.481 367.147 689.481H367.209C367.332 689.481 368.008 689.667 370.777 692.012C372.192 693.247 374.653 690.284 374.653 690.284C374.653 690.284 375.083 690.654 375.452 691.395C375.699 691.951 375.945 692.691 375.76 693.679C375.514 695.037 376.252 697.506 376.806 699.173C377.175 700.16 377.421 700.901 377.421 700.901C377.421 700.901 377.667 701.704 374.653 702.074Z" fill="#131F2D"/>
<path d="M375.513 691.395C374.714 691.951 372.929 693.123 371.761 693.309C370.223 693.494 367.27 689.481 367.27 689.481H367.331C367.454 689.481 368.131 689.667 370.899 692.012C372.314 693.247 374.775 690.284 374.775 690.284C374.775 690.284 375.144 690.654 375.513 691.395Z" fill="#131F2D"/>
<path d="M374.653 702.074H371.207C370.039 701.889 369.177 701.58 368.008 701.395C366.224 701.148 365.363 701.889 365.178 702.074L365.117 702.136H350.352C349.983 701.58 350.352 700.346 350.659 699.481C351.09 699.111 351.213 701.21 351.459 701.58C351.705 701.95 363.517 701.704 364.194 701.21C364.871 700.716 366.901 699.852 369.792 700.531C372.253 701.148 375.945 699.605 376.806 699.173C377.175 700.16 377.421 700.901 377.421 700.901C377.421 700.901 377.667 701.704 374.653 702.074Z" fill="#131F2D"/>
<path d="M381.91 552.753C378.219 551.519 373.482 548.247 367.822 540.901C352.811 521.395 366.53 498.494 368.376 498.062C370.221 497.63 373.666 512.877 373.666 512.877C376.127 528.617 381.541 545.531 381.91 552.753Z" fill="#E2BF04"/>
<path d="M425.099 593.432C425.099 593.432 430.697 571.333 438.264 566.457C438.264 566.457 433.958 566.148 433.342 567.259C427.067 578.185 423.068 591.395 425.099 593.432Z" fill="#B05638"/>
<path d="M458.382 567.444C458.382 567.444 455.49 586.395 465.703 600.84C465.703 600.84 465.703 600.901 465.764 600.901L467.364 608.309C467.425 608.494 467.179 608.617 467.056 608.494C464.411 606.457 451.122 594.605 454.998 566.951C454.937 567.012 456.29 566.395 458.382 567.444Z" fill="#B05638"/>
<path d="M268.609 694.296C268.609 694.296 267.317 696.889 264.364 697.506C262.519 697.938 260.919 698.864 259.996 700.222C259.197 701.333 259.996 702.938 261.35 702.938H276.176C277.468 702.938 278.453 701.827 278.268 700.593C278.145 699.481 278.022 698.185 278.022 697.197C277.899 695.037 275.746 693.309 275.746 693.309L268.609 694.296Z" fill="#131F2D"/>
<path d="M265.287 656.827C264.672 668.123 266.21 693.864 266.21 693.864C266.21 693.864 267.256 696.704 273.777 697.444C277.284 697.815 280.421 696.889 280.421 696.889C281.713 690.778 282.944 684.975 284.051 679.481C292.11 639.79 295.248 615.284 295.248 615.284L263.441 607.876C263.441 607.876 264.856 630.284 265.226 645.531C265.349 650.222 265.41 654.296 265.287 656.827Z" fill="#364154"/>
<path d="M263.441 607.815C263.441 607.815 264.856 630.222 265.226 645.469L284.051 679.42C292.11 639.729 295.248 615.222 295.248 615.222L263.441 607.815Z" fill="#131F2D"/>
<path d="M295.433 556.519C295.433 556.519 307.738 550.901 317.027 555.84C326.317 560.778 320.657 601.333 307.307 605.284C307.369 605.284 282.391 613.247 295.433 556.519Z" fill="#75311B"/>
<path d="M259.811 617.259C259.873 617.197 259.873 617.136 259.934 617.074C260.242 616.642 260.734 615.531 261.103 614.667C258.643 602.506 260.304 595.469 260.304 595.469C259.996 591.951 257.904 567.197 262.764 555.716C265.102 550.16 269.04 550.16 269.04 550.16C269.04 550.16 268.117 558.988 268.732 563.741C269.286 568.123 265.164 608.926 264.487 615.654L264.302 622.444L262.334 621.951C262.272 621.951 262.149 621.889 262.088 621.889C261.842 621.765 261.657 621.58 261.473 621.333L259.873 618.802C259.504 618.37 259.504 617.753 259.811 617.259ZM263.626 616.148L263.564 616.086L263.626 616.148C263.564 616.21 263.564 616.21 263.626 616.148Z" fill="#E9AA7D"/>
<path d="M294.449 694.296C294.449 694.296 293.157 696.889 290.204 697.506C288.359 697.938 286.759 698.864 285.836 700.222C285.036 701.333 285.836 702.938 287.19 702.938H302.016C303.308 702.938 304.293 701.827 304.108 700.593C303.985 699.481 303.862 698.185 303.862 697.197C303.739 695.037 301.586 693.309 301.586 693.309L294.449 694.296Z" fill="#131F2D"/>
<path d="M274.824 547.444L287.498 553.926L290.02 545.099C290.02 545.099 288.42 542.074 287.682 537.074C287.375 534.975 287.252 532.506 287.436 529.852L277.162 535.16C277.162 535.16 277.408 536.086 277.593 537.506C277.777 539.049 277.839 541.086 277.408 543.062C276.977 544.728 276.178 546.333 274.824 547.444Z" fill="#FCBF93"/>
<path d="M304.108 611.272C304.108 611.272 306.508 643.247 305.954 694.235C305.954 694.235 303.062 695.778 299.556 696.086C293.034 696.765 291.435 694.111 291.435 694.111C291.435 694.111 284.791 669.235 283.129 658.062C281.591 647.753 271.502 610.469 271.502 610.469L304.108 611.272Z" fill="#364154"/>
<path d="M266.457 548.37C267.564 547.815 271.132 546.395 276.423 545.531C276.362 547.383 276.854 549.049 280.053 549.482C284.298 550.037 288.112 547.136 290.019 545.161C290.019 545.161 293.034 545.469 296.479 546.272C298.202 546.642 300.109 547.136 301.77 547.753C303.8 548.494 305.584 549.42 306.507 550.593C309.768 554.605 315.12 566.704 315.12 566.704C315.12 566.704 306.199 570.037 303.923 571.951L303.862 572.383L302.447 584.049L306.63 607.259C306.692 607.444 306.692 607.691 306.692 607.877C306.692 609.42 305.646 610.84 304.108 611.21C304.108 611.21 303.739 611.272 303.062 611.333C298.632 611.951 280.73 614.111 266.641 610.284C263.504 609.42 261.412 606.395 261.658 603.123L263.934 574.235C262.704 574.049 261.289 573.802 260.12 573.679C259.136 573.556 258.397 573.556 258.09 573.617C258.151 573.679 259.751 551.148 266.457 548.37Z" fill="#2AD38C"/>
<path d="M292.973 591.21C293.158 599.296 298.448 608.864 303.063 611.395C303.739 611.333 304.108 611.272 304.108 611.272C305.646 610.901 306.692 609.482 306.692 607.938C306.692 607.753 306.692 607.506 306.631 607.321L302.447 584.111L303.862 572.445C303.801 572.259 303.739 572.136 303.739 572.136C303.739 572.136 292.665 576.889 292.973 591.21Z" fill="#131F2D"/>
<path d="M260.182 573.741C261.351 573.864 263.996 574.296 263.996 574.296L265.349 562.198C265.288 562.198 260.858 570.716 260.182 573.741Z" fill="#131F2D"/>
<path d="M305.953 603.185V597.753C287.62 571.148 285.159 565.778 293.403 553.802C295.741 550.407 300.047 548.247 301.831 547.753C300.17 547.136 298.263 546.642 296.54 546.272C294.818 547.074 293.218 547.877 291.988 548.988C266.703 570.839 305.953 603.185 305.953 603.185Z" fill="#75311B"/>
<path d="M284.544 568.988C291.742 569.482 292.727 576.889 292.727 576.889C292.727 576.889 304.785 578 306.569 578.803C306.569 578.803 305.584 576.148 303.862 572.136C305.461 570.593 310.568 568.309 314.013 567.198C316.597 573.864 317.643 580.469 316.166 586.827C315.982 587.506 315.428 588 314.751 588C310.937 588.185 298.263 588.124 288.974 580.408L288.789 580.346C286.574 580.222 284.483 578 283.683 575.099C282.883 572.198 282.822 573.062 282.206 571.025C281.53 569.049 284.544 568.988 284.544 568.988Z" fill="#FCBF93"/>
<path d="M277.346 543.062C283.19 542.877 287.681 537.136 287.681 537.136L277.53 537.568C277.653 539.049 277.776 541.086 277.346 543.062Z" fill="#EF6343"/>
<path d="M276.793 539.543C276.793 539.543 289.712 541.148 290.02 531.951C290.266 522.815 284.913 516.889 281.284 516.951C274.086 517.074 272.917 519.975 272.055 523C271.256 526.025 270.825 538.864 276.793 539.543Z" fill="#FCBF93"/>
<path d="M290.723 532.728C290.723 532.728 289.623 520.644 276.449 521.072C263.298 521.501 268.98 509.259 280.298 507.455C280.298 507.455 279.107 511.761 286.232 512.46C301.17 513.88 292.052 530.811 290.723 532.728Z" fill="#131F2D"/>
<path d="M277.996 520.331C277.996 520.331 289.07 520.331 286.486 527.924C284.886 532.739 290.239 533.479 290.239 533.479L292.823 525.763L291.223 519.776L277.996 520.331Z" fill="#131F2D"/>
<defs>
<linearGradient id="paint0_linear_234_13570" x1="-3.41585e-06" y1="739.156" x2="1493.97" y2="262.318" gradientUnits="userSpaceOnUse">
<stop stop-color="#0873AF"/>
<stop offset="1" stop-color="#38B7ED"/>
</linearGradient>
<linearGradient id="paint1_linear_234_13570" x1="1.52673e-05" y1="739.066" x2="1493.13" y2="262.753" gradientUnits="userSpaceOnUse">
<stop stop-color="#0D9834"/>
<stop offset="1" stop-color="#CD4DD6"/>
</linearGradient>
<linearGradient id="paint2_linear_234_13570" x1="682" y1="217" x2="682" y2="657" gradientUnits="userSpaceOnUse">
<stop offset="0.482292" stop-color="#D0EBFF"/>
<stop offset="1" stop-color="#228EC6"/>
</linearGradient>
</defs>
</svg>
