<svg width="1920" height="815" viewBox="0 0 1920 815" fill="none" xmlns="http://www.w3.org/2000/svg">
<path d="M1739.5 0.5C1885 0.5001 1942.33 58.4999 1978.5 84.9999V883C1914 845.667 1909.61 737 1739.5 724C1510.5 706.5 1520.5 803.5 1349.5 803.5C1162.88 803.5 1169.5 748.928 998 688C884 647.5 795 724 674.5 770C487.652 841.328 411.019 679.262 307.5 688C203.981 696.739 212.5 621.5 115 603.5C17.5 585.5 -25 650.333 -57 642V262C-29.8333 251 23.4 212.3 115 177.5C229.5 134 265.5 205.5 410 213.5C554.5 221.5 669.88 88.5592 856.5 54C1045.5 19 1221.5 150.5 1349.5 128.5C1477.5 106.5 1551.5 0.49987 1739.5 0.5Z" fill="#EFEFEF"/>
<path d="M1750 541.063C1895.22 550.139 1952.83 599.062 1989 625.562V872.562H-46.5V472.563C-19.3333 461.563 10 441.063 88.5 426.062C208.808 403.073 197 517.063 301.5 517.063C431 517.063 453.716 615.5 592.5 615.5C707 615.5 724 538.552 901.5 507.063C1031.5 484 1158.19 613.717 1328 625.562C1507.5 625.562 1558 529.063 1750 541.063Z" fill="url(#paint0_linear_229_12994)"/>
<path opacity="0.2" d="M961 674.03V843H-133V654.776H-80.0429V710.325H-5.29168V682.752H23.5544V579.705H51.3929V682.752H86.4514V586.682H182.359V661.586H255.565V547H329.175V741.017H403.422V659.707H496.206V601.039H553.797V656.185H607.561V636.394H720.09V694.827H807.972V638.575H877.451V712.035H922.382V674.03H961Z" fill="url(#paint1_linear_229_12994)"/>
<path opacity="0.2" d="M2055 674.03V844H961V654.776H1013.96V710.325H1088.71V682.752H1117.55V579.705H1145.39V682.752H1180.45V586.682H1276.36V661.586H1349.57V547H1423.17V741.017H1497.42V659.707H1590.21V601.039H1647.8V656.185H1701.56V636.394H1814.09V694.827H1901.97V638.575H1971.45V712.035H2016.38V674.03H2055Z" fill="url(#paint2_linear_229_12994)"/>
<path d="M1213.78 733.203H1194.22C1193.09 733.198 1192 732.744 1191.19 731.939C1190.39 731.135 1189.94 730.046 1189.94 728.909V714.397C1189.94 713.628 1190.15 712.874 1190.55 712.214C1190.95 711.554 1191.51 711.013 1192.19 710.647L1201.95 705.312C1202.58 704.97 1203.28 704.791 1204 704.791C1204.71 704.791 1205.42 704.97 1206.04 705.312L1215.83 710.619C1216.51 710.985 1217.07 711.526 1217.47 712.186C1217.87 712.845 1218.08 713.599 1218.08 714.369V728.909C1218.08 730.049 1217.62 731.141 1216.82 731.946C1216.01 732.751 1214.92 733.203 1213.78 733.203V733.203ZM1204 706.662C1203.6 706.662 1203.2 706.762 1202.85 706.953L1193.06 712.269C1192.68 712.479 1192.36 712.787 1192.14 713.162C1191.92 713.536 1191.81 713.963 1191.81 714.397V728.909C1191.81 729.551 1192.07 730.166 1192.52 730.62C1192.97 731.073 1193.59 731.328 1194.23 731.328H1213.78C1214.42 731.326 1215.03 731.07 1215.48 730.616C1215.93 730.163 1216.19 729.549 1216.19 728.909V714.397C1216.19 713.961 1216.07 713.533 1215.85 713.159C1215.62 712.784 1215.3 712.476 1214.92 712.269L1205.15 706.962C1204.8 706.768 1204.4 706.665 1204 706.662V706.662Z" fill="white"/>
<path d="M1204 729.087C1202.7 729.088 1201.43 728.634 1200.42 727.805C1199.42 726.975 1198.73 725.821 1198.48 724.541C1198.46 724.406 1198.47 724.269 1198.51 724.139C1198.54 724.008 1198.61 723.887 1198.7 723.785C1198.79 723.682 1198.9 723.6 1199.02 723.545C1199.15 723.489 1199.28 723.461 1199.42 723.463C1199.64 723.459 1199.86 723.536 1200.03 723.679C1200.2 723.821 1200.32 724.021 1200.35 724.241C1200.53 725.083 1200.99 725.84 1201.66 726.383C1202.33 726.925 1203.16 727.222 1204.02 727.222C1204.89 727.222 1205.72 726.925 1206.39 726.383C1207.06 725.84 1207.52 725.083 1207.69 724.241C1207.73 724.021 1207.85 723.821 1208.02 723.679C1208.19 723.536 1208.41 723.459 1208.63 723.463C1208.77 723.461 1208.9 723.489 1209.03 723.545C1209.15 723.6 1209.26 723.682 1209.35 723.785C1209.44 723.887 1209.51 724.008 1209.54 724.139C1209.58 724.269 1209.59 724.406 1209.57 724.541C1209.32 725.829 1208.62 726.989 1207.61 727.82C1206.59 728.65 1205.31 729.099 1204 729.087V729.087Z" fill="white"/>
<path d="M1240.05 713.273H1233.49V725.5H1231.03V711.281H1240.05V713.273ZM1252.22 711.281V725.5H1249.76V713.273H1245.4L1245.15 718.771C1245.05 720.49 1244.84 721.825 1244.51 722.775C1244.19 723.719 1243.73 724.41 1243.12 724.846C1242.5 725.282 1241.68 725.5 1240.65 725.5H1240.03V723.527L1240.42 723.498C1240.99 723.446 1241.42 723.247 1241.73 722.902C1242.04 722.557 1242.28 722.036 1242.43 721.34C1242.59 720.637 1242.71 719.605 1242.77 718.244L1243.05 711.281H1252.22ZM1263.33 722.189H1257.82L1256.67 725.5H1254.1L1259.47 711.281H1261.69L1267.07 725.5H1264.49L1263.33 722.189ZM1258.52 720.197H1262.64L1260.58 714.299L1258.52 720.197ZM1268.69 725.5V711.281H1273.56C1275.17 711.281 1276.4 711.604 1277.24 712.248C1278.08 712.893 1278.5 713.853 1278.5 715.129C1278.5 715.78 1278.32 716.366 1277.97 716.887C1277.62 717.408 1277.1 717.811 1276.43 718.098C1277.19 718.306 1277.79 718.7 1278.2 719.279C1278.63 719.852 1278.84 720.542 1278.84 721.35C1278.84 722.684 1278.41 723.71 1277.55 724.426C1276.7 725.142 1275.47 725.5 1273.88 725.5H1268.69ZM1271.16 719.084V723.527H1273.91C1274.68 723.527 1275.29 723.335 1275.72 722.951C1276.16 722.567 1276.38 722.033 1276.38 721.35C1276.38 719.872 1275.62 719.117 1274.11 719.084H1271.16ZM1271.16 717.268H1273.58C1274.35 717.268 1274.95 717.095 1275.38 716.75C1275.82 716.398 1276.04 715.904 1276.04 715.266C1276.04 714.562 1275.83 714.055 1275.43 713.742C1275.03 713.43 1274.41 713.273 1273.56 713.273H1271.16V717.268ZM1292.6 725.5H1290.14V719.182H1283.78V725.5H1281.31V711.281H1283.78V717.199H1290.14V711.281H1292.6V725.5ZM1303.66 722.189H1298.15L1297 725.5H1294.43L1299.8 711.281H1302.02L1307.4 725.5H1304.82L1303.66 722.189ZM1298.85 720.197H1302.97L1300.91 714.299L1298.85 720.197ZM1316.04 725.5V720.188H1313.28L1310.54 725.5H1307.89L1311.06 719.455C1309.41 718.674 1308.58 717.395 1308.58 715.617C1308.58 714.257 1309.03 713.199 1309.92 712.443C1310.82 711.682 1312.07 711.294 1313.67 711.281H1318.51V725.5H1316.04ZM1311.04 715.725C1311.04 716.525 1311.27 717.15 1311.72 717.6C1312.17 718.049 1312.84 718.273 1313.74 718.273H1316.04V713.273H1313.74C1312.83 713.273 1312.15 713.492 1311.71 713.928C1311.27 714.364 1311.04 714.963 1311.04 715.725Z" fill="white"/>
<path d="M1393.72 732.125C1393.49 732.126 1393.26 732.075 1393.05 731.976C1392.84 731.876 1392.66 731.732 1392.51 731.552C1392.37 731.372 1392.26 731.162 1392.21 730.937C1392.15 730.712 1392.15 730.477 1392.2 730.25L1393.44 722.956L1388.15 717.809C1387.94 717.607 1387.79 717.35 1387.72 717.068C1387.65 716.787 1387.66 716.491 1387.75 716.215C1387.84 715.939 1388.01 715.694 1388.23 715.507C1388.45 715.32 1388.72 715.198 1389.01 715.156L1396.31 714.097L1399.58 707.459C1399.71 707.193 1399.91 706.968 1400.16 706.811C1400.41 706.653 1400.7 706.57 1400.99 706.57C1401.28 706.57 1401.57 706.653 1401.82 706.811C1402.07 706.968 1402.27 707.193 1402.4 707.459L1405.69 714.097L1413.01 715.166C1413.3 715.208 1413.57 715.329 1413.79 715.516C1414.01 715.703 1414.17 715.949 1414.26 716.224C1414.35 716.5 1414.36 716.796 1414.3 717.078C1414.23 717.359 1414.08 717.616 1413.87 717.819L1408.57 722.984L1409.8 730.25C1409.85 730.535 1409.82 730.827 1409.71 731.095C1409.6 731.363 1409.42 731.596 1409.19 731.767C1408.96 731.938 1408.68 732.041 1408.4 732.065C1408.11 732.088 1407.82 732.031 1407.56 731.9L1401 728.459L1394.44 731.9C1394.22 732.032 1393.98 732.109 1393.72 732.125V732.125ZM1389.93 716.919L1394.88 721.747C1395.06 721.922 1395.2 722.14 1395.27 722.38C1395.35 722.62 1395.37 722.876 1395.33 723.125L1394.16 729.931L1400.28 726.716C1400.5 726.599 1400.75 726.538 1401 726.538C1401.25 726.538 1401.5 726.599 1401.72 726.716L1407.84 729.931L1406.67 723.116C1406.63 722.867 1406.65 722.611 1406.73 722.371C1406.8 722.13 1406.94 721.913 1407.12 721.738L1412.07 716.909L1405.23 715.916C1404.98 715.879 1404.74 715.783 1404.54 715.634C1404.33 715.485 1404.17 715.289 1404.06 715.063L1401 708.875L1397.94 715.072C1397.83 715.299 1397.67 715.495 1397.46 715.643C1397.26 715.792 1397.02 715.889 1396.77 715.925L1389.93 716.919Z" fill="white"/>
<path d="M1432.26 719.406H1430.58V725.5H1428.12V711.281H1430.58V717.258H1431.94L1436.12 711.281H1439.14L1434.26 718.088L1439.57 725.5H1436.61L1432.26 719.406ZM1451.98 718.762C1451.98 720.155 1451.74 721.379 1451.25 722.434C1450.77 723.482 1450.08 724.289 1449.18 724.855C1448.29 725.415 1447.26 725.695 1446.1 725.695C1444.95 725.695 1443.92 725.415 1443.01 724.855C1442.11 724.289 1441.42 723.485 1440.92 722.443C1440.43 721.402 1440.19 720.201 1440.18 718.84V718.039C1440.18 716.652 1440.42 715.428 1440.91 714.367C1441.41 713.306 1442.1 712.495 1442.99 711.936C1443.89 711.369 1444.92 711.086 1446.08 711.086C1447.24 711.086 1448.26 711.366 1449.15 711.926C1450.05 712.479 1450.75 713.28 1451.23 714.328C1451.72 715.37 1451.97 716.584 1451.98 717.971V718.762ZM1449.51 718.02C1449.51 716.444 1449.21 715.236 1448.61 714.396C1448.01 713.557 1447.17 713.137 1446.08 713.137C1445.01 713.137 1444.17 713.557 1443.57 714.396C1442.97 715.23 1442.66 716.411 1442.65 717.941V718.762C1442.65 720.324 1442.95 721.532 1443.56 722.385C1444.17 723.238 1445.02 723.664 1446.1 723.664C1447.19 723.664 1448.03 723.247 1448.62 722.414C1449.21 721.581 1449.51 720.363 1449.51 718.762V718.02ZM1465.73 725.5H1463.27V719.182H1456.91V725.5H1454.44V711.281H1456.91V717.199H1463.27V711.281H1465.73V725.5ZM1472.87 719.406H1471.19V725.5H1468.72V711.281H1471.19V717.258H1472.54L1476.72 711.281H1479.75L1474.87 718.088L1480.18 725.5H1477.21L1472.87 719.406ZM1486.66 718.713L1489.52 711.281H1492.26L1487.31 723.078L1486.86 723.967C1486.21 725.126 1485.15 725.705 1483.7 725.705L1482.68 725.646L1482.7 723.693C1482.86 723.719 1483.13 723.732 1483.53 723.732C1484.23 723.732 1484.73 723.433 1485.01 722.834L1485.52 721.633L1480.66 711.281H1483.35L1486.66 718.713ZM1496.62 720.217V725.5H1494.14V711.281H1499.58C1501.17 711.281 1502.43 711.695 1503.36 712.521C1504.3 713.348 1504.77 714.442 1504.77 715.803C1504.77 717.196 1504.31 718.28 1503.39 719.055C1502.48 719.829 1501.2 720.217 1499.55 720.217H1496.62ZM1496.62 718.234H1499.58C1500.46 718.234 1501.13 718.029 1501.6 717.619C1502.06 717.202 1502.29 716.604 1502.29 715.822C1502.29 715.054 1502.05 714.442 1501.59 713.986C1501.12 713.524 1500.47 713.286 1499.65 713.273H1496.62V718.234ZM1517.79 720.871C1517.64 722.388 1517.08 723.573 1516.11 724.426C1515.13 725.272 1513.83 725.695 1512.21 725.695C1511.08 725.695 1510.08 725.428 1509.21 724.895C1508.35 724.354 1507.69 723.589 1507.22 722.6C1506.75 721.61 1506.51 720.461 1506.49 719.152V717.824C1506.49 716.483 1506.73 715.301 1507.2 714.279C1507.68 713.257 1508.36 712.469 1509.24 711.916C1510.13 711.363 1511.16 711.086 1512.33 711.086C1513.9 711.086 1515.16 711.512 1516.12 712.365C1517.07 713.218 1517.63 714.423 1517.79 715.979H1515.33C1515.21 714.956 1514.91 714.221 1514.43 713.771C1513.95 713.316 1513.25 713.088 1512.33 713.088C1511.25 713.088 1510.43 713.482 1509.85 714.27C1509.27 715.051 1508.98 716.2 1508.97 717.717V718.977C1508.97 720.513 1509.24 721.685 1509.79 722.492C1510.34 723.299 1511.15 723.703 1512.21 723.703C1513.18 723.703 1513.91 723.485 1514.4 723.049C1514.89 722.613 1515.2 721.887 1515.33 720.871H1517.79ZM1522.54 716.721H1525.45C1526.49 716.721 1527.4 716.9 1528.18 717.258C1528.95 717.616 1529.54 718.124 1529.95 718.781C1530.35 719.439 1530.55 720.201 1530.55 721.066C1530.55 722.395 1530.1 723.462 1529.19 724.27C1528.29 725.077 1527.07 725.487 1525.51 725.5H1520.07V711.281H1522.54V716.721ZM1534.42 725.5H1531.96V711.281H1534.42V725.5ZM1522.54 718.703V723.527H1525.44C1526.28 723.527 1526.92 723.303 1527.39 722.854C1527.86 722.398 1528.09 721.796 1528.09 721.047C1528.09 720.331 1527.86 719.764 1527.41 719.348C1526.95 718.931 1526.32 718.716 1525.51 718.703H1522.54Z" fill="white"/>
<path d="M1620.7 728.375C1621.21 728.375 1621.63 727.955 1621.63 727.438C1621.63 726.92 1621.21 726.5 1620.7 726.5C1620.18 726.5 1619.76 726.92 1619.76 727.438C1619.76 727.955 1620.18 728.375 1620.7 728.375Z" fill="white"/>
<path d="M1617.05 728.375C1617.57 728.375 1617.99 727.955 1617.99 727.438C1617.99 726.92 1617.57 726.5 1617.05 726.5C1616.54 726.5 1616.12 726.92 1616.12 727.438C1616.12 727.955 1616.54 728.375 1617.05 728.375Z" fill="white"/>
<path d="M1613.3 728.375C1613.82 728.375 1614.24 727.955 1614.24 727.438C1614.24 726.92 1613.82 726.5 1613.3 726.5C1612.79 726.5 1612.37 726.92 1612.37 727.438C1612.37 727.955 1612.79 728.375 1613.3 728.375Z" fill="white"/>
<path d="M1628.8 733.062H1605.2C1604.6 733.062 1604.02 732.824 1603.6 732.401C1603.18 731.977 1602.94 731.402 1602.94 730.803C1602.94 728.419 1603.89 726.134 1605.57 724.449C1607.26 722.763 1609.54 721.815 1611.93 721.812H1622.07C1624.46 721.815 1626.74 722.763 1628.43 724.449C1630.11 726.134 1631.06 728.419 1631.06 730.803C1631.06 731.402 1630.82 731.977 1630.4 732.401C1629.98 732.824 1629.4 733.062 1628.8 733.062V733.062ZM1611.93 723.688C1610.04 723.69 1608.23 724.44 1606.9 725.774C1605.57 727.108 1604.81 728.917 1604.81 730.803C1604.81 730.905 1604.85 731.003 1604.93 731.075C1605 731.147 1605.09 731.188 1605.2 731.188H1628.8C1628.91 731.188 1629 731.147 1629.07 731.075C1629.15 731.003 1629.19 730.905 1629.19 730.803C1629.19 728.917 1628.43 727.108 1627.1 725.774C1625.77 724.44 1623.96 723.69 1622.07 723.688H1611.93Z" fill="white"/>
<path d="M1617 719.938C1615.52 719.938 1614.07 719.498 1612.83 718.674C1611.6 717.849 1610.64 716.678 1610.07 715.308C1609.5 713.937 1609.35 712.429 1609.64 710.974C1609.93 709.519 1610.65 708.183 1611.7 707.134C1612.75 706.085 1614.08 705.371 1615.54 705.082C1616.99 704.792 1618.5 704.941 1619.87 705.508C1621.24 706.076 1622.41 707.037 1623.24 708.271C1624.06 709.504 1624.5 710.954 1624.5 712.438C1624.5 714.427 1623.71 716.334 1622.3 717.741C1620.9 719.147 1618.99 719.938 1617 719.938ZM1617 706.813C1615.89 706.813 1614.8 707.142 1613.87 707.76C1612.95 708.379 1612.23 709.257 1611.8 710.285C1611.38 711.313 1611.27 712.444 1611.48 713.535C1611.7 714.626 1612.24 715.628 1613.02 716.415C1613.81 717.202 1614.81 717.737 1615.9 717.954C1616.99 718.171 1618.12 718.06 1619.15 717.634C1620.18 717.209 1621.06 716.488 1621.68 715.563C1622.3 714.638 1622.63 713.55 1622.63 712.438C1622.63 710.946 1622.03 709.515 1620.98 708.46C1619.92 707.405 1618.49 706.813 1617 706.813V706.813Z" fill="white"/>
<path d="M1655.21 718.762C1655.21 720.155 1654.97 721.379 1654.49 722.434C1654.01 723.482 1653.32 724.289 1652.42 724.855C1651.53 725.415 1650.5 725.695 1649.34 725.695C1648.18 725.695 1647.15 725.415 1646.25 724.855C1645.35 724.289 1644.65 723.485 1644.16 722.443C1643.67 721.402 1643.42 720.201 1643.42 718.84V718.039C1643.42 716.652 1643.66 715.428 1644.15 714.367C1644.65 713.306 1645.34 712.495 1646.23 711.936C1647.13 711.369 1648.16 711.086 1649.32 711.086C1650.48 711.086 1651.5 711.366 1652.39 711.926C1653.29 712.479 1653.98 713.28 1654.47 714.328C1654.96 715.37 1655.21 716.584 1655.21 717.971V718.762ZM1652.74 718.02C1652.74 716.444 1652.44 715.236 1651.85 714.396C1651.25 713.557 1650.41 713.137 1649.32 713.137C1648.25 713.137 1647.41 713.557 1646.81 714.396C1646.21 715.23 1645.9 716.411 1645.89 717.941V718.762C1645.89 720.324 1646.19 721.532 1646.8 722.385C1647.41 723.238 1648.26 723.664 1649.34 723.664C1650.43 723.664 1651.27 723.247 1651.86 722.414C1652.45 721.581 1652.74 720.363 1652.74 718.762V718.02ZM1660.15 720.217V725.5H1657.68V711.281H1663.12C1664.7 711.281 1665.96 711.695 1666.89 712.521C1667.83 713.348 1668.3 714.442 1668.3 715.803C1668.3 717.196 1667.84 718.28 1666.92 719.055C1666.01 719.829 1664.73 720.217 1663.09 720.217H1660.15ZM1660.15 718.234H1663.12C1663.99 718.234 1664.66 718.029 1665.13 717.619C1665.59 717.202 1665.82 716.604 1665.82 715.822C1665.82 715.054 1665.59 714.442 1665.12 713.986C1664.65 713.524 1664 713.286 1663.18 713.273H1660.15V718.234ZM1679.56 713.273H1673V725.5H1670.54V711.281H1679.56V713.273ZM1687.57 722.189H1682.06L1680.91 725.5H1678.34L1683.71 711.281H1685.93L1691.31 725.5H1688.73L1687.57 722.189ZM1682.75 720.197H1686.88L1684.81 714.299L1682.75 720.197ZM1704.22 725.5H1701.76V719.182H1695.4V725.5H1692.93V711.281H1695.4V717.199H1701.76V711.281H1704.22V725.5ZM1715.86 711.281H1718.33V725.5H1715.86V715.373L1709.62 725.5H1707.15V711.281H1709.62V721.418L1715.86 711.281ZM1728.4 715.158C1728.4 714.52 1728.16 714.012 1727.68 713.635C1727.19 713.257 1726.54 713.068 1725.71 713.068C1725 713.068 1724.41 713.257 1723.94 713.635C1723.46 714.006 1723.22 714.488 1723.22 715.08H1720.76C1720.76 714.305 1720.98 713.615 1721.41 713.01C1721.84 712.404 1722.43 711.936 1723.19 711.604C1723.96 711.265 1724.79 711.096 1725.71 711.096C1727.34 711.096 1728.6 711.451 1729.5 712.16C1730.41 712.87 1730.86 713.863 1730.86 715.139C1730.86 715.783 1730.66 716.376 1730.27 716.916C1729.88 717.456 1729.34 717.883 1728.63 718.195C1729.43 718.469 1730.03 718.885 1730.45 719.445C1730.87 719.999 1731.08 720.689 1731.08 721.516C1731.08 722.792 1730.6 723.807 1729.62 724.562C1728.64 725.311 1727.34 725.686 1725.71 725.686C1724.71 725.686 1723.8 725.507 1722.99 725.148C1722.18 724.79 1721.57 724.302 1721.16 723.684C1720.76 723.065 1720.56 722.355 1720.56 721.555H1723.02C1723.02 722.167 1723.27 722.684 1723.78 723.107C1724.29 723.524 1724.93 723.732 1725.71 723.732C1726.59 723.732 1727.29 723.527 1727.81 723.117C1728.35 722.707 1728.61 722.173 1728.61 721.516C1728.61 720.715 1728.38 720.135 1727.91 719.777C1727.45 719.413 1726.77 719.23 1725.87 719.23H1724.2V717.277H1725.78C1727.53 717.277 1728.4 716.571 1728.4 715.158ZM1741.34 722.189H1735.83L1734.68 725.5H1732.11L1737.48 711.281H1739.7L1745.08 725.5H1742.5L1741.34 722.189ZM1736.52 720.197H1740.64L1738.58 714.299L1736.52 720.197ZM1755.8 713.273H1751.37V725.5H1748.92V713.273H1744.52V711.281H1755.8V713.273ZM1768.75 718.762C1768.75 720.155 1768.51 721.379 1768.03 722.434C1767.55 723.482 1766.86 724.289 1765.96 724.855C1765.07 725.415 1764.04 725.695 1762.87 725.695C1761.72 725.695 1760.69 725.415 1759.79 724.855C1758.89 724.289 1758.19 723.485 1757.7 722.443C1757.21 721.402 1756.96 720.201 1756.95 718.84V718.039C1756.95 716.652 1757.2 715.428 1757.69 714.367C1758.18 713.306 1758.87 712.495 1759.77 711.936C1760.66 711.369 1761.69 711.086 1762.85 711.086C1764.01 711.086 1765.04 711.366 1765.93 711.926C1766.83 712.479 1767.52 713.28 1768.01 714.328C1768.5 715.37 1768.74 716.584 1768.75 717.971V718.762ZM1766.28 718.02C1766.28 716.444 1765.98 715.236 1765.38 714.396C1764.79 713.557 1763.95 713.137 1762.85 713.137C1761.78 713.137 1760.95 713.557 1760.34 714.396C1759.74 715.23 1759.44 716.411 1759.42 717.941V718.762C1759.42 720.324 1759.73 721.532 1760.33 722.385C1760.94 723.238 1761.79 723.664 1762.87 723.664C1763.96 723.664 1764.8 723.247 1765.39 722.414C1765.98 721.581 1766.28 720.363 1766.28 718.762V718.02ZM1773.68 720.217V725.5H1771.21V711.281H1776.65C1778.24 711.281 1779.5 711.695 1780.43 712.521C1781.37 713.348 1781.84 714.442 1781.84 715.803C1781.84 717.196 1781.38 718.28 1780.46 719.055C1779.55 719.829 1778.27 720.217 1776.62 720.217H1773.68ZM1773.68 718.234H1776.65C1777.53 718.234 1778.2 718.029 1778.66 717.619C1779.12 717.202 1779.36 716.604 1779.36 715.822C1779.36 715.054 1779.12 714.442 1778.65 713.986C1778.18 713.524 1777.54 713.286 1776.72 713.273H1773.68V718.234ZM1786.54 716.721H1789.45C1790.49 716.721 1791.4 716.9 1792.18 717.258C1792.95 717.616 1793.54 718.124 1793.95 718.781C1794.35 719.439 1794.55 720.201 1794.55 721.066C1794.55 722.395 1794.1 723.462 1793.19 724.27C1792.29 725.077 1791.07 725.487 1789.51 725.5H1784.07V711.281H1786.54V716.721ZM1798.42 725.5H1795.96V711.281H1798.42V725.5ZM1786.54 718.703V723.527H1789.44C1790.28 723.527 1790.92 723.303 1791.39 722.854C1791.86 722.398 1792.09 721.796 1792.09 721.047C1792.09 720.331 1791.86 719.764 1791.41 719.348C1790.95 718.931 1790.32 718.716 1789.51 718.703H1786.54Z" fill="white"/>
<defs>
<linearGradient id="paint0_linear_229_12994" x1="-46.4999" y1="1221.26" x2="1771.39" y2="373.548" gradientUnits="userSpaceOnUse">
<stop stop-color="#0873AF"/>
<stop offset="1" stop-color="#38B7ED"/>
</linearGradient>
<linearGradient id="paint1_linear_229_12994" x1="414" y1="547" x2="414" y2="988" gradientUnits="userSpaceOnUse">
<stop offset="0.482292" stop-color="#D0EBFF"/>
<stop offset="1" stop-color="#228EC6"/>
</linearGradient>
<linearGradient id="paint2_linear_229_12994" x1="1508" y1="547" x2="1508" y2="988" gradientUnits="userSpaceOnUse">
<stop offset="0.482292" stop-color="#D0EBFF"/>
<stop offset="1" stop-color="#228EC6"/>
</linearGradient>
</defs>
</svg>
