<svg width="1920" height="815" viewBox="0 0 1920 815" fill="none" xmlns="http://www.w3.org/2000/svg">
<path d="M1739.5 0.5C1885 0.5001 1942.33 58.4999 1978.5 84.9999V883C1914 845.667 1909.61 737 1739.5 724C1510.5 706.5 1520.5 803.5 1349.5 803.5C1162.88 803.5 1169.5 748.928 998 688C884 647.5 795 724 674.5 770C487.652 841.328 411.019 679.262 307.5 688C203.981 696.739 212.5 621.5 115 603.5C17.5 585.5 -25 650.333 -57 642V262C-29.8333 251 23.4 212.3 115 177.5C229.5 134 265.5 205.5 410 213.5C554.5 221.5 669.88 88.5592 856.5 54C1045.5 19 1221.5 150.5 1349.5 128.5C1477.5 106.5 1551.5 0.49987 1739.5 0.5Z" fill="#EFEFEF"/>
<path d="M1750 541.063C1895.22 550.139 1952.83 599.062 1989 625.562V872.562H-46.5V472.563C-19.3333 461.563 10 441.063 88.5 426.062C208.808 403.073 197 517.063 301.5 517.063C431 517.063 453.716 615.5 592.5 615.5C707 615.5 724 538.552 901.5 507.063C1031.5 484 1158.19 613.717 1328 625.562C1507.5 625.562 1558 529.063 1750 541.063Z" fill="url(#paint0_linear_229_12994)"/>
<path opacity="0.2" d="M961 674.03V843H-133V654.776H-80.0429V710.325H-5.29168V682.752H23.5544V579.705H51.3929V682.752H86.4514V586.682H182.359V661.586H255.565V547H329.175V741.017H403.422V659.707H496.206V601.039H553.797V656.185H607.561V636.394H720.09V694.827H807.972V638.575H877.451V712.035H922.382V674.03H961Z" fill="url(#paint1_linear_229_12994)"/>
<path opacity="0.2" d="M2055 674.03V844H961V654.776H1013.96V710.325H1088.71V682.752H1117.55V579.705H1145.39V682.752H1180.45V586.682H1276.36V661.586H1349.57V547H1423.17V741.017H1497.42V659.707H1590.21V601.039H1647.8V656.185H1701.56V636.394H1814.09V694.827H1901.97V638.575H1971.45V712.035H2016.38V674.03H2055Z" fill="url(#paint2_linear_229_12994)"/>
<defs>
<linearGradient id="paint0_linear_229_12994" x1="-46.4999" y1="1221.26" x2="1771.39" y2="373.548" gradientUnits="userSpaceOnUse">
<stop stop-color="#0873AF"/>
<stop offset="1" stop-color="#38B7ED"/>
</linearGradient>
<linearGradient id="paint1_linear_229_12994" x1="414" y1="547" x2="414" y2="988" gradientUnits="userSpaceOnUse">
<stop offset="0.482292" stop-color="#D0EBFF"/>
<stop offset="1" stop-color="#228EC6"/>
</linearGradient>
<linearGradient id="paint2_linear_229_12994" x1="1508" y1="547" x2="1508" y2="988" gradientUnits="userSpaceOnUse">
<stop offset="0.482292" stop-color="#D0EBFF"/>
<stop offset="1" stop-color="#228EC6"/>
</linearGradient>
</defs>
</svg>
