<svg width="2036" height="935" viewBox="0 0 2036 935" fill="none" xmlns="http://www.w3.org/2000/svg">
<path d="M1394.34 0C1489.41 6.55447e-05 1526.87 37.856 1550.5 55.1523V576C1508.36 551.633 1505.49 480.707 1394.34 472.222C1244.71 460.8 1251.24 524.111 1139.51 524.111C1017.58 524.111 1021.9 488.492 909.839 448.725C835.351 422.291 777.199 472.222 698.464 502.246C576.377 548.801 526.305 443.022 458.665 448.725C391.026 454.429 396.592 405.321 332.885 393.573C269.178 381.824 241.409 424.141 220.5 418.701V170.679C238.251 163.499 273.034 138.24 332.885 115.526C407.7 87.1343 431.222 133.802 525.639 139.023C620.055 144.245 695.445 57.4755 817.383 34.919C940.876 12.0748 1055.87 97.9037 1139.51 83.5445C1223.15 69.1853 1271.5 -8.46898e-05 1394.34 0Z" fill="#EFEFEF"/>
<path d="M1796.5 423.063C1941.72 432.139 1999.33 481.062 2035.5 507.562V934.562H0V354.563C27.1667 343.563 56.5 323.063 135 308.062C255.308 285.073 243.5 399.063 348 399.063C477.5 399.063 500.216 497.5 639 497.5C753.5 497.5 770.5 420.552 948 389.063C1078 366 1204.69 495.717 1374.5 507.562C1554 507.562 1604.5 411.063 1796.5 423.063Z" fill="url(#paint0_linear_232_13277)"/>
<defs>
<linearGradient id="paint0_linear_232_13277" x1="-7.71028e-05" y1="1103.26" x2="1817.89" y2="255.548" gradientUnits="userSpaceOnUse">
<stop stop-color="#0873AF"/>
<stop offset="1" stop-color="#38B7ED"/>
</linearGradient>
</defs>
</svg>
